/* XPM */
static char *_51e68716417473d9900ba9dccdaed4c3LoqhdjNVDfxc9eX[] = {
/* columns rows colors chars-per-pixel */
"64 64 3 1 ",
"  c black",
". c #250E00",
"X c #F8E20D",
/* pixels */
"                                                                ",
"                                                                ",
"                                                                ",
"                                                                ",
"   X X                                                          ",
"                          XXXX   XXXX                           ",
"                          XXXX   XXXX                   X X     ",
"                          XXXX   XXXX                           ",
"                          XXXX   XXXX                           ",
"                                                                ",
"                                                                ",
"                                                                ",
"                                                                ",
"                                                                ",
"                                                                ",
"                                                                ",
"                                                                ",
"                                                                ",
"                                                                ",
"               X X                                              ",
"                                                                ",
"                                                                ",
"                                                                ",
"                                                                ",
"                                                                ",
"                                                                ",
"                                  XXX  XXX                      ",
"                                  XXX  XXX                      ",
"                                  XXX  XXX                      ",
"                                                                ",
"                                                                ",
"                                                                ",
"                                                                ",
"                                                                ",
"                                                                ",
"                                                                ",
"                                                                ",
"                                                                ",
"                                                                ",
"                                                                ",
"             XX  XX                                             ",
"             XX  XX                                             ",
"                                                                ",
"                                                                ",
"                                                                ",
"                                                                ",
"                                                                ",
"                                                                ",
"                                                                ",
"                                                                ",
"                                                                ",
"                                                                ",
"                                                 X X            ",
"                                                                ",
"                                                                ",
"                                                                ",
"                                                                ",
"                                                                ",
"                                                                ",
"               ...............................                  ",
".........   ....................................................",
"................................................................",
"................................................................",
"................................................................"
};
