/* XPM */
static char *cf2842d31f904a4899cc9d247f1be6c96L0EstrLdtObxEtw[] = {
/* columns rows colors chars-per-pixel */
"64 64 5 1 ",
"  c #6B4700",
". c #158E00",
"X c #47FF00",
"o c #F6A300",
"O c white",
/* pixels */
"                                                                ",
"                                                                ",
"                                                                ",
"                                                                ",
"                                                                ",
"                                                                ",
"                                                                ",
"                                                                ",
"                                                                ",
"                                                                ",
"                                                                ",
"                                                                ",
"                                                                ",
"                X                             X                 ",
"               XX                             XX                ",
"              XX                               XX               ",
"             XXXX                             XXXX              ",
"            XX XXX          XXXXXXXXXXX      XXX XX             ",
"                XXX    XXXXXX.........XXX   XXX                 ",
"                 XXXXXXX................XXXXXX                  ",
"                  XXX....................XXXX                   ",
"                   XX.....................XX                    ",
"                   X......................XX                    ",
"                   X.......................X                    ",
"                   X.......................XX                   ",
"                   X........................X                   ",
"                   X.........................X                  ",
"                   X.........................X                  ",
"                   X......XXX........XXX.....XX                 ",
"                   X......XXX........XXX......X                 ",
"                   X..........................X                 ",
"                   X..........................X                 ",
"                   X..........................X                 ",
"                   X..........................X                 ",
"                   X.............X............X                 ",
"                   X............XX............X                 ",
"                   X...........XX.............X                 ",
"                   X...XX......XXX....XXX.....X                 ",
"                   X...XXX...........XXOX.....X                 ",
"                   X...XOOX.........XXOOX.....X                 ",
"                   XX..XOXXX.......XXXOOX.....X                 ",
"                    X..XOXOXXXXXXXXXOXOX......X                 ",
"                    XX.XXXOXOOXOXXOOOXXX.....XX                 ",
"                     X..XOOXOOXOOXOOOXX......X                  ",
"                      X.XXXOOXOOOXOXX.......X                   ",
"                      X..XXXXXOOXXX........XX                   ",
"                       X.....XXXX.........XX                    ",
"                         ................                       ",
"             OOOOOOooooO X.............XX Ooooo                 ",
"             OOOOOOoooooOOXX.........XXXOOoooooOOO              ",
"             OOOOOOooooooOOXXX.....XXXOOOooooooOOOO             ",
"             OOOOOOoooooooOOOXXXXXXOOOOOoooooooOOOOOO           ",
"            OOOOOOOooooooooOOOOOOOOOOOOooooooooOOOOOOOO         ",
"           OOOOOOOOoooooooooOOOOOOOOOOOooooooooOOOOOOOOO        ",
"          OOOOOOOOOooooooooooOOOOOOOOOoooooooooOOOOOOOOOOO      ",
"         OOOOOOOOOOoooooooooooOOOOOOOooooooooooOOOOOOOOOOOO     ",
"         OOOOOOOOOOooooooooooooOOOOOoooooooooooOOOOOOOOOOOO     ",
"        OOOOOOOOOOOoooooooooooooOOOooooooooooooOOOOOOOOOOOOO    ",
"       OOOOOOOOOOOOooooooooooooooOoooooooooooooOOOOOOOOOOOOO    ",
"       OOOOOOOOOOOOooooooooooooooooooooooooooooOOOOOOOOOOOOOO   ",
"      OOOOOOOOOOOOOooooooooooooooooooooooooooooOOOOOOOOOOOOOO   ",
"     OOOOOOOOOOOOOOooooooooooooooooooooooooooooOOOOOOOOOOOOOOO  ",
"     OOOOOOOOOOOOOOooooooooooooooooooooooooooooOOOOOOOOOOOOOOOO ",
"    OOOOOOOOOOOOOOOooooooooooooooooooooooooooooOOOOOOOOOOOOOOOOO"
};
