/* XPM */
static char *_96f4e518dfd4888d0ce2ef78e3e9104uLVp563sAVk088Qw[] = {
/* columns rows colors chars-per-pixel */
"64 64 2 1 ",
"  c #000001",
". c white",
/* pixels */
"................................................................",
"................................................................",
"................................................................",
"................................................................",
"................................................................",
"................................................................",
"................................................................",
"................................................................",
"................................................................",
"................................................................",
"................................................................",
"................................................................",
"................................................................",
"................................................................",
"................................................................",
"................................................................",
"................................................................",
"............................................      ..............",
".........................................   ..... ..............",
"......................................... .......  .............",
"......................................... ........ .............",
".............  ...........................  ...... .............",
".............  ............................    ... .............",
"............   ................................   ..............",
"............ . .................................. ..............",
"...........  . .................................. ..............",
"........... .. .................................. ..............",
".......... ... .................................. ..............",
".......... ... ................................. ...............",
"......... .... ................................. ...............",
"......... .... ................................. ...............",
"........  .... ................................. ...............",
"........ ....  ................................. ...............",
"....... ..... .................................. ...............",
"....... ..... .................................. ...............",
"......  ..... .................................  ...............",
"...... ...... ................................. ................",
"...... ...... ................................. ................",
"..... ....... ......................  ......... ................",
"..... ....... .......................   ......  ................",
"..... ....... .........................   ...  .................",
"....  ....... ............................    ..................",
".... ........ .............................  ...................",
"...  ........ ..................................................",
"... ........ ...................................................",
"... ........ ...................................................",
"............ ...................................................",
"............ ...................................................",
"............ ...................................................",
"............ ...................................................",
"............ ...................................................",
"............ ...................................................",
"............ .........   .......................................",
"..      .... ..       ..   .....................................",
"........        ................................................",
"................................................................",
"................................................................",
"................................................................",
"................................................................",
"................................................................",
"................................................................",
"................................................................",
"................................................................",
"................................................................"
};
