/* XPM */
static char *_eba527c46cb402cbe6ddca7faab4b0e47Qk9WBzR05XlpPF[] = {
/* columns rows colors chars-per-pixel */
"64 64 2 1 ",
"  c #000001",
". c white",
/* pixels */
"................................................................",
"................................................................",
"................................................................",
"................................................................",
"................................................................",
"................................................................",
"................................................................",
"................................................................",
"................................................................",
"................................................................",
"................................................................",
"................................................................",
"...........................................     ................",
".........................................  .... ................",
"......................................... .....  ...............",
"........................................  ...... ...............",
"........................................ ....... ...............",
"............ ...........................  ...... ...............",
"............  ........................... ...... ...............",
"........... . ...........................  ..... ...............",
"........... . ............................  ... ................",
"..........  . ..............................  . ................",
".......... .. ................................  ................",
".......... .. ................................ .................",
".......... ... ..............................  .................",
"......... .... .............................. ..................",
"......... .... .............................  ..................",
"........  .... ............................. ...................",
"........ .....  ...........................  ...................",
"........ ...... ...........  .............. ....................",
"....... ....... ....        ............... ....................",
"....... ......      ....................... ....................",
"...... ...    . ..........................  ....................",
"...... .   .... .......................... .....................",
"..... .  ...... .........................  .....................",
".....  ........ ......................... ......................",
"....  .......... ....................... .......................",
"................ ...................... ........................",
"................ ......................      ........ ..........",
"................ ............................         ..........",
"................ ...............................................",
"................. ..............................................",
"................. ..............................................",
"................. ..............................................",
"................. ..............................................",
".................. .............................................",
".................. .............................................",
".................. .............................................",
".................. .............................................",
"................................................................",
"................................................................",
"................................................................",
"................................................................",
"................................................................",
"................................................................",
"................................................................",
"................................................................",
"................................................................",
"................................................................",
"................................................................",
"................................................................",
"................................................................",
"................................................................",
"................................................................"
};
