/* XPM */
static char *chien1700420478[] = {
/* columns rows colors chars-per-pixel */
"64 64 255 2 ",
"   c #0F0D09",
".  c #191307",
"X  c #191814",
"o  c #261B07",
"O  c #301909",
"+  c #271E16",
"@  c #1F201D",
"#  c #2C210C",
"$  c #33230D",
"%  c #3C280D",
"&  c #2E2415",
"*  c #28251A",
"=  c #352917",
"-  c #3C2C14",
";  c #33251B",
":  c #3B3016",
">  c #1A2226",
",  c #2A2A26",
"<  c #382D23",
"1  c #2E332E",
"2  c #33342C",
"3  c #3A362A",
"4  c #373833",
"5  c #3B3C33",
"6  c #432E0B",
"7  c #4B3207",
"8  c #45310B",
"9  c #4C330C",
"0  c #593807",
"q  c #54390D",
"w  c #5C3C0C",
"e  c #422D16",
"r  c #453213",
"t  c #4C3612",
"y  c #493718",
"u  c #543B13",
"i  c #5B3E14",
"p  c #533918",
"a  c #643E05",
"s  c #623E0B",
"d  c #713F06",
"f  c #442921",
"g  c #463828",
"h  c #563C28",
"j  c #443C34",
"k  c #633D26",
"l  c #3D423B",
"z  c #5D400A",
"x  c #5C4114",
"c  c #56421B",
"v  c #5C431B",
"b  c #65430C",
"n  c #6A4508",
"m  c #6B450C",
"M  c #774809",
"N  c #644514",
"B  c #6A4612",
"V  c #684817",
"C  c #6C4A14",
"Z  c #62451A",
"A  c #64491B",
"S  c #6C4C1B",
"D  c #734C14",
"F  c #7B4E15",
"G  c #724E1B",
"H  c #6D501D",
"J  c #7B5316",
"K  c #75521C",
"L  c #7B531C",
"P  c #594828",
"I  c #47453A",
"U  c #554F33",
"Y  c #574A37",
"T  c #644B23",
"R  c #634925",
"E  c #6B4D23",
"W  c #714E22",
"Q  c #6D5123",
"!  c #67562C",
"~  c #6D542B",
"^  c #735324",
"/  c #7A5522",
"(  c #775827",
")  c #7C5A25",
"_  c #72552B",
"`  c #755A2C",
"'  c #7B5B2B",
"]  c #664A34",
"[  c #724D3B",
"{  c #6A5737",
"}  c #735632",
"|  c #755B33",
" . c #7B5D33",
".. c #745C3B",
"X. c #7A5C3A",
"o. c #6A603C",
"O. c #7D6135",
"+. c #76633B",
"@. c #7C623B",
"#. c #273444",
"$. c #39444D",
"%. c #494A44",
"&. c #554C43",
"*. c #4D5249",
"=. c #565349",
"-. c #585953",
";. c #695B46",
":. c #64574C",
">. c #755C44",
",. c #756444",
"<. c #7B6646",
"1. c #73694F",
"2. c #7D6A4B",
"3. c #686559",
"4. c #776957",
"5. c #5D6360",
"6. c #74746C",
"7. c #804E0F",
"8. c #82520E",
"9. c #814F13",
"0. c #835214",
"q. c #83551B",
"w. c #875A1A",
"e. c #91631F",
"r. c #835A24",
"t. c #855825",
"y. c #8B5D23",
"u. c #825D2B",
"i. c #925F20",
"p. c #825D37",
"a. c #896228",
"s. c #8B622B",
"d. c #936324",
"f. c #94652C",
"g. c #97692A",
"h. c #836334",
"j. c #8B6532",
"k. c #83653C",
"l. c #87693A",
"z. c #8A6A3C",
"x. c #936C3A",
"c. c #87703E",
"v. c #93713E",
"b. c #815E48",
"n. c #836642",
"m. c #846A43",
"M. c #8B6C42",
"N. c #876C49",
"B. c #936E49",
"V. c #8B724A",
"C. c #957548",
"Z. c #866C53",
"A. c #877555",
"S. c #937A53",
"D. c #9A7958",
"F. c #A47A5D",
"G. c #87766B",
"H. c #8C7B70",
"J. c #A77E63",
"K. c #9D8359",
"L. c #A38659",
"P. c #998865",
"I. c #89857B",
"U. c #968879",
"Y. c #AB876A",
"T. c #B4896C",
"R. c #B08F73",
"E. c #B69479",
"W. c #C3997D",
"Q. c #7C8785",
"!. c #8A8C87",
"~. c #958C85",
"^. c #8B928B",
"/. c #99978B",
"(. c #8B9593",
"). c #9A9794",
"_. c #A89A8A",
"`. c #B29985",
"'. c #A59B98",
"]. c #9AA48F",
"[. c #9AA19D",
"{. c #B3A38F",
"}. c #A9A59A",
"|. c #979CA1",
" X c #A39CA2",
".X c #9BA7A6",
"XX c #9FB2AA",
"oX c #A9A9A4",
"OX c #B4ABA8",
"+X c #ABB2AA",
"@X c #B5B6A9",
"#X c #B1ADB4",
"$X c #A9B7B5",
"%X c #B7BAB6",
"&X c #BBBCBB",
"*X c #C39C84",
"=X c #C7A48A",
"-X c #C7AB97",
";X c #CDAF95",
":X c #D7B49B",
">X c #C6B4A7",
",X c #D1B4A8",
"<X c #D7BDAA",
"1X c #C6BBB7",
"2X c #E2BFA5",
"3X c #AFC2BC",
"4X c #BAC3B9",
"5X c #C5C6BB",
"6X c #D6C7B8",
"7X c #E2C4AC",
"8X c #E8CAB5",
"9X c #BABBC3",
"0X c #C0BFC4",
"qX c #B7CBC7",
"wX c #BBC8C6",
"eX c #C2C4C3",
"rX c #C5CAC4",
"tX c #CAC9C7",
"yX c #C3CCCB",
"uX c #CACDCB",
"iX c #D4CDC8",
"pX c #C7D2CC",
"aX c #CCD2CD",
"sX c #D5D4CB",
"dX c #C4CBD1",
"fX c #CDCDD2",
"gX c #C6D4D2",
"hX c #CDD4D3",
"jX c #CCDAD5",
"kX c #CDDDDA",
"lX c #D3D4D4",
"zX c #D4DAD5",
"xX c #D9D9D5",
"cX c #D5DCDA",
"vX c #DADDDC",
"bX c #E3D9D1",
"nX c #CDE1DB",
"mX c #D5E3D7",
"MX c #D4E2DD",
"NX c #DBE2DE",
"BX c #E1E3DD",
"VX c #DCDDE1",
"CX c #E0DFE4",
"ZX c #DCE4E2",
"AX c #D8E8E5",
"SX c #DCEAE5",
"DX c #D8EDE9",
"FX c #E3E5E4",
"GX c #E4E9E6",
"HX c #E3ECEB",
"JX c #E9E9E8",
"KX c #E7F1EC",
"LX c #E5F4F2",
"PX c #ECF4F3",
"IX c #EDF2F4",
/* pixels */
"U ] { U P Y { ;.o.o.o.o.{ U U P U P U U U U U U U U c l y y e - : e < : - : = & $ $ $ # & $ # # # # o o o . o o . o . . . .     ",
"} +.+.| ..+.+.,.,.o.+.{ { o.o.o.+.! ! ! ! o.o.! ! U P c u P p y y p p p h p t - e e : % : : : : : = # # # O o o # o o O o . . . ",
"@.n.k.k.k.l.z.z.S.V.l.c.n.n.k.@.<.@.+.O.+.+.2.+.+.! ! H R R Z i v k Z Z v c u t u 9 r r r r r r r r % % $ $ $ O $ $ $ $ $ # o o ",
"m.k.z.c.k.c.M.V.S.V.n.m.M.k.c.m.n.k.k.@.O.@.2.@.+.O.` ! Q _ ^ E S V N A T A x x i u q y u t t t r 8 8 % 6 % 6 6 6 % % $ $ $ O o ",
"M.l.m.M.B.D.L.S.S.S.K.m.m.k.@.z.h.c.j.O.l.@.+.2.O.+.| _ H ^ W G G S V E Q T A A Z Z i x x x q t c 9 8 8 8 8 6 r e 6 % % % % $ $ ",
"B.V.M.M.K.S.S.S.S.S.K.A.N.V.V.BXGXSXDXLXLXSX@X4.m.N.m._ ^ ^ ( G W S p.k.} } | | A Z Z V v x x i c c u u p t 8 8 6 6 6 % e % % $ ",
"p.l.n.m.K.V.S.S.S.D.K.N.m.;.SXGXDXKXDXLXLXDXAXkXjX1.m.! ` O.^ ( E _ ..@.| | X.}  .T A H A A v x T P c v v p t 8 9 8 6 6 r y e - ",
" .p.p.k.V.S.V.A.S.S.m.+.{.AXSXFXGXSXKXLXLXDXnXnXjXqX/.( Q E K ^ S E Q k.}  .X.| O.Q A A A A Z x v H A T v v v t u t t 6 6 8 % 6 ",
"p.p.k.p.k.@.@.2.m.<.+.+.AXNXZXZXNXNXcXMXAXnXgXkXqXqX3X4XW W S ^ S G S A ` ` X.} ^ i V V N A Z x x c T v x c A 9 9 9 9 7 6 8 t r ",
"X.p.p.m.m.2.V.V.m.m.N.pXzXcXZXNXmXzXaXaXjXjXkXnXgXqX$XXXZ.W T _ W G G G S E  ._ E V V V A A A v x z z q v c x 7 9 9 9 7 6 6 6 r ",
"X.X.| X.@.m.V.<...+.1.jXxXxXmXvXsXrXpX5XyXpXkXkXqXqX$XoX^.! E E W W G G K Q _ ` E W W S V A A x z x w 0 z c u t 9 9 9 7 6 6 7 6 ",
"X.} | +.<.+.,.o.,.>.wXzXmXNXmXuXpX5X4X5XrXrXyXyXqXqX$X(.Q.T E Q S S G D V H H ` W S V W A A A A N w 0 0 q q x 9 9 q 9 7 9 6 6 7 ",
"} } N.A.K.1.2.K.A.1.AXnXNXsX4X5X@X4X5X4XrXqXpX$X$X[.+X(.6.P A H G C W S V Q Q ~ Q ~ S A Z Z Z V s b w q i u c x q t q t 9 9 7 6 ",
"} B.Z.2.2.2.2.2.2./.nXjX4X@X}.@X4X5X>X5XwXwXwX+X$X(.(.5.*.P A ^ G S S E _ B.@.| X.|  . .A A Z A b w w u A ! v P T T P 8 q u 9 9 ",
"{ N.n.2.2.2.2.2.I.pX4X*.1 X U.+X@X@X+X%XwXwX$X$X$XXXXX.Xl ,.! O.^ p.( _ } n.| } ~ X.} @.~ A Q _ H H Z v v T v v c v P v u u q t ",
"m.Z.<.<.2.2.2.2.].nXqX$.$.l @ }.oX@X@X&XwXwX3X$X$X$X$XqXQ.I ~ ` ^ ( ^ ~ T n.| _ ~ | } X.<.A A A A Q A Z x A P c c P v P u 9 u p ",
"{ Z.A.Z.2.Z.A.A.zXAXqXqX.X> > ^.oX+X%XwXgXgXwX$X$XXXqX$X[.3.( A / K V E S E k.n.@.| | <.M.Z N b b ^ B w i i _ P T T c R ! t 9 9 ",
"! } { ..,.,.;.,.jXSXjXwX|.^.$X$XuX4XrXgXjXhXqX$XqX$XXX#.l *.( H G / G S ^ S A E _ T Q E Z N b C N b C z s i w i x x x x u 9 q 9 ",
"] ~ >.,.,.,.,.}.AXSXAXqXqX+XuXhXeXyXhXhXzXkXpXqXqXXXQ.> l *.! H E ^ ^ ^ C L / C E ^ ~ H B s b b n b N N z s z b t x c c i 9 9 9 ",
"_ } ..<.,.1.2.KXcXAXSXAXdXkXAXjXzXhXhXzXcXkXgXwXXXXX.X  > @ ! ( _ W W ^ G G F D V Q ` _ G B m n B N b z w b 0 0 0 0 q A Z i q q ",
"} ..,.1.,.{ ).HXnXnXDXDXMXmXmXmXzXzXjXmXcXjXzXyX$X(.5.1 1 2 E ^ E ^ ^ ^ K K K D K ^ ` ' N V B N b b N x z Z b z s 0 0 Z R i p q ",
"} ..,.,.,.+.mXLXmXnXSXnXDXmXDXmXaX5XpXsXaXpXjXqXXX5.-.%.I P ^ ^ ^ _ _ W K K D m G ^ ~ _ ^ b b K C B b N V b b z 0 0 s i i i p q ",
"{ { 2.,.,.U.DXMXnXqXpXqXSXSXsX6X5X5X5X4X5X5XrXrX.X6.*.%.I ! ( G G / W D K J K C C ^ A ` A S V b V B b b B b b b a 0 9 i i i i p ",
"<.;.1.;.4.{.LXnXjXjXgXnXmXsX5X4X4X@X}.{.U./.@X+X.X^.-.*.%.! ^ S G G / / ( w.K V C c.V.` +.l.c.( z N m b b C n b n w 0 ~ X.E T R ",
"Z.A.4.4.G.HXPXLXqXjXnXAXmX4X4X4X@XI.U.(.6.5.6.!.).!.-.%.I +.Q ' G ^ r.K S C ^ G c.h.O.O.` | ` +.c.A H H N C n 0 0 V v X.E Z T T ",
"@X4.2.~.HXHXLXLXnXkXnXAXpX4X@X@X}.I.6.[.*.%.j , 4 -.=.*.Y c.~ ^ ( ( ' K u.) H ^ c.O.| ` | ` ` ` ' ` x x H S b H A v v T ~ R E R ",
"'.OXLXLXHXFXvXlXzXpXzXjXpXoX].oX^.I.3.4 > X   , 5 &.*.%.= +.| @.p.l. .' l.' ' ^ H O.` ` | ~ | ` O.O.A ` H Q H A S V A i E R T Z ",
"U.H._.oXfX5X<X,X>XrXyXMXwX[.].].^.I.2 >   X X 2 j %.%.&.. l.| _ ' ' ^ ' ) ( K H ( V.+.` O.` O.` ` @.` x H H V n H b z V V p.T T ",
"H.H.G.G.fX>X<X<X:X`.rX%XwX+XI.^.6.I.2 1 + X   4 j %.&.5 : M._ ' D C G L ) K K u.H ' V.` ` O.@.+.O.@.` V V w a n G a a a i k _  .",
"H.H.G.G.1X,X<X:X;XW.zXaXoX[.I.6.&.I < j j @ 4 f &.&.-.o # ` ~ Q / L L t.) D D G C V H V.V.O.l.` V.k.x b m D D m D a 0 0 s 0 q E ",
"Z.Z.G.G.1X<X,X*XW.W.BXiXrXI.2 , .         I j &.&.:.3.5 2 3 Q ^ a.r.L G r.K D C K H S S V H S H Q A B b m F n n m D b a m b s s ",
":.:.&.-XiX-X*XW.W.T.5XxXhXuX).l * , X , X X < Y :.%.l 5 2 l 1.' / J F D ' / F F L w.q.J u.V ` ( A ( K B n n D m m S B N s a B m ",
"f O P _.1X=X:X*XT.E.NXZXNXBXoX/.H.&.j j 3 = I 6.l 5 4 4 2 4 5 3.1./ ) ^ h.' L L D r.y.n n ^ K ^ ^ ^ C n n n n C C S A N n b w b ",
"y P `.-X;X=X*XT.J.sXBXvXsXzXtXOX~.4.4.;.Y I.Y 3 2 1 4 1 1 1 4 %.%.*.U Q } _ ( ( D D D J D m K h.z.) L F C D F D H x A S V b 0 a ",
"h ] -X=X*X*XJ.J.D.CXGXKXmXNXvXzXoX~.;.j j 3 3 3 2 2 4 2 , 2 2 5 I -.-.5.! ( ( ` / F D q.q.G G S Z ^ B D F J n b C A A S A C m n ",
"Y `.*XE.E.T.J.F._.IXcXcXvXNXKXxXlX'.4.&.j j j 5 5 5 4 4 2 2 2 5 5 =.5.!.rX6.( ' ) L L n D L D ) O.' / m m m n n B C V V H B N n ",
"] >.E.E.T.J.J.F.HXLXZXfXrXuXvXxXFXOX~.3.Y j I j 5 , * , 2 2 4 5 j %.-.3.rXHXjX{ u.K D F n D C ' Q ( ^ V b m L J B D C D C b B n ",
"h ] R.T.J.J.F.lXLXAXPXFXKXaXKXJXlXtX%XI.3.=.I j 1 X       1 4 l %.&.=.4.@XNXNXmX6Xt.D m M L h.V ^ ( ( N ( D J K G C a D J a n n ",
"h >.S.J.J.F._.GXLXAXZXZXcXuXxXFXFXrX5XoX3.=.5 * + X X + X + 4 l %.*.:.3.'.BXFXvXuX5X) K S S S V E S Q ( V S V N C C m m n D n n ",
"] Z.A.J.D.>.LXLXPXAXZXGXIXNXtXvXdXvXlX'.H.I 2 * + ; + + + & X I I &.=.;.I.NXGXJXvXuX4X^ V B h.A V.Q ` ` B.^ _ A B m n a a K M n ",
"[ Z.[ h H.PXLXDXHXHXCXCXVXCXwXuXxXuXoX%X6.g o ; ; ; ; + & ; & & ;.Y Y &.4.uXVXBXBXJXFXxX6X! z.S.S.k.@.l.O.B.z.z.} D ^ C n L F b ",
">.N.Z.4.SXPXSXHXHXHXLXVXVXAXxXvXzXeX[.}.;.4._.] g ; ; & ; & ; ; ^ _ ' _ [ @XiXJXJXJXJXJXBXsXaX+.@.| @.O.O.' O.S._ N p.G n B L a ",
">.>.X.JXHXHXHXIXgXCXCXIXVXeXZX&X%X%XoX_.J.6X<X-X>.f ; ; ; ; & t W W C.^ ^ ) iXsXJXJXFXHXJXZXxX6X6X..X.h.h.O.@.k.L.z.E i ' ( / D ",
"b.>.>.LXLXLXSXdXCXhXLXVXrXhXtXKXeXKX>X<XbX8X-X=XY.h ; ; ; ; = K.m.` V h.z.u.{.xXbXBXJXJXBXBXxXbX3.V.@.O.p.z.O.n.M.` V p.` ^ l.^ ",
">.[ KXHXFXCXwXVXVXlXAXVXzX&XuXFX9XdXZ.7X2X:X*XJ.[ Z.: ; ; $ V.k.p.^ p.' ( h.k.IX_.iXbXJXsXxXsXsX6X6X ._ _ l.) ( ' k.^ ` O.H Q ' ",
">.%XKXcXSXCXvXVXHXVXVXdXwX#X9X9X0XlXb.,X:X:XW.p.k Z.< ; = G.V.D.p.k.B.z.l.v.C.`.x.T.xXbXbXiX6XiXsX,.m.v | ' z.h.p.h. .H b ^ ( K ",
"}.NXGXFXcXlXfXAXdXkXFXhX9X.XdXyXlXxX`.:X=XW.T.J.N.f : I j & . P./ ^ z.h.) / u.u.h.s.-XiXbXbX>X6X6XA.' z.| h.h.( l.F.C.H K h.0 D ",
"HXSXFXFXdXVXhXMXCXAXwXIXkXpX%XfXuXtXU.b.T.T.J.B.] < I I < & & + D.r.' G j.x./ F a.u.u.E.-X<.Z.2.{ R.' O.h.' z.O. .l.C.h.H C a n ",
"FXNXcXHXJXVXZXMXIXVXlXdXdXkX%XyXrX&X).~._.P >.2.;.Y I g 2 ; ; & O ^ / C.F t.L 0.f.t.q.y.y.K ' h.Y.O.k.k.h.( V.l.C.C.h.b V C D n ",
"MXZXHXZXvXkXhXDXZXLXhXxXZX%XtX5XaX5XOXoX&X+X4X4X~.:.e ;.E.A.1.; # j./ u.D F L w.f.y.F 9.t.0.W S H v.L.Y.h.v.M.u.Y.' v.H b m a.w.",
"JXPXHXNXcXhXSXuX9XtXtXuXeX&XfXxX&X5X'.@X).oXsX6XU.R.R.Y.L.A.P & & ( ) d.0.0.w.d.f.y.M M L q./ D ( m j.H M.G ' G z.S ' H S m J w.",
"zXNXFXcXvXzXcXpXaXuX&XIXCX1XtXeXOX1X/.sX%XxX/.E.7X<X-XD.V.+.: & & D ) f.g.f.w.w.s.y.0.7.0.q.y.G K L ) S ) K h.K H K S H H K L w.",
"aXmXzXtXvXzXhXeXiXaXsXBX&X+X%XiX1X}.%XBXiXbX7X<X<X,XR.B.[ P = & # K ) a.g.g.i.J L d.d.0.9.7.i.y.J J L L h.G M.h.( i C.s.M M M M ",
"$X5XaXIXhXuXuXlXcXpXiXhXsX1X1X{.1X>XbXOX6X=X8X2X=XR.b.k R % = & ) J j.g.w.w.8.F L s.f.8.0.d.g.w.g.g.w.D u.K u.v.( h.) r.M n J M ",
"uXrXGXZXNXlXlXrXvXuXtXiXiX1XOX_.@XOX~.1X_.`.2X:X*XB.k f h : ; = y.u.d.w.g.w.y.w.r.h.s.f.f.w.8.w.g.g.M M M q.) a.C.( s.M M M n n ",
"zXBXuXzXaXIXvXNXcXxX5XiX1XOX{.{.1XI.OX'.OX,X;X*XW.i h f f < ; = r.q.q.0.d.a.a.r./ C.h.s.r.d.w.8.d.e.w.8.t.t.x./ M.t.j.8.8.M M M ",
"JXtXxXfXfX0XlX#XrX&XfX5X1X1X{.)._.H. X0X#XH.n.T.F.[ h h * < < & F f.t.t.9.f.t.t.x.l.^ x.u.y.d.J 0.8.w.y.9.7.r.s.C.v.a.w.d.e.w.w.",
"vXlXlXfXVXJXVXfXuXvXlXtXuXeX'._.OX X X X&X'.I.:.e ; < , 2 2 3 p F F 9.f.w.g.u.y./ G l./ s.j.L q.9.q.i.d.y.D M r.r.) q.J J J w.w.",
"lXlXfXCXCXCXCXbXVXfXeX0XtX1X XOXiX'. X XoX X#X(.#X&.&.j I I 5 ..t.y.y.g.f.j./ p.^  .Q z.W z.x.s.y.d.i.d.f.g.f.a.L u.) q.M J J w.",
"xXlXfXCXlXCX0XCXlX0XtXfXxXOXOXOX X X'.'.oX X#X&X9X#X^.-.*.I l Y x.f.y.j.u.s.h.x.G C.O.l.) / j.a.g.g.w.i.d.d.8.y.x.C.L.a.M M M J ",
"fXfXfXfXCXfXxXfX#X0XfXiX1X#X XOX~.OX).'.|.9X9XVX#X9X9X9X(.-.5 =.j.u.t.t.r.t.u.' ^ z.C.C.( v.a.d.w.g.8.7.7.w.8.q.) p.C.K L.J M M ",
"lXlXCXJXfXVXCXVXfXCXfX1XOX,X1XtXOX X X~. X#X9X9X9X9X9X9X X^.!.5.j.f.t.t.q.t.t.j.z./ / ( a.h.a.g.8.i.7.9.M 7.8.M v.) v.' x.M n M ",
"fXVXfXVXfXbXJXfXCXCXfX1XOX X0XiX#X X).~.).#XdX9X9X9X9X9X(.%X(.).u.s.y.t.q.y.s.t.u.x.( l.C.L L d.i.8.9.g.7.q.w.J j.) v.v.u.' L n ",
"lXfXVXfX0XfXfX0XfXfXfX0X1X0X0X0X#X~.). X|.#X9XqX9X9X9X9XoX(.6.oX' u.f.f.y.q.a.s.r.r./ B.r.a.f.e.i.0.7.9.0.w.g.s.w N j.C.j.w x.J "
};
