/* XPM */
static char *result[] = {
/* columns rows colors chars-per-pixel */
"64 64 249 2 ",
"   c #0A0707",
".  c #0D0C0C",
"X  c #120E0D",
"o  c #1C0E0C",
"O  c #18130D",
"+  c #1B140E",
"@  c #140F10",
"#  c #151212",
"$  c #1C1512",
"%  c #1D1914",
"&  c #1D1719",
"*  c #1D1A1A",
"=  c #230F09",
"-  c #23140D",
";  c #29180B",
":  c #341C0D",
">  c #391D0C",
",  c #241513",
"<  c #2A1613",
"1  c #241A14",
"2  c #2C1B15",
"3  c #251519",
"4  c #231B1A",
"5  c #2D1C19",
"6  c #331D15",
"7  c #391E15",
"8  c #321D19",
"9  c #391F19",
"0  c #1B3610",
"q  c #342B0D",
"w  c #292317",
"e  c #2B211B",
"r  c #342116",
"t  c #3C2216",
"y  c #35221A",
"u  c #3C231A",
"i  c #392A18",
"p  c #393717",
"a  c #251F20",
"s  c #252222",
"d  c #2B2726",
"f  c #362927",
"g  c #38322A",
"h  c #372D30",
"j  c #393434",
"k  c #3C3A3A",
"l  c #411D0F",
"z  c #431D14",
"x  c #4A1E14",
"c  c #551915",
"v  c #691818",
"b  c #711B16",
"n  c #57290A",
"m  c #432414",
"M  c #4B2415",
"N  c #452915",
"B  c #4B2916",
"V  c #43251A",
"C  c #4A241B",
"Z  c #43291C",
"A  c #4B2B1B",
"S  c #522716",
"D  c #532A15",
"F  c #5B2A16",
"G  c #532B1A",
"H  c #5A2D1A",
"J  c #453519",
"K  c #57321A",
"L  c #5C331B",
"P  c #682D0A",
"I  c #622C16",
"U  c #63321B",
"Y  c #68381A",
"T  c #743D1D",
"R  c #5E1C26",
"E  c #6C0E25",
"W  c #6C1125",
"Q  c #442C22",
"!  c #4A2D22",
"~  c #4D2D28",
"^  c #4E3223",
"/  c #47352B",
"(  c #523424",
")  c #5B3524",
"_  c #5D3A22",
"`  c #583A28",
"'  c #463B38",
"]  c #633B25",
"[  c #6B3D23",
"{  c #643D2B",
"}  c #693B28",
"|  c #733E23",
" . c #753B27",
".. c #723028",
"X. c #17560C",
"o. c #315013",
"O. c #2E631B",
"+. c #384A21",
"@. c #38712C",
"#. c #444415",
"$. c #4E5413",
"%. c #77421B",
"&. c #6B5617",
"*. c #785912",
"=. c #457119",
"-. c #746D17",
";. c #494824",
":. c #505129",
">. c #4B423B",
",. c #55443A",
"<. c #6C4225",
"1. c #6A4627",
"2. c #65422C",
"3. c #6C432A",
"4. c #744324",
"5. c #7C4425",
"6. c #7B4B26",
"7. c #73442A",
"8. c #7D4529",
"9. c #734A2D",
"0. c #7D4B2B",
"q. c #6D532F",
"w. c #6C4531",
"e. c #684835",
"r. c #764B33",
"t. c #795436",
"y. c #47702D",
"u. c #6C6D2A",
"i. c #483D40",
"p. c #4B4746",
"a. c #574C46",
"s. c #57514A",
"d. c #5C4D50",
"f. c #595655",
"g. c #6B4C44",
"h. c #6B574B",
"j. c #765544",
"k. c #775747",
"l. c #7B5A46",
"z. c #755B4C",
"x. c #7A5D4B",
"c. c #665B57",
"v. c #745E52",
"b. c #775E55",
"n. c #576E50",
"m. c #7E624C",
"M. c #6B625A",
"N. c #756355",
"B. c #7B6354",
"V. c #75645A",
"C. c #7A645B",
"Z. c #78695B",
"A. c #656263",
"S. c #6D6765",
"D. c #6D6A6A",
"F. c #756A67",
"G. c #7A6E66",
"H. c #78706E",
"J. c #7A7576",
"K. c #8B311A",
"L. c #861A28",
"P. c #941D25",
"I. c #8A1634",
"U. c #931831",
"Y. c #902E2B",
"T. c #8B4E17",
"R. c #84471D",
"E. c #8F671B",
"W. c #814526",
"Q. c #884726",
"!. c #834A27",
"~. c #824629",
"^. c #844B2A",
"/. c #894C2B",
"(. c #9A4A2F",
"). c #89542B",
"_. c #965A24",
"`. c #854C31",
"'. c #865635",
"]. c #955B37",
"[. c #AA4D37",
"{. c #906931",
"}. c #A96E35",
"|. c #C77D34",
" X c #835D48",
".X c #8F5E4A",
"XX c #AD5443",
"oX c #83634D",
"OX c #886249",
"+X c #967045",
"@X c #836454",
"#X c #856858",
"$X c #846A5A",
"%X c #B67147",
"&X c #826B62",
"*X c #827165",
"=X c #82736A",
"-X c #857C7A",
";X c #CB734F",
":X c #D07B64",
">X c #3B9130",
",X c #5B9B15",
"<X c #4E8D32",
"1X c #6D8B2E",
"2X c #948834",
"3X c #CD873E",
"4X c #B2854C",
"5X c #93817C",
"6X c #CA8645",
"7X c #D78747",
"8X c #D78B53",
"9X c #E69858",
"0X c #C59B71",
"qX c #E68E68",
"wX c #DDA46C",
"eX c #DFB07A",
"rX c #E9AA6A",
"tX c #EEAF6C",
"yX c #F3AB67",
"uX c #898484",
"iX c #8D8B8C",
"pX c #928D8B",
"aX c #98908E",
"sX c #999696",
"dX c #A39A9B",
"fX c #A69FA1",
"gX c #A8A5A6",
"hX c #B3A9A9",
"jX c #BBB6B7",
"kX c #C3B5B8",
"lX c #C9C7C7",
"zX c #D3C9C9",
"xX c #D6D0CF",
"cX c #D5D3D4",
"vX c #D9D4D4",
"bX c #DBD8D8",
"nX c #DCDADA",
"mX c #E6D6DB",
"MX c #E3DDDD",
"NX c #E6E3E4",
"BX c #EBE5E6",
"VX c #ECE6E7",
"CX c #ECEBEB",
"ZX c #F4E4E8",
"AX c #F3EBED",
"SX c #F9ECED",
"DX c #F8EDF0",
"FX c #F5F2F3",
"GX c #F9F3F4",
/* pixels */
"F.Z.V.V.S.S.S.A.c.A.A.S.A.A.s.p.p.f.S.S.F.G.G.G.G.G.G.G.G.H.G.G.G.G.G.G.G.*XG.G.G.=X=X=XG.=X=X=X=X=X=X=X=X&X&X=X=X&XZ.C.B.V.N.M.",
"x.h.v.v.~ f 9 8 3 a s h p.s.d f.k h c.A.v.N.B.N.V.V.V.Z.M.Z.Z.Z.Z.Z.B.B.C.B.B.#XB.$X$X$X$X$X$X$X*X$X#X#X@X@X@X.X.X XOXt.t.e.2.e.",
"z.z.h.6 = b.kXzXmXcXdXd * d s jXuX& * & / b.F.C.N.N.Z.Z.V.Z.Z.V.Z.V.V.B.V.C.C.$X$X$X#X#X$X$X$X$X$X$X#X#X#X#X X@X X X'.t.3.1.3.3.",
"z.j.f 3 hXSXZXDXSXZXAXCXp.. # lXdXiXlXjXi.d c.Z.>.w i r i ; 2 ,.N.V.h.' f y u ,.h.B.C.&X$X&X$X$X$X$X#X#X#X#X@X X X.Xt.{ 1.3.8.8.",
"z.a.2 dXZXSXZXhXsXgXnXCXxX* . lXCXnXNXCXzXw a.M.+ >.h.M.-X5X-X8 i./ f c.C.F.F.c.1 ' V.$X&X&X$X$X$X$X#X#X@X@X@X.XOX X3.H U 7.8.5.",
"x.,.; xXSXDXmX' k h gXFXcXj # lXsXf.D.cXcXw p.S.1 G.xXMXSXGXZXc.& ' fXMXVXZXZXmXaXs a.C.&X$X$X$X$X$X#X@X@X@X.X@X Xr.L L ] 7.7.5.",
"z.,.w bXGXGXzXa A.k fXFXnX+.# lXk * d cXcXd p.D.% F.BXdXs.kXAXD.@ D.NXNXnXD.fXBXmXa.' C.$X$X$X$X$X$X+X#X@XoX.X X<.L K ] [ 7.| | ",
"N.e.* jXGXFXVXf.j k jXFXcXs . lX+.. s cXcXs s.S.+ G.ZXf , -XAXH.@ H.CXCXgX& j vXNXH.' F.$X$X$X#X$X$X&X#X X X X{ <.<.<.7.7.4.| 5.",
"N.h.g j cXGXFXVXlXcXVXCXJ.# # lXk . * nXcXd p.D.& =XZXh # J.CXJ.@ J.DXCXjX* p.cXNXD.' C.$X$X#X#X#X#X@X@X@Xl.r.w.1.6.6.6.0.4.4.4.",
"z.N.s.w >.J.gXjXlXlXsXc.s h # lXk . * cXcXs a.S.3 H.ZXh # J.CX-X@ f.nXCXBXgXjXNXcXd ,.G.$X#X@X#XoX#XoXB.l.r.w.0.6.^.!./.Q.W.W.5.",
"v.x.v.M.g 1 X X . . $ d d.p.& i.4     k k 4 p.S.& H.ZXh # J.AX-X. # f.cXFXFXAXjXf 8 g.C.r.t.4X0X%.oXOXr.7.4.0.^.Q.Q./.Q./.Q.Q.Q.",
"b.b.x.x.N.N.V.c.A.c.c.V.b.c./ d f ' ' g g k c.M.3 i.uXa @ k -Xp.* p.a * & $ $ 1 y a.$X.XeXeXeXtXwX).9.[ 4.0.6././.Q./.!./././.Q.",
"x.x.N.x.z.B.v.N.N.N.N.m.v.N.B.V.V.V.V.V.Z.N.N.N.p./ ' ' >.' ' ' p.A.c.s.a.a.>.>.s.@X0XeXrXyXyXtXtX%X1.1.0.t./.`././.).Q./.^./.!.",
"x.x.m.x.z.m.x.x.x.l.l.x.x.x.x.B.m.B.B.V.N.B.B.B.b.B.@Xb.B.B.B.x.b.b.x.C.z.g.,.^ q.0XtXrXyXyXyXrXrXwX'.4.^.`.`.^.0././.Q./.^.^.!.",
"x.x.z.x.z.x.z.m.l.m.l.x.x.x.x.m.m.m.B.B.B.m.oXm.@XoX@Xx.l.j.w.2.w.e.{ { { { ` L {.wXyXyXyXrX{.$.&.u.%. ./.`.^.).^.^.R.!.).!.6.q.",
"x.z.x.x.x.x.l.l.m.z.m.x.m. Xx.x.m.m.m.m.j.t.k.e.t.{ K D B ] 3.7.r.9.3.1.1.3.} 9.{.rX8X8XK.T u.:.@.u.^.I } <.q.q.q.q.$.#.#.#.#.o.",
"v.x.z.x.x.x.x.x.x. Xx. X X Xl.l.e.e.e.2.2.{ ) ) 7.r.^.'.`.t.0.t.`.t.0.9.4.9.7.'.t.}._.b W W.:.O.X.+.u.a.:.$.@.@.@.y.<XO.O.O.O.O.",
"k.z.z.z.x.k.x.x.x. X Xw.{ { { { w.e.w.q.q.r.r.r.`.`.`./.).).).^././.^.6.4.4.{ ( p +.OXI R U $.@.@.>X<X<X1X1X1X>XX.y.=.o.o.1X-.-.",
"k.k.k.k.k.l. Xj.A B H } } w.w.9.r.t.0.0.0.!./././././.`./././.^.6.7.4.Y 1.] J p 0 0 $.q p :.y.<X,X>X<X1XE.T.2XE.o.$.o.2X4XP P T ",
"k.z.z.z.q.) L L 1.3.0.r.`.~.~.^.^.0.6.!.0.^.^.Q./././././.`.`.8.[ U I L L L p d 0 o.$.u.$.X.X.1X,X<X2X(.P.U.P.Y.}.E.E.P c W E W ",
"j.j.e.e._ 2.<.4.8.0.0.!.^.Q./.^./.!.!.!.)./.!.^.Q.^.~.W.| 8.| Y H S D B K J p 0 X.$.E._._.E.E.-.2XE.K.L.I.I.U.P.L.b v v v E E E ",
"k.g.` { 3.7.8.6.8.~.`.^.Q.^.^.^.!./.!.!.!.!.^.^.W. .| U Y U U L F D B q J #.+.X.$.).K.I.U.U.K.(._.K.P.P.L.Y.XXXX;X;X:X%X%X%X[.L.",
"G G _ 2.5.5.5.!.^.~.~.Q.^.^./.Q.!./././././.0.Y U U U F I H L G B J p o.+.+.o.o.2XK.I.I.U.I.I.I.P.[.;XqXqX;X9X;X:X7X3X3X|.7X8XwX",
"{ 3.1.4.5.5.5.W.W.~./.~.^.^.~.~.^.!.!.^.0.5.T I H H H G H G A Z J :.$.+.o.$.&.{.P L.I.U.Y.(.XX8X7X3X|.;X9X7X|.7X3X3X3X3X3X7X|.Q.",
"3.7.7.5.5.5.5.W.8.0.8.~.~.~.~.~.!.8.8.5.[ U I I H H H G D N J ;.:.&.&.&.&.*.T.P b K.[.[.;X;X7X7X7X6X6X}.6.T._.).T._.%X4X6X_.T.R.",
"| W.5.5.5.W.8.5.W.K.W.W.W.~.~.~.~.5.Y I I F F F H H H A i p +.+.} I v v v b b W.[.%X;X7X6X7X8X}.&.Y L L n B K F I U T /.%.%.!.!.",
"5.W.W.5.5.5.8.~.8.~.8.W.~.`.~.`.| I n F F H H S F G m : i ;.+.2.v v E E v XX%X8X7X7X3X3X%XT P n n N N B N B ) H U [ T T %.5.!.!.",
"8.0.!.!.W.5.5.5.5.5.5.~.0.~.~.| Y F S F H H S F D S t q q ;.J F c c b XX%X;X6X;X7X}.{.%.Y T Y F D M B M N B A H ] [  .W.5.5.!.6.",
"5.8.^.0.!.5.0.5.!.W.!.~.0.8.| H S S F F G S S S F B M ( ` { ) x c  .`.XXXX{.}.].).Y Y [ 4.| | [ L S B M C Z M G L [ 8.6.5.!.).6.",
"4.4.!.!./.^.^.^.^.^.~.!.~.7.F M M S G S G S S F F M C x x c c ..`.OX]._.'.'.4.D G { ` 3.} r.7.[ [ G A N N V N A G ) 7.9.0.0.6.^.",
"<.4.5.Q.^./././.Q./.!.~.r.] x l M G G S S B S B B M z z z c ...X).).'.'.t.n > > 7 A ^ ) ] { ) ) G ! Z Z u m t N G K L <.9.q.q.6.",
"T [ 5.W.Q./././././.^.Y ] M z x M A A A B G A S M m z z z j..X(.].].).] N : ; 2 6 6 u ! A Z 7 9 9 : 6 ! ! Z t i ^ ^ B N N L q.%.",
"| T | 5.!./.^././.Q.5.c z z m N A N N C N M A N M m V z x { '.'.'.'.1.l > ; 1 % 1 ; u A Z r ; ; w 1 < ! ^ A A Z ^ A q : m m 1.<.",
"4.| | | 5.0.!.!.!.^.Y x t 7 V Z A A N N N A M N Z t t t V 7 N m N N t > : ; , , , 6 Z A ^ i ; - - - 2 ^ ^ ^ A ^ ^ A > ; ; > 2.Y ",
"7.| T T 4.5.W.!.0.0.F l 7 C C A A A N N m M C N N t t t u 9 7 9 6 6 6 2 2 1 , , , 2 u ^ ` Q ; = - - y ~ ^ ! A ! N N Z : r t J K ",
"W.5.5.| | 5.5.0.8.] x > 7 V C ! A Z Z V m m m Z V m u y 9 6 < 8 2 < 1 2 1 % % 3 < 6 f ! ` ^ i 2 6 r f ! Q Z ^ Z t t V Z i N i J ",
"8.W.8.| | 5.8.7.] z > > 9 ! x C Z Z C V m m t t u u u t 6 6 < < 5 < < 1 1 % % 1 < 8 9 9 u Z Q Q u i Q Z y u Q Q u z Z ! A C Z G ",
"5.5.W. .| 7.7.S x 7 7 9 z C x V m V z V V m m t m u u 9 7 < : < < < < 5 1 1 % % 5 2 5 8 8 8 2 6 i Q ^ Z 6 t Z Q 9 9 ! ! A G G ] ",
"6.5.5.4. .3.S l > 6 8 9 V z Z V V V Z u m u u u u m t 6 7 6 6 5 4 , , < 3 $ % % 1 , < 2 5 2 5 6 u u Z Z t r t u 6 r u Z A ) w.7.",
"4.6.4.7.} H x 7 6 6 7 7 u u V V u V V V 7 V u z u u 6 9 7 6 6 2 5 1 1 3 3 , $ % 3 1 < 2 2 8 8 2 y u i u r 2 e e 4 1 5 u ` e.w.7.",
"4.T <.3.M > : 6 6 6 6 6 6 u i u Z V Z u u V u z m 9 7 6 7 6 7 6 1 1 1 3 , 3 $ $ , , , 2 5 8 5 y f u u 6 1 % 4 & % * & 8 / ! } 8.",
"<.] [ ] > ; 1 < 5 6 2 2 6 6 u t u Q V V u 9 u u V 9 9 8 8 7 7 3 w 1 1 3 , , $ $ % - < 8 8 8 5 y u y r 1 1 $ * % * * & , - 6 2.8.",
"] ] { N ; ; 1 2 5 8 6 w 2 6 r t u u u u u u t u 9 u 9 9 7 6 6 < 1 < , , $ $ + + + , 1 2 5 5 8 y u r 4 4 * * 4 1 1 4 5 8 6 ^ 9.5.",
"` ( Z ; 2 1 , 1 2 2 6 6 6 6 6 7 7 9 7 u 7 u 9 7 u u u u 8 7 6 < 1 , < , , % % + % , , < < < 2 8 5 4 * $ 4 4 5 < 6 u Q ` 2.3.7.4.",
"u u < , - , , , < 8 6 6 9 9 9 9 6 6 8 9 7 u 9 6 9 u t t y r 2 < < 3 , , , $ + % + , , , < < 2 5 < , 4 % 3 5 8 6 u ! { w.7.5.4.4.",
"e < - - - - - 1 < 2 8 6 9 9 u 9 7 9 9 9 9 u 9 u 9 u u t u u u 8 < 1 , % , + + % , , , , < 2 < 2 8 5 8 8 6 < 6 < 9 ! w.7.5.W.5.5.",
"5 5 3 , , $ - , , 5 8 9 u u u Q u 9 9 9 u V u u 9 z 9 u u u y 6 e 1 ; , $ $ , 1 1 , , - 5 2 6 8 9 8 8 8 < < < < 6 ! w.8.8.W.W.| ",
"1 , , $ o $ , , , < 2 8 9 f u Z 9 V z f u u V u 9 9 Q u f u u 6 2 2 2 , - % % % % , 1 2 2 w 6 r u u 6 < < < < < < z } 7.8.W.W.W.",
"1 , , $ $ $ $ , , , < 5 u f V V u u u V u u u u u u 9 f 9 f z 9 : 2 1 - - - % % 1 , 1 ; 2 w y y f u 6 1 , , = , < > L 9.0.8.8.W.",
"< 1 % $ $ $ o $ , o - 1 8 8 9 9 9 9 9 9 9 9 t r 7 y 9 z u 9 u 9 w w w 2 1 + % % % 1 1 2 6 r y u u y 6 ; , - , , < 6 J w.w.0.8.~.",
": - % $ o # # # # $ $ 1 < 2 5 5 8 8 6 6 9 r y y y y u u u V V 9 t r w 2 1 + + 1 , 1 , ; 6 6 y u u y r 6 , , - % 1 2 7 A } r.8.~.",
"V ; - + o $ $ & o $ $ , % , , < 2 2 2 2 2 2 6 6 6 9 9 9 u Z V z V t r w w + + + - 1 2 2 2 6 6 u i u y 8 < , , $ 1 1 2 t ! ` 7.8.",
") m ; - O + $ # $ O + + % % , % % 1 1 1 w 1 % w 1 5 y 9 u u Z Q u i u r 2 1 + % 1 1 2 2 2 2 r y u u u y w 1 , $ , , , 2 y A { 0.",
"] ( i - O # # # $ O + O O $ $ O $ $ % % + $ + # 4 1 2 8 r u i u u u y r 2 , % % % 1 1 1 1 5 r f y u u r w 1 , , , , - 2 < V ] 9.",
"| Y A ; O # # & * f h d 4 O o X $ $ & $ # s.D.# 1 1 2 2 r u i i i u u y 6 1 % + % 1 1 1 < 5 2 6 y u u y 2 5 < , , , , < ; 7 ) 7.",
"<.] A - O f -XsXdXhXhXhXdXc.4 $ # & # & $ f.J.# % * 2 2 2 y i y y i y e w 1 + O + + ; - 1 < 2 6 r y e y e 5 5 3 3 3 < < < 6 C ] ",
"| } A = y kXZXZXZXAXAXFXAXmXA.@ * # s h s j k # O # # # o , 5 a s w w w * % + # O O O % % 5 1 e 5 8 e 5 8 5 8 8 8 8 5 5 6 6 t M ",
"| } A = v.ZXSXVXj # a jXDXDXkXa iXsXnXNXsXD.iX# * k 4 k S.M.h # # # # % % % O * >.>.w O # * w * 4 1 1 , < 5 y y 9 9 9 9 5 r : m ",
"|  .A = -XSXFXaX$ . # h fXgXiXs gXNXNXnXsXD.iX# s lXlXjXhXzXMXj # # d s.s.n.A.sXbXpXg % * p.f.c.c.f.h.f o 3 8 y u u u u 7 i i m ",
" .} G = 5XSXFXJ.@ & & & h j a @ gXcXuXA.p.D.iX# s nXiXh d J.NXf.. d sXMXNXbXNXNXvXp.X d sXcXCXCXFXAXBXjXc., 5 y y u u i u u t m ",
"|  .C o 5XSXFXlX. # # * lXcXA.. gXgXs @ . D.iX. s NXA.. # A.CXp.. p.cXNXjXk p.cXnXD.# sXCXFXAXVXpXcXAXSXzX, < y y u V Z Z Z Z A ",
"| } ` = / ZXDXDXNXcXlXnXNXNXA.. gXgX* # # D.iX. e NXA.. . A.CXf.. k lXCXbXD.pXNXnXD.# nXFXAXFXvXf.sXAXSXvX$ 3 8 u Z Z Q ! A G ` ",
"%.[ 3.u 5 -XxXVXFXFXFXCXNXsXs . gXgX* # # D.iX. a NXA.. # A.CXp.  d sXNXCXNXlXgXiX* # cXFXFXFXcXsXfXjXkXfX4 4 y u u Q Z ! J _ w.",
"4.4.3.2.Q 8 i.c.D.D.D.D.f.d * . gXgX& # # A.iX. s CXA.. . D.CXf.  D.NXCXCXNXsXD.A.h # iXFXFXFXbXD.uXjXkXgX4 3 f i Z Z Z A L <.r."
};
