/* XPM */
static char *result[] = {
/* columns rows colors chars-per-pixel */
"64 64 247 2 ",
"   c #050404",
".  c #0C0102",
"X  c #140303",
"o  c #1D0303",
"O  c #190B06",
"+  c #1A110A",
"@  c #250403",
"#  c #2B0403",
"$  c #270C05",
"%  c #330402",
"&  c #3C0501",
"*  c #340B05",
"=  c #3D0B03",
"-  c #2B1606",
";  c #291609",
":  c #37190A",
">  c #311912",
",  c #37230E",
"<  c #352711",
"1  c #3B2612",
"2  c #3D2912",
"3  c #440402",
"4  c #4A0701",
"5  c #540401",
"6  c #5B0300",
"7  c #580B03",
"8  c #481707",
"9  c #581805",
"0  c #680C00",
"q  c #720F00",
"w  c #671702",
"e  c #731300",
"r  c #771C00",
"t  c #49230C",
"y  c #592705",
"u  c #5A320B",
"i  c #462C16",
"p  c #562B18",
"a  c #45311A",
"s  c #493518",
"d  c #4B351A",
"f  c #54381B",
"g  c #672605",
"h  c #7D2300",
"j  c #782904",
"k  c #793606",
"l  c #693411",
"z  c #793517",
"x  c #483D28",
"c  c #553C22",
"v  c #653623",
"b  c #55411F",
"n  c #774A18",
"m  c #554223",
"M  c #5B4926",
"N  c #5B5226",
"B  c #654C29",
"V  c #754A29",
"C  c #68532C",
"Z  c #78572B",
"A  c #684C31",
"S  c #6D5633",
"D  c #6D5737",
"F  c #745A36",
"G  c #78612F",
"H  c #686636",
"J  c #6B693A",
"K  c #796838",
"L  c #76743B",
"P  c #7A7438",
"I  c #7A743A",
"U  c #715A47",
"Y  c #6D6C48",
"T  c #786B45",
"R  c #6E734B",
"E  c #7D7B43",
"W  c #767548",
"Q  c #747759",
"!  c #821D00",
"~  c #832500",
"^  c #842B00",
"/  c #8C2E00",
"(  c #902E00",
")  c #843201",
"_  c #8C3400",
"`  c #843807",
"'  c #8D3C00",
"]  c #943300",
"[  c #993500",
"{  c #933B00",
"}  c #9D3C00",
"|  c #863A15",
" . c #A13E00",
".. c #8A4504",
"X. c #954301",
"o. c #9C4400",
"O. c #9C4901",
"+. c #964709",
"@. c #9C4C0A",
"#. c #84471B",
"$. c #984917",
"%. c #8D561A",
"&. c #9A5619",
"*. c #A44400",
"=. c #A34B01",
"-. c #A54B07",
";. c #AB4D00",
":. c #B14E00",
">. c #AC5201",
",. c #A85309",
"<. c #B25401",
"1. c #B45909",
"2. c #A24D17",
"3. c #AA5616",
"4. c #B75612",
"5. c #B25B1B",
"6. c #A7601D",
"7. c #BA651B",
"8. c #86552E",
"9. c #845928",
"0. c #975829",
"q. c #A65B21",
"w. c #B65E22",
"e. c #9B6329",
"r. c #856939",
"t. c #926B38",
"y. c #877238",
"u. c #93783E",
"i. c #A76626",
"p. c #B86623",
"a. c #AC7234",
"s. c #C66B19",
"d. c #CA742C",
"f. c #846540",
"g. c #846B43",
"h. c #8A6C42",
"j. c #817D45",
"k. c #8A7549",
"l. c #8C704C",
"z. c #947A43",
"x. c #9A7D44",
"c. c #947649",
"v. c #9B7E4A",
"b. c #9A7E54",
"n. c #AC7C44",
"m. c #7F825D",
"M. c #7A8667",
"N. c #9B863E",
"B. c #CF8138",
"V. c #898249",
"C. c #9C8344",
"Z. c #9E8B45",
"A. c #9E834B",
"S. c #988648",
"D. c #868359",
"F. c #9C8952",
"G. c #98975D",
"H. c #A28444",
"J. c #AC8147",
"K. c #A38B45",
"L. c #A98C46",
"P. c #A2864B",
"I. c #A58B4B",
"U. c #A98B4A",
"Y. c #B48A47",
"T. c #A69245",
"R. c #A99346",
"E. c #A7934B",
"W. c #AB934B",
"Q. c #B49348",
"!. c #B2924D",
"~. c #A58C52",
"^. c #AA8D52",
"/. c #A6895A",
"(. c #B18556",
"). c #A69354",
"_. c #AB9354",
"`. c #AE9A55",
"'. c #AB9359",
"]. c #AD9A59",
"[. c #B29351",
"{. c #BB9554",
"}. c #B49B56",
"|. c #BA9B56",
" X c #B2955B",
".X c #B59B5B",
"XX c #BB9D5A",
"oX c #BEA057",
"OX c #BEA05E",
"+X c #878A67",
"@X c #8E946E",
"#X c #8C9472",
"$X c #8C9A79",
"%X c #919A7A",
"&X c #AF9B69",
"*X c #B69C61",
"=X c #B99E62",
"-X c #B99C69",
";X c #97A17E",
":X c #BDA163",
">X c #BCA169",
",X c #ABA275",
"<X c #BBA377",
"1X c #D1944D",
"2X c #C29D56",
"3X c #CB9D54",
"4X c #C19E5A",
"5X c #C4A15E",
"6X c #C9A159",
"7X c #C3A362",
"8X c #C4A76A",
"9X c #CAAB6D",
"0X c #C4A976",
"qX c #D6AF70",
"wX c #D5B375",
"eX c #7F9085",
"rX c #919F81",
"tX c #93A184",
"yX c #97A58A",
"uX c #9CAE94",
"iX c #A3AB90",
"pX c #A1B196",
"aX c #A3B29B",
"sX c #A9BAA6",
"dX c #CBB485",
"fX c #D7BA88",
"gX c #D3BB8F",
"hX c #B2C3AF",
"jX c #ADC6B7",
"kX c #B3C9BB",
"lX c #D3C18E",
"zX c #D8C296",
"xX c #E0C79B",
"cX c #B9D3C6",
"vX c #BFDDD3",
"bX c #BFE0D4",
"nX c #C5DBCF",
"mX c #C8E4DA",
"MX c #CBECE6",
"NX c #CAF0E3",
"BX c #CCF2ED",
"VX c #D2F2EC",
"CX c #C8FCF9",
"ZX c #CCFFFF",
"AX c #D5F9F4",
"SX c #D5FFFF",
"DX c #D8FFFD",
/* pixels */
"ZXCXCXCXCXCXZXZXZXZXZXZXZXZXZXZXZXZXZXZXZXCXSXSXDXZXZXZXSXSXSXSXSXSXSXSXSXSXSXSXSXSXSXAXDXSXSXDXAXAXBXMXbXvXmXcXhXiXrX;XuXpXhXkX",
"ZXZXZXCXZXZXZXZXZXZXZXZXZXZXZXZXZXZXSXSXZXZXSXSXSXSXSXSXSXDXSXSXSXSXSXSXSXDXSXSXSXAXVXAXBXBXVXVXAXBXcXaXaXaXyXtX%X+XD.D.D.+X@X;X",
"ZXZXZXCXCXZXZXCXCXZXZXZXZXZXZXZXZXZXZXZXZXZXZXSXSXSXSXSXSXSXSXSXSXSXSXSXSXSXSXSXSXBXmXcXjXcXMXBXMXMXnXaXsXaXpXyX;X$X@X+X+X#X%XyX",
"ZXZXCXZXZXbXZXZXZXCXeXZXZXZXZXZXZXZXZXZXZXZXSXSXSXSXSXSXSXSXSXSXSXDXSXSXSXSXAXVXMXcXsXuXaXsXkXcXkXsXuXiXpXaXtX#X@X@X#X#X$X@X#XM.",
"ZXZXZXZXZXT ZXSXSXcXp $XSXCXCXZXZXZXZXZXZXZXZXZXSXSXSXSXSXSXSXDXSXSXSXSXSXVXNXcXsXrXM.+X#X$X#XtXsXvXvXjXsXsXyXyXrX;X$X#X+X+XW R ",
"ZXZXZXZXCX+XQ CXAX: 6 9 %XrXM.sXaXsXjXBXSXCXSXSXSXSXSXSXSXSXSXSXSXSXDXAXBXnXhXtXQ Y R Q R R +XtXaXcXcXjXsXuXtXrX@XG.G.G.G.V.D.D.",
"CXCXZXZXZXMXw V 8.7 5 9 > + > - * O m Q rXjXSXSXDXSXSXSXSXDXDXSXSXAXBXMXnXcXuX$XM.Q Q Q Q M.#XtXaXsXsXsXuXyXrX%X@XG.G.Z.S.N.D.D.",
"MXMXBXCXZXZXu ) $.r & t . . o t p c : t : > Y jXDXSXSXSXSXSXSXAXAXAXNXmXkXaX%X+XQ Q R Q +X+XrXrXtX%X+XG.D.D.F.A.S.V.E E L m.u.j.",
"BXZXZXZXZXCXp 0.r 2.0 % . X % z 9 & t & p t > 1 rXjXAXDXDXAXAXBXBXMXnXkXaXtX+XD.R R Y Y Y W W V.V.m.E E m.I V.E m.P P L m.N.m.m.",
"BXVXZXZXSXZX/.^ _ ] | 3 Z $.` e ) $.z 7 8 * @ $ @ a BXDXDXDXAXVXBXmXcXhXuX$Xm.Y J H H H H L W L L L L L H W E E P P L P P P P P ",
"NXMXBXBXMXnXb.} } -.-.k o.=.2.$.` 0 h +.^ k g 4 9 p Q DXAXVXMXnXnXsXiX#XD.E L H H H H H H H H P G J H L ].,XV.I P L m.E j.j.P E ",
"sXjXjXcXcXmX8.r { { o.$./ -.-.$.@.` r h { [ { O./ r g * #XsXpXyXtX;X+X+XD.E L L J L J J P P P P P L I V.,XdXG.Y 2 b P E j.E P P ",
"+X#XrXrX;X<X' o.@.w.w h ^ ` X.X.{ X.X.h r { { [ / / _ ..7 = W L I I P L L L J L L L I I T J J J L y.V.&XxXgXC ; . . < L P P P P ",
"M.M.M.M.lX@...0.g $.' ) r g ^ } o.' _ { ~ h ) { ( / _ } +.#.8 B T Y W I J J H H H J L J J J J L P P P Z f = % @ . .   E E P P H ",
"Q Y Y K o.' k & l @.o.X.j r h '  .{ *.o._ _ ~ ] [ [ X.o.+.$.| $.| #.Z K P P P L L K I 0.n n g g w w 9 w 7 0 & o . . . < P P P K ",
"Y Y Y i.;.o.-.+.3.@.,.O.' h e ` o.} { { { / h h [ o.,.2.2.2.@.+.=.,.O.@.@.%.#.#.%.q.w.3.{ _ j | n j 4 7 7 9 & # . .   ; N P G P ",
"Y Y T p.<.O.=.5.O.3.O.O.j j 0 5 *.*.{ { / ~ h h [ { =.5.5.5.3.@.O.+.2.@.X.@.X.&.3.p.d.5.' ..#.0.k w l 9 4 8 @ o . . . O Y F F F ",
"J J e.,.*.=.1.>.>.O.O.2.' g % 4 { *.;.[ _ ~ ^ ~ { 3.7.p.5.w.p.p.i.,.O.2.@.X.' o.$.n.e.X.X.,...@...y 9 8 = @ $ X . . . . > Y c./.",
"D G p.=.=.;.7.' ,.5.O.X.j 8 o v 6 3.;.=.,._ ^ / { =.o.o.o.,.5.p.7.2.3.=.o.+...{ $.u t.X._ k ) h 0.7 l & # $ X .   . . . . : f /.",
"<Xt.>.*.=.1.p.{ =.=.} ^ 0 # . p 0 ~ <.;.=.[ _ _ { =.=.{ ) X.O.,.6.5.,.=.-.=.{ { ..n lX3...^ +.$.3 8 p * o O . . . . . O + # A b.",
"wXp.*.o.>.;.,.5.{ { ` j 3 f.T % e  .<.<.=.=.{ ~ ' 3.3.=.' { X.O.=.5.3.X.{ o.{ ' X.` fXqXX.,...k 9 * % * $ .   . X $ . O M : t t ",
"(.;.} o.1.3.p.' ^ ! 0 = <XfXfXfX{ <.o.1.<.<.*.{ X.=.3.X.-.) { { O.O.5.,.X.{ X.' { @.8.fX&.p.3.z 8 & # * $ . . > $ . . o : b.8 8.",
"i.o.X...1.7.=.| 3 z v fXfXdX0X0X=Xs.;.<.<.:.<.} [ ,.,.o.,.=._ { { X.-.7.7.=.-.{ ' { g ^.y i.&.0.i # i t O X X . . . $ - 8 * F V ",
"3.....X.7.i.$.3 l t.h.f.g.f.g.T h.&.>.;.<.:.>.} X.,.-.;.7.7./ ] [ } o.5.3.5.3.q.2.$.j W.9.n e.n./.r.% c dXo $ o : @ @ @ @ # p u ",
"e.i...#.0.V 4 9 '.*X X*X*X*X:X:X=X5X;.;.*.:.:. .( o.>.=.;.;.( / / { [ <.=.,.5.-.o.o.8 =X0Xg *XI. X=X:X-XD A p 8 % : : * - d f $ ",
"z.h.u %.v @ p 8X:X7X7X:X:XOX*X*X=X=Xi.;.*.*.;.*.[ / *.*.} [ ] ( / ]  .:.*.*.} ] ( j 3 =X`.u .X`..XOX:X9XxXgX0Xv.u t A : # * > @ ",
"h.1 t h.K $ F.:X:X*X*X=X:X*X*X X.X].=X_ *.*.*.*.o.~ / *.] / ] ( ] ( } *. . .} _ ~ 9 : 7X:Xy.=XXX`.[.XX9XgXzXdX-XXX^.V 8 # V A * ",
"(.V B K F B =X=X*X:X=X*X*XOX*X.X].>X>Xd.:. .( *. .~ _ ;._ ] } ( / / ]  .*. .} ^ j * m _.'./.P.P.).).^.<XgXgX0XP.Z.^.'.^.c.p > v ",
" Xr.Z z.f c.~.I.I.~.W.I.K.K.I.C.z.z.z.H.O.=.[ } <.] ^ [ ] _ ] ( / ] } ;.;.} / ! 5 X D F F K r.t.G y.~.0XxXgXdX'.W.R.R.W.W.^.^.9.",
"z.x.^.r.f.z.u.z.z.v.C.P.I.U.I._._.].`.).Y.{ } } <.{ ` ~ ( ( ( / / [ =.3.:.[ e 0 @ . Q ^.[.).].`.`._.].8XfXgX<X'._.)._.}..X.XOX].",
"I.).).).'.'.'.'.).).I.).^.^.^.).)._.).).W.3.;.=.<.] | ~  .} [ ( ( X.d.s.o.~ 0 # . X C ~.U._._.[.`.`. X7XdXdX<X*X*X=X.X.X.X.X]..X",
"H.C.Z.I.K.K.K.P.I.K.Z.K.K.I.~.~.I.K.H.P.P.n.,.*.*.~ | 2.s. ./ r ~ 3.d.*./ q 3 . X X x ].]. X}.].].].*X9XfXdX0X X X[.)._.).). X].",
"~.'.^.^.^.U.U.U.U.I.Z.L.I.U.I.^.~.K.Z.I.K.I.n.;.o.e +.d.1. .h ! ( s./ r w 3 X . . . . l..X].}.`.}.`.OX>XlXzX0X*X`._.}.`.`.[.W.).",
"U.U.^.U.~.~.U.K.U.U.K.K.I.I.U.I.U.^.`.K.K.H.T.e.X.] 1Xd.*./ r _ 2.~ 0 5 % o     . . . . K )._.).).`.OXOXgXxXdX-X'. XE.P.A.x.H.I.",
"K.K.K.U.U.H.Z.K.Z.Z.Z.Z.K.K.K.K.I._.L.R.T.K.U.K.e.7.d.o./ q r ^ r 6 3 @ X . . . . . . . . B z.x.h.u.N.^.0XdX&Xb.x.z.~.~.P.P.I.P.",
"C.z.C.z.S.C.C.S.C.C.C.C.C.S.C.C.S.C.x.x.S.S.S.z.H.B.=.~ q q r 6 5 & % : k.p o O . . . X V ' j n u.y.S.=XgXgXdX0X>X>X:X=X'.}. X.X",
"r.r.r.r.r.r.h.h.h.h.h.r.r.r.K G K y.y.r.y.y.r.y.e.*.[ w 7 6 6 4 & 3 9 *XI.F.).k.X . X k _ <.) 7.5...J.-XgXgX<X-X].`.].`..X`.`.`.",
"k.z.v.v.v.A.A.b.x.P.A.x.x.v.v.Z.Z.P.Z.L.U.P.N.C.H.{ / 5 z 5 5 4 % 5 /._.'.'.).).'.U t ) X. .>.5.>.{ c.].dXzX0X-X X`.`.`.`.).`.).",
"I.^.).).).).).).).).'.'.'._.'._.).).A.I.).W.).W._.;.[ / q 0 3 & & (. X X}. X.X.X*X*X*Xi.] <.7.s.4.h 5 8X0XgXdX0X.X].].`.).).F.F.",
"u.N.A.F.~.^./.^.K.S.F.A.H.S.Z.I.~.).)._.)._._._._.O.=.} / 0 = @ f OX4X7X4X7X4X:XXX}. X.X4X..d.d.7.r z g [.*X=X=X.X].).).~.F.S.S.",
").^.~.~.K.H.P.~.U.^.^.)._._.'._.).).).'.'.).U.^.~.a. .[ r 5 X O  X|.[.XX}.XX|.OX|.OXoXXXOX|.a.@._ q r (.-X7X7X.X*X.X[.^.P.~.^.'.",
"U.).E.K.S.C.~.U.I.^.).).).].`.}..X:X.XXXOXOXoXOX4X2X<.[ q 3 . $  X{..X|.|.|.|.|.|.|.|.|.XX}.oXU.` ^ / w 7 7X.XOX=X.X.X*X=X7X9X9X",
"L.L.Z.K.U.^.^.)._.}.}.}.|.XXXXXX.XXX|.XX|.}.|.|.XX|.o.! 0 @ . % t.|.|.|.|.|.}.|.|.}.|.XX|.|.XX|..Xk ) 2.j %.oX|.XX2XXX4X4X7X9XqX",
"U.^._._. X|..XXXOXOX:XOXXXXXXX|.|.|.|.|.|.XX|.|.|.|.' r 4   # 5 l 7X7X5X5X5X5X5X5X|.6XOX5X|.oX4X5X}.8 { } 7.0..X[.{.{.|..X7X9X9X",
"H.H.U._.5X7X7X5X7X7X7X7X7X7X7X7X7X7X7X4X4X2X2X|..X{.i.0 3 . 7 0 4 7X7X7X7X5X4X4X6X|.4X5X7X7X7X7X|.x.r.y ( :.p.h.r.~./.c.x./.'. X",
"{.{.|.5X7X7X7X7X7X7X7X7X7X7X5X4X4X|.4X2X2X6X2X2X4X7X=.e 5 % r r 5 7X4X4X4X3X3X2X5X5X.XU.x.r.B d 2 2 t x l { ;.B.V A M d i B T F ",
"2X4X5X|.XX|.}.|.}.{.[.{.|.|.|.|.2X{.|.2X2X2X2X.X{.J./ [ 0 = 5 z u 7X{.{.{.2X4X4XQ.v.Z m s i a f d 2 a a i #.s.6X3X&.3.Y.Z A F S ",
"}.}.}.[.[.!.[.!.!.{.{.2X2X2X3X6X6X5X4X2XXX|.}.[.7Xa.~ e & @ 8 4X4X3X3X3X4Xr.Z f 1 , > a a a a d a c d 2 i a x.1Xd.1X1XqX/.S K A ",
"[.[.[._.[..X}.oX2X2X2X4X|.|.|.|.`.].}.`.W.!.!.9.6.-.e 0 # c.!.[.Q.L.H.C s : - - - - < 1 a 2 2 i a a i a a c m Z a.qX1XfX3X_.g.C ",
"W.R.R.R.L.Z.K.H.H.H.H.H.H.H.L.I.T.W.R.W.R.R._.B.d.) 5 4 ~.L.I.u.Z b i , ; - - - - - > i i i 2 2 2 2 a d M B C K h.^.>XfX6XqXb.K ",
"Z.Z.K.Z.Z.Z.K.K.Z.K.L.L.U.U.U.U.I.K.I.T.Z.a.i.s.^ 5 f C.H.N.G c c f d a < ; - - , , 2 d d m c d f m B D D D F f.b.b.b./.>X0X-Xl.",
"N.N.S.N.N.C.N.C.N.H.H.H.H.K.Z.T.E.E.Z.Z.H.d.s.j 5 n Z.z.r.f m D D K K B s , - , < i d m N B N M N N F D A M N S f.l.c.b.'.-X'.v.",
"T.T.T.E.W.R.W._.W.W.T.T.I.K.K.K.K.K.E.B.1Xd./ V f W.R.K S M S K K T g.F f 1 < 2 d M m N M S D B M C D B d d a d m C K S.=XqX9X8X",
"[.W.[.!.W.W.R.K.K.K.K.E.T.W.R._.Q.W.a.1XB.7.g u._.W.`.E.}.U.k.g.K f.c.c.F f d m C D M m B S S C M C B M d a f m C y.XX5X9XwXqXwX",
"[.[.[.!.W.E.R.R.R.L.L.L.K.K.K.L.H...<.s.B.j `.!.`.[.oX].=X7X:X].'. X>X*Xr.S F g.g.D N m M K T F D D D S F C.|.}.*X.XOX8XqXwXwXgX",
"T.R.R.R.R.R.T.Z.Z.K.S.K.K.I.I.K.n 1Xs./ ` Q.Q.[.`.}.oXOX7X9X0X:X.X'.~.l.B b m C F S S M D h.c.A.'..XXX4X|.5X7X5X5X7X5X9XwXfXgXfX",
"R.T.R.T.T.Z.Z.Z.Z.U.U.U.L.I.E.$ M * n.l W.R.R.!.[._.}.|.7X8X>X/.b.f.f.A a 2 a m C S F r./.7X9X8X8X5X7X7X7X7X8X9X9X7X8X9XqXwXfXfX",
"R.R.R.R.T.L.I.Z.Z.Z.Z.Z.Z.I.- . . @ 8 v T.W.R.Q.W.K.C.r.Z F F F F D D M m C r.u.P.^.{.5X5X7X9X9X9X7X7X7X7X7X7X7X7XXX=X7X9X9XwXqX",
"T.E.R.R.L.K.Z.Z.Z.Z.Z.K.S.m ; + . + $ s T.L.u.C m a 1 , 1 i M K h.v.[.[.[.!.[.[.{.}.[.[.}.{.XX.X|.5X7X7X7X4XXX{..X[.XX.XXX7X7X9X",
"E.R.L.L.I.I.L.I.K.I.I.K.Z.X O   . X O r.b i , , : 1 f C r.C.U.[.[.[.[.[.[.[.!.!.!.L.U.!.[.[.[.|.|.|.|.2X|.[.[.[.[.[.[.[.[.!.|..X",
"E.L.Y.Q.!._.Q.L.U.U.I.U.L.K.W.A.r.K B 1 i c F r.C.K.U.U.U.L.R.W.L.I.L.L.U.L.L.R.R.W.!.[.[.[.[.[.[.[.[.[.[.[.!.!.!.!.[.Q.Q.Q.!.!.",
"L.U.Q.!.[.!.W.L.U.U.L.U.L.L.R.W.W.W.[.I.R.L.L.K.Z.K.K.I.L.U.U.U.U.U.[.[.U._.W.W.W.[.[.[.[.[. X{.|.|.}.[.[.!.Q.Q.L.L.L.U.U.L.U.L.",
"W.W.W.[.[.[.W.W.W.L.L.L.L.R.R.T.T.R.T.L.R.R.W.L.L.L.I.I.U.^.I.^.~._.W.L.Q.L.!.Q.Q.!._.[._.[.[.!.Q.L.Y.L.U.L.!.!.Q.Q.Q.U.Q.R.Q.Y.",
"L.L.L.R.R.R.L.T.L.L.K.K.L.K.U.L.L.L.L.U.L.L.L.U.K.K.T.L.R.W.[.!.!.[.[._.[._.[.[.[.!.!.Q.{.!.!.[.[.[.!.[.[.U.[.[.[.[.!.!.Q.Q.Q.R."
};
