/* XPM */
static char *_f8b95ed1e5d4c26bf2e78080d2986e0hhbAtFjYvgYFj7Re[] = {
/* columns rows colors chars-per-pixel */
"64 64 230 2 ",
"   c #040000",
".  c #0A0707",
"X  c #190905",
"o  c #090E16",
"O  c #0D1117",
"+  c #0D141C",
"@  c #17171A",
"#  c #250B05",
"$  c #270C09",
"%  c #300F07",
"&  c #24110C",
"*  c #2C130B",
"=  c #33140C",
"-  c #38180A",
";  c #3A1A0D",
":  c #261615",
">  c #361712",
",  c #361C14",
"<  c #3B1B14",
"1  c #3C1E19",
"2  c #2F211D",
"3  c #342117",
"4  c #3D2214",
"5  c #32231C",
"6  c #3A241A",
"7  c #36281E",
"8  c #3C2A1E",
"9  c #151B24",
"0  c #141A25",
"q  c #1B1E23",
"w  c #191F29",
"e  c #251D27",
"r  c #192027",
"t  c #1B222B",
"y  c #1D2433",
"u  c #1D2539",
"i  c #282529",
"p  c #352523",
"a  c #3C2C22",
"s  c #232336",
"d  c #461D0D",
"f  c #421C16",
"g  c #46210D",
"h  c #472513",
"j  c #4F2C15",
"k  c #44231C",
"l  c #4B241C",
"z  c #432B1E",
"x  c #4B2C1B",
"c  c #542B14",
"v  c #5A2C12",
"b  c #52251C",
"n  c #552C1C",
"m  c #573014",
"M  c #54331C",
"N  c #5A341B",
"B  c #63351A",
"V  c #633A1C",
"C  c #6C3D1F",
"Z  c #753912",
"A  c #7A3D15",
"S  c #743D1B",
"D  c #7A3F19",
"F  c #4C2621",
"G  c #422D23",
"H  c #4C2D23",
"J  c #492A27",
"K  c #542C23",
"L  c #5B2D25",
"P  c #582D28",
"I  c #463225",
"U  c #4A3326",
"Y  c #453529",
"T  c #4C3629",
"R  c #4E382B",
"E  c #523425",
"W  c #5E3026",
"Q  c #593826",
"!  c #53342A",
"~  c #5C332A",
"^  c #543B2C",
"/  c #593D2E",
"(  c #493734",
")  c #553D32",
"_  c #5A3E32",
"`  c #583D39",
"'  c #612F26",
"]  c #653326",
"[  c #693526",
"{  c #643B23",
"}  c #6D3C23",
"|  c #663329",
" . c #693529",
".. c #6D3A29",
"X. c #713E22",
"o. c #733F28",
"O. c #633C37",
"+. c #6D421D",
"@. c #74421F",
"#. c #7D431D",
"$. c #5B402F",
"%. c #5D4232",
"&. c #594239",
"*. c #6C4223",
"=. c #63422E",
"-. c #694328",
";. c #744323",
":. c #7A4423",
">. c #7D4C25",
",. c #76452A",
"<. c #764928",
"1. c #7D4C2A",
"2. c #7F5025",
"3. c #7C502B",
"4. c #634533",
"5. c #694634",
"6. c #664835",
"7. c #6A4A36",
"8. c #64453B",
"9. c #664A3A",
"0. c #6C4C3A",
"q. c #714A30",
"w. c #714E3A",
"e. c #74513D",
"r. c #78533E",
"t. c #262D48",
"y. c #2C3355",
"u. c #2C355C",
"i. c #303554",
"p. c #493745",
"a. c #5F484F",
"s. c #644443",
"d. c #684D43",
"f. c #744844",
"g. c #6B5146",
"h. c #765342",
"j. c #7B5643",
"k. c #7E5A45",
"l. c #78574B",
"z. c #6C5653",
"x. c #7A5654",
"c. c #7C624B",
"v. c #736152",
"b. c #7D726D",
"n. c #81451E",
"m. c #8B4919",
"M. c #8D4A1C",
"N. c #934C1B",
"B. c #914D1E",
"V. c #984E1B",
"C. c #834621",
"Z. c #814F25",
"A. c #824E25",
"S. c #8A4A21",
"D. c #8C4B23",
"F. c #804D29",
"G. c #884C28",
"H. c #815023",
"J. c #815025",
"K. c #805028",
"L. c #85474C",
"P. c #805845",
"I. c #825C56",
"U. c #865D5D",
"Y. c #885F5F",
"T. c #9D6E49",
"R. c #86625C",
"E. c #8B665E",
"W. c #916E5C",
"Q. c #AA7E52",
"!. c #855E62",
"~. c #845D69",
"^. c #8A6568",
"/. c #976E67",
"(. c #9A7A63",
"). c #9A7673",
"_. c #A07B66",
"`. c #A37C73",
"'. c #92867C",
"]. c #B58B6A",
"[. c #B28C69",
"{. c #A98579",
"}. c #C39169",
"|. c #C49976",
" X c #CAA37D",
".X c #D4A77C",
"XX c #888686",
"oX c #918E8E",
"OX c #969799",
"+X c #AC8A82",
"@X c #B88B87",
"#X c #B6928B",
"$X c #BD948D",
"%X c #A79898",
"&X c #BF9791",
"*X c #B2B0B0",
"=X c #D68885",
"-X c #C99C89",
";X c #D29A8A",
":X c #C49591",
">X c #C59A93",
",X c #CD9D95",
"<X c #CD9D99",
"1X c #D09D94",
"2X c #F99E9F",
"3X c #CAA483",
"4X c #D6AA87",
"5X c #DEB389",
"6X c #CDA19A",
"7X c #D4A193",
"8X c #D9A995",
"9X c #DAB392",
"0X c #E4B78A",
"qX c #E1AF96",
"wX c #ECBC94",
"eX c #E7B698",
"rX c #F3BF98",
"tX c #FD9CA0",
"yX c #F2BFA1",
"uX c #EEC29C",
"iX c #FFCB97",
"pX c #F4C39B",
"aX c #F6C599",
"sX c #FECB99",
"dX c #CCC0B5",
"fX c #F8C8A3",
"gX c #E1DDDE",
"hX c #E5E4E4",
"jX c #F4F4F4",
"kX c #FEFEFD",
/* pixels */
"V.V.V.V.V.V.V.V.V.V.B.B.B.D.S.S.S.S.S.M.#.v v c X.:.;.;.*.} { { Q E 4 z z U 5 7 R R 5 R 2 a p 2 R 2 ) ) a a 2 8 %.5 G %.2 R 4.6.",
"N.N.V.V.V.V.V.N.B.B.B.B.D.D.S.S.S.S.B j C J.Z.J.{ x N ;.*.} } x h V ;.<.*.c 4 3 U T 2 R 2 T a 2 R 5 ) $.T p 2 G 4.) 3 %.2 ^ 4.6.",
"m.m.N.N.N.N.N.B.M.B.B.B.D.D.S.S.C.h >.Z.Z.H.H.J.J.J.3.h n n g J.Z.H.H.H.H.H.J.2.M 3 5 ^ 2 / a 2 T G %.$.R 2 2 ^ 4.%.5 ) 2 ^ 6.6.",
"m.m.m.m.m.m.B.B.B.B.M.M.D.S.G.>.; J.H.H.H.H.H.H.H.H.H.H.+.@.Z.Z.Z.Z.H.H.H.H.H.H.H.*.3 R 5 ^ p 2 a T 4.4.) 2 5 %.Q 4.a 3 7 / 6.6.",
"m.m.m.m.m.m.m.B.B.B.M.M.D.S.G.M J.2.H.H.H.H.H.H.H.H.H.Z.Z.Z.Z.Z.Z.Z.H.H.H.H.H.H.H.Z.*.^ / / a 5 G / %.4.4.4.4.6.6.6.0.0.0.6.6.6.",
"m.M.M.M.M.M.M.M.M.M.M.M.S.G.B <.H.H.H.H.H.H.H.H.H.H.H.H.H.H.H.H.H.H.H.H.H.H.H.H.H.H.Z.= =._ _ / %.%.4.4.4.6.6.6.6.6.7.7.6.6.6.6.",
"m.m.m.m.M.M.M.M.S.S.S.S.C.F.d Z.H.H.H.H.H.H.H.H.H.H.H.H.H.H.H.H.H.H.H.H.H.H.H.H.H.H.H.<.^ / / / ! ^ _ %.8.6.6.6.4.9.0.0.7.9.7.0.",
"A A A A A A A A D D D D S c Z.Z.H.H.H.H.H.H.H.H.H.H.H.H.H.H.H.H.H.H.H.H.H.H.H.H.H.H.H.Z.h I U U U T T T R R U ^ T U T R T R R T ",
"Z Z Z A A Z A A A A S S B m Z.Z.H.H.Z.F.o.} } } 1.F.Z.Z.Z.J.H.H.H.H.Z.Z.H.H.H.H.H.H.H.H.Z.X z 8 8 8 8 a a a 8 7 8 a G T U U G T ",
"#.#.n.C.C.C.S.S.S.S.S.C.c Z.Z.Z.Z.1.} ] | ] ] | | | ] ..} ;.;.} } .. .[ [ ..} 1.Z.H.H.H.H.1.* =.4.%.%.%.$.%.%.5 G G I 9.6.4.6.6.",
"#.n.C.C.C.C.C.C.C.S.S.,.m Z.Z.Z.1.| | | | | | | | | | | | | | | | | | | | | | ] X.Z.H.H.H.H.3.x U 4.4.4.4.6.7.I I I U 0.e.6.e.e.",
"#.#.n.C.C.C.C.C.C.C.C.h Z.Z.Z.1.] | | | | | | | | | | | | | | | | | | | | | | | | [ >.Z.H.H.H.J.V x U 5.6.6.0._ I R / 0.0.0.0.e.",
"#.#.#.n.n.C.C.C.C.C.:.B J.Z.Z.[ ] | | | | | | | | | ] | | | | | | | | | | | | | | | [ >.H.H.H.H.Z.Z.,.M H 9.6./ I ^ / 0.w.e.e.e.",
"#.#.#.#.:.:.:.:.:.n.g >.J.Z.,.| b | | | | | | | | | K | | | | | | | | | | | | | | | | [ Z.H.H.H.H.H.H.H.2.*.x 4 E ^ ^ 0.w.e.e.e.",
"#.#.#.:.:.:.:.:.:.C.B J.J.Z. .L | | | | | | | | W | K | | | | | | | | | | | | | | | | | } 1.Z.H.H.H.H.H.H.H.J.1.: x / 0.e.e.e.e.",
"@.;.:.:.:.:.:.:.:.g >.J.Z.:.| l | | | | | | | | L | K | | | W | b | | | W | | | | | | | | ] >.J.J.H.H.H.H.J.J.1.| 4 U 0.e.e.e.e.",
"@.@.@.:.:.:.:.:.;.*.Z.J.Z.[ | = | | | | | | | ] K | K | | | W | | ] | | k | | | | | | | | | ] ;.>.Z.H.H.H.J.Z.} | | $ 0.e.e.e.e.",
"S @.@.;.:.:.:.:.- Z.Z.J.:.] | b | | | | | b | | l | l  .L  .] ~ | K | | > | | L | | | | | | ] ] [ ;.>.J.J.J.1.] | | Q 6.e.e.e.e.",
"S S S @.@.;.;.{ @.Z.J.1...| K | K | | | | = | | k | , | L | | f | X ] | * W ~ L | | | | | | | | | | ] ] } ,.| | ] | ~ 6.w.e.e.h.",
"C } X.X.X.;.-.+.Z.Z.J.,.| | k | # | ] ~ | - | K O.E = | K ~ | X | , ~ | , l l | | | | | | | | | | | | | | | | | ] ] $ 0.e.h.j.e.",
"} } } } } *.c J.H.H.>.[ | | F F ~ | K | | X | < W., 3X| ! f | v.| k ` | < F > | | | | | | | | | | | | | | | | | ] ] =.0.e.j.l.h.",
"} } } X.{ N J.J.Z.H.o.| | | $ ] ~ | = , | 6 ~ =.W.h.fX< 5.(.~ -X| ; 8XP l.& d.| | | | | | | | | | | | | | | | | ] >.2.M 0.j.k.l.",
"C } } B V K.J.J.Z.1.[ | | | ] | P ] $XG | / 3XH &.[.sXW.h.5XJ 9X/ % sX_ ^.@X&Xf | | | | | | | | | | | | | | | | [ 2.J.J.-.4.h.l.",
"{ { n C H.Z.Z.Z.J...| | | | | | ~ H 6X&X~ k.sX].d.aXsX0XG sX(.6 fX= sX4X_.,X,X^.~ | | | | | | | | | | | | | | | ;.J.J.J.Z.*./ l.",
"{ j +.J.J.Z.Z.Z.,.| | | | | | | K G 6X,Xk [.sX].l.sXsXsX3XsXsX(.wX[.sXsXsX8X,X<X8.| | | | | | | | | | | | | | | ,.H.H.H.H.Z.{ / ",
"N V J.Z.Z.Z.J.1. .| | | | | | | E :X,X4X{.4X(.%.aXsXsXsXsXsXsXsXz pXsXsXsXpX,X,X$X< | | | | | | | | | | | | | | ;.H.H.H.H.Z.J.N ",
"j Z.J.Z.J.J.>. .| | | | | | | ~ 8.,X,XfXaXc.[.sXsXsXsXsXsXsXsXsXsX8 wXsXsXsXqX,X,XR.| | | | | | | | | | | | | | } H.H.H.H.Z.Z.3.",
"j ;.:.>.;.} | | | | | | | | | k I.,X,XsXsXsXsXsXsXsXsXsXsXsXsXsXsXaXa [.sXsXpX,X,X).| ] l ! l ] | | | | | | | | ] 2.H.H.H.H.Z.2.",
"1 ] | | | | | | | | | | | | L 1 K ,X7XsXiXsXsXsX0XsXsXsXsXsXsXsXsXsXsX XT.sXsX7X,XE.| * $X`.$X! ~ | | | | | | | | >.H.H.H.H.H.3.",
"k | | | | | | | | | | | | | < | F ,X|.sXiXsXsXsXQ.sXsXsXsXsXsXsXsXsXsXsXsXsXsXeX,X, L 1 <X:X,X<X/ | | | | | | | | ] >.H.H.H.Z.n ",
"6 | | | | | | | | | | | | 1 | | / >X4XsXsXsXsXsXsXsXsXsXsX5XsXsXsXsXsXsXsXsXsXeX<X& ~ &X+X>X,X,X`.L | | | | | | | | ] >.>.Z.q.` ",
"k W | | | | | | | | | | l L | | 8.@X0XsXsXsXsXsXpX}.sXsXsXH iXsXsXsXsXiX.XiXsXrX,Xk P <X, <X,X,X6Xl | | | | | | | | ] | | ~ ` R.",
"! , | | | | | | | | | | 1 | | | ~ <XX sXsXsXsXuX9.sX0XsXsX{.sXsXsXsXsXe.|.iXsXpX,X).P <X&X@X,X,X<X8.| | | | | | | | ] | J s.U.R.",
"E H f | | | | | | | | f | | | | H <XfX3 Y c.3 c.aXsX4XsXsXaX%._.sX4X3 |.sXsXsXpX,X<X, 6X<X$X,X,X<X# | | | | | | | | | H 8.I.U.R.",
"U E 6 ~ | | | | | | ~ b | | | | ^ <XpXsX4X.X0XsXsXsX[.sXsXsXsX X3X3XuXsXsXsXsXpX,X,X>X:X#X>X<X1X` ~ b | | | | | | | | G l.I.U.Y.",
"U U U 6 ~ | | | | | > | | | | | E <X4XsXsXsXsXsXsX|.4XsXiXsXsXsXsXsXsXsXsXsXsXeX,X,X,Xl.<X{.{.$XK | ] | | | | | | | ] ` x.I.U.U.",
"U U U T , ] | | | | > | | | | | H <X;XsXsXsXsXsXsX|.8X-X0X].iXsXsXsXsXsXsXsXsXeX,X,X>X&.:X<X$X& | | | | | | | | | | | * x.U.U.U.",
"I U U T T , ] | | | l ] | | | | _ <X,XsXsXsXsXsXsXsX-X,X3XsXiXiXsXsXsXsXsXsXsX7X,X,X+X<Xz.Y h E K | | | | | | | | | | P g.U.U.U.",
"I U U T T T & | | | | b | | | | K <X,XpXsXsXsXsXsX5XeXfXsXsXsXiXsXsXiXsXsXsXpX,X,X,X` ).%XhXOX@ : L | | | | | | | | | | &.U.U.!.",
"U U U T T T X L | | | ' | | | | | ! 1X;XsXsXsXsX4X'.dX3XuXsXsXsXsXsXsXsXsXsXqX,X,X+Xb.hXkX*Xq r r @ K | | | | | | | | | ! U.^.!.",
"I U U U T T X ; | | | | | | | | | ! >X1XpXsXsXsXl.. oXoX& sXsXsXsXsXsXsXiXaX,X,X>Xb.kXkXhXq r r r t : | | | | | | | | G p U.U.^.",
"I U U U U T j ..] | | | | | | | | | = ,X1XsXsXsXl.      . sXsXsXsXsXsXsXsX8X,X,X^.kXkXjXO r 9 9 + q : | | | | | | | J t.s R.Y.^.",
"I U U U U U <.Z.| | | | | | | | | | ] ).,XqXsXsXv.    O.=XsXsXsXsXsXsXsXqX1X,X).gXjXOXo O 9 t t t t k | | | K G : 9 u.u.i.x.!.^.",
"I U U U T T 3.J.1. .| | | | | | | | | ~ +X,XwXsXd.  & tX=XsXsXsXsXsXsXeX,X,X^.*XhXO r t r r t t t t F | ~ O t u u.u.u.u.u.s.~.^.",
"T T T T T T +.H.J...| | | | | | | | | | l @X1XeX    f.2X].sXsXsXsXsXqX,X,Xz.XXkX@ r r t r r r r r t @ ~ p t t y u.u.u.u.u.a.~.^.",
"U U T T T R X Z.Z.F. .| | | | | | | | | | > >X$X    L.=XwXsXiXsXfX1X,X,X` ( kXOX@ r r t r r t t t t t t 9 w t t u.u.u.u.u.p.!.~.",
"U U T T T ^ R *.Z.J.,.| | | | | | | | | | | 1 <Xp   f 7XyXeX7X7X,X,X,XH %.a *Xi t t t t t t t t t t t t t t t t t.u.u.u.u.i U.!.",
"G I I U I U T 7 ;.Z.F. .| | | | | | | | | | | k {.:X<X,X,X,X,X,X,XI.U ^ 2 q 9 9 t t t t t t t t t t t t t t t t u u.u.u.u.e U.U.",
"7 8 a a a G G a 2 N Z.,.| | | | | | | | | | | | < /.:X,X,X,X,X#X( R &.: q t t t t t 9 t t t t t t t t t t t t t y u.u.u.u.e 8.9.",
"a 8 a a a I G U I a 4 ,.| | | | | | | | | | | | | H E.,X<XR.O.X ^ U U @ t t r r t t 9 9 9 t 9 9 t t t t t t t t t y.u.u.u.9 d.g.",
"T R ^ ^ / _ _ %.) U I , l | | | | | | | | | | | | | ~ l l ~ | # 0.0.g.q t t r t t t t 9 + + 9 o w t t t t t t t t y u.u.u.s x.U.",
"R ^ ^ ^ / / / / U 8 z I 7 l | | | | | | , ^ k | | | | | | | | # h.e.&.q t t t t t w t 9 t t t t + w t t t t t t t t u t.t.s s.^.",
"^ ^ ^ ^ ^ / ^ ^ ^ T / %.%.3 W | | | ] | ) 9.d.F | | L z k | | # h.e.U t t t t t t t + t 9 t t t t 9 9 t t t t t t t t t t w s.^.",
"T U ! ^ ^ / ^ ^ / %.%.4.%.U = | | | ~ ~ _ 0.0.E ] | x g.9.n | - h.e./ t t t t t t t t o 9 t t t t t 9 9 t t t t t t t t 9 e !.~.",
"U T ^ ^ ^ ^ ^ / / %.4.%.%.U k | ] ] ! = * 7.7.6.l | E e.w.Q | ! h.j.0.q t t t t t t t t O t t t t t t t 9 O 9 9 9 9 9 o w e x.~.",
"U T ^ ^ ^ ^ U / %./ %.%.%.H G | | | # 8.K ! 7.6.4 | H 0.w.g.< ~ d.j.l.9 t t t t t t t t t 9 t t t t t t t t t t t t t t y.y.( ^.",
"T T T ^ / / / %.^ T / %.%.U > | | W ^ 9.6.= / 6.4.K U w.w.e.w.h , j.h.@ t t t t t t t t t 9 t t t t t t t t t t t t t t u.u.y.( ",
"T T U U ^ ^ ^ / ^ ! _ %.%.U k | | - 7.6.6.7.6.0.7.~ K 0.e.e.e.r.l.h.l.q t t t t t t t t t t 9 t t t t t t t t t t t t t y.u.u.t.",
"T R ^ T U ^ / / / ^ ! ^ _ 6 | | H _ 6.6.6.0.0.0.6.6.; 6.e.e.r.j.j.j.j.: t t t t t t t t t t t w t t t t t t t t t t t t u u.u.u.",
"R ^ ^ ^ ^ / / / $.%.%.$.^ l | k ^ 6.6.6.6.5.7.7.7.5.=.& e.e.r.j.r.j.j.2 t t t t t t t t t t t O t t t t t t t t t t t t t t.u.u.",
"R ^ ^ R U ^ / / / %.%./ , ~ * ^ 4.4.5.6.0.0.0.w.w.0.0.0.e.r.r.j.j.j.P.g.9 r t t t t t t t t t 9 9 t t t t t t t t t t t t t t.u.",
"R ^ ^ ^ ^ ^ / / / %.3 X , 6 U 4.4.6.6.6.6.6.7.w.w.w.w.e.e.r.r.r.P.k.j.l.@ r t t t t t t t t t t + t t t t t t t t t t t t t t u ",
"^ ^ ^ ^ ^ / / / / / %.%.%.U U 4.6.6.6.6.6.6.0.w.w.w.w.e.0.w.w.j.w.r.k.l.i t t t t t t t t t t t 9 9 t t t t t t t t t t t t t 9 ",
"^ ^ ^ ^ ^ / / / / / %.4.%.U U 4.6.6.6.6.7.7.w.w.w.w.w.e.7.r.j.w.r.r.j.j.a t t t t t t t t t t t t 9 t t t t t t t t t t t t w + "
};
