/* XPM */
static char *_b02950f7eb147c8af6fdc8888ce18b70QtLBpVjzBUIdns1[] = {
/* columns rows colors chars-per-pixel */
"64 64 252 2 ",
"   c #0D0805",
".  c #140602",
"X  c #140B06",
"o  c #1B0D04",
"O  c #150D09",
"+  c #1B0D0B",
"@  c #161006",
"#  c #1D1204",
"$  c #16110B",
"%  c #1B120D",
"&  c #070914",
"*  c #090C15",
"=  c #0C0E1A",
"-  c #0E1414",
";  c #0E121C",
":  c #151313",
">  c #1D1412",
",  c #13141D",
"<  c #19191B",
"1  c #230E02",
"2  c #270E09",
"3  c #231102",
"4  c #2A1205",
"5  c #22140D",
"6  c #2B150B",
"7  c #21180F",
"8  c #2D1A0D",
"9  c #34190B",
"0  c #231513",
"q  c #2A1714",
"w  c #231A13",
"e  c #2C1C13",
"r  c #28161B",
"t  c #261B1A",
"y  c #2D1D1C",
"u  c #341D13",
"i  c #3C1E13",
"p  c #371B19",
"a  c #331D1B",
"s  c #311D1D",
"d  c #1F201D",
"f  c #33220D",
"g  c #3A220E",
"h  c #262316",
"j  c #2C2415",
"k  c #2C241B",
"l  c #2D2C1C",
"z  c #342214",
"x  c #3D2115",
"c  c #332B15",
"v  c #3C2B15",
"b  c #34221C",
"n  c #3B231B",
"m  c #332C1D",
"M  c #3C2E1A",
"N  c #2E321D",
"B  c #3B3118",
"V  c #3A321B",
"C  c #131621",
"Z  c #161B25",
"A  c #191A25",
"S  c #13162A",
"D  c #191828",
"F  c #1A1E29",
"G  c #2D1E21",
"H  c #331B21",
"J  c #1A2227",
"K  c #1B222B",
"L  c #1B2230",
"P  c #272727",
"I  c #3B2423",
"U  c #3A2724",
"Y  c #342D22",
"T  c #333221",
"R  c #3A3425",
"E  c #232834",
"W  c #2D3338",
"Q  c #333133",
"!  c #401F15",
"~  c #411E1B",
"^  c #721F10",
"/  c #412116",
"(  c #42241A",
")  c #472C18",
"_  c #432C1C",
"`  c #4C1631",
"'  c #432E23",
"]  c #462C25",
"[  c #4B3324",
"{  c #473528",
"}  c #4D342B",
"|  c #553A2B",
" . c #43213B",
".. c #4A3A34",
"X. c #543B33",
"o. c #702A33",
"O. c #693C36",
"+. c #54402F",
"@. c #5C4434",
"#. c #58443A",
"$. c #634433",
"%. c #6C4C35",
"&. c #684838",
"*. c #714D3C",
"=. c #6D5339",
"-. c #765636",
";. c #7A5534",
":. c #74543D",
">. c #7C5C3D",
",. c #776436",
"<. c #3D1C4E",
"1. c #31344F",
"2. c #2D3C63",
"3. c #343B65",
"4. c #6D3549",
"5. c #384164",
"6. c #594743",
"7. c #534F55",
"8. c #664945",
"9. c #754E42",
"0. c #695448",
"q. c #755945",
"w. c #7B5D43",
"e. c #71554B",
"r. c #6A5C54",
"t. c #775A58",
"y. c #7C6148",
"u. c #61605D",
"i. c #7A6558",
"p. c #58526C",
"a. c #695864",
"s. c #786E6C",
"d. c #A11D1B",
"f. c #8F1331",
"g. c #A70734",
"h. c #8A5216",
"j. c #9E6B14",
"k. c #8A4926",
"l. c #845D37",
"z. c #B1572D",
"x. c #87623C",
"c. c #9B7137",
"v. c #AB6F27",
"b. c #C85D1F",
"n. c #CB6D2D",
"m. c #8A1E42",
"M. c #AD0F44",
"N. c #89594D",
"B. c #AC5F42",
"V. c #886846",
"C. c #956A47",
"Z. c #9C734A",
"A. c #866955",
"S. c #856C5E",
"D. c #956D54",
"F. c #8A745A",
"G. c #977557",
"H. c #AA7A54",
"J. c #856D63",
"K. c #9B6B65",
"L. c #8C7467",
"P. c #957868",
"I. c #887A73",
"U. c #977B73",
"Y. c #A7786E",
"T. c #9F802C",
"R. c #D1962F",
"E. c #E89635",
"W. c #F0B734",
"Q. c #F6C712",
"!. c #F0C926",
"~. c #BB844C",
"^. c #A98359",
"/. c #BCA247",
"(. c #8D816E",
"). c #9A826A",
"_. c #9D8373",
"`. c #9C8678",
"'. c #A48566",
"]. c #A68878",
"[. c #B68877",
"{. c #AF9274",
"}. c #B69677",
"|. c #CBA442",
" X c #C3996D",
".X c #CB9B76",
"XX c #C9A27B",
"oX c #D4AA7A",
"OX c #9E7F80",
"+X c #968A88",
"@X c #B78B85",
"#X c #A8928C",
"$X c #B69788",
"%X c #B79A92",
"&X c #B7A48C",
"*X c #BAA498",
"=X c #ACAAAB",
"-X c #B8A6A2",
";X c #B4B5B9",
":X c #C9968B",
">X c #C7A887",
",X c #D5AA84",
"<X c #D9B589",
"1X c #CAA698",
"2X c #DCAB95",
"3X c #D7A799",
"4X c #D4AC9C",
"5X c #DAAB9B",
"6X c #CCB294",
"7X c #DAB897",
"8X c #E6BC8A",
"9X c #E1AB99",
"0X c #EBB496",
"qX c #E3BB93",
"wX c #E6B898",
"eX c #CAAAA4",
"rX c #D4ACA2",
"tX c #D4A8A4",
"yX c #DBACA3",
"uX c #CCB3A8",
"iX c #D9B5A5",
"pX c #CABDBE",
"aX c #E5BAA2",
"sX c #F4CC8F",
"dX c #EBC79A",
"fX c #F6CC95",
"gX c #F9CD95",
"hX c #F2C698",
"jX c #F5CC9B",
"kX c #FACD9C",
"lX c #F7D199",
"zX c #D7C3AF",
"xX c #E8C8A5",
"cX c #F4CBA2",
"vX c #F5C9A6",
"bX c #FACDA2",
"nX c #F5D1A3",
"mX c #F8D1A5",
"MX c #EACDB5",
"NX c #B2BBC7",
"BX c #CFBEC5",
"VX c #CAC8CA",
"CX c #D8C9CA",
"ZX c #D9CDD0",
"AX c #DBD5D6",
"SX c #E2C6D4",
"DX c #E8D6D8",
"FX c #E3E0DC",
"GX c #EEEDEB",
"HX c #F5F4F5",
"JX c #F8F9F8",
"KX c #FCFCFC",
/* pixels */
"t h h < > > > > 0 0 0 > > > > : : : : : : : : : : : : : : : : : O O : : : : : : : : : : : : : : : : : : < < < < < : : O O O O $ ",
"t k h t t w w q q q q r t q q w q w w t t t w w w w w t 0 0 0 0 0 0 > > > > > > > > > > > > > > > > > w t t w w w 0 0 > > > > > ",
"k k k b y y y s a a a s s s s y G G G y y y y y y y y y y y y y y y t t t t t t t t t t t t t t t t t t t k t t w y y q q q q q ",
"b b b s s s s s s s I I I I I I I I I I I I I U I s u u u n I I b s G I I G y G G G G G y y y y G y y y y y s s s s s y y s s s ",
"b b s s s s b b b I I I I I I n I I ] I I p 6 . 1 b n x i u p q b e p q q u + y I H H H s s s s s y y y y a a a a s s s s s s s ",
"y y q q q y y a a a a a a s s z a b y q q p n u u n i ! ! ! n n 6 u ! ! i i n e 0 0 q q q q q q q q q q q q q q q q q q q q q q ",
"0 0 5 5 5 0 0 0 0 q q q q q q w w 5 e i x n x x x x x / ! ! x x x x ! ! / / ! i % . % % 5 5 % % % % 5 5 5 5 5 % % % % % % % % % ",
"$ $ $ $ $ $ $ + + % % % % % % $ + n / x x x x x x x / / / ! / / / / ! ! ! ! x x n 6 X O O O O O O O O O O O O O O O O O O O O O ",
"X X X X X X X X X X X O O X X 6 x i ! ! ! ! ! ! ! ! / / / ! / / ! ! ! ! ! ! x x x x + o     X X X X X X X X O O O O O O O X X . ",
"X X X X X X X X X X X O O X X i / ! ! ! ! ! ! ! ! ! / / / ! / / ! ! ! ! ! ! ! ! ! x z .     X X X X X X X X O O O O O O O X X . ",
"X X O O O O O O O O O X . 6 x i / ! ! ! ! / / ! ! ! / / / ! / / ! ! ! ! ! ! ! ! ! x n 7 X O X X X X X X . X X O O O O   X X . . ",
"O + $ $ % % % $ $ $ $ X e i ! ! ! ! ! ! ! / / ! ! ! / / / ! / / ! ! ! ! ! ! ! ! ! ! n p . O X X X X X X X X O O O O O O O X X X ",
"% % % % % % % % % $ O 6 _ ! ! ! ! ! ! ! ! / / ! ! ! ( i x ( i ! ! ! ! ! ! ! ! ! ! ! ! n 5 @ O O O O X X X X X X X X X X X X X X ",
"% % % % % % % % % > O / x ! ! ! ! ! ! ! ! / / ! ! ! x u 4 x x ! ! ! ! ! ! ! ! ! ! ! / x z o $ + O O X X X X X X X X X X X X X X ",
"% % % % % % > % % 5 q / / ! ! ! ! ! ! ! ! / ! ! / / u 4 1 8 x ! ! ! ! ! ! ! ! ! ! ! x x ( 2 + $ $ O O X X X X X X O O O O O O X ",
"% % % % % % % % % 2 p ! ! ! ! ! ! ! ! ! ! ! ! ! / 9 4 3 3 3 i ! ! ! ! ! ! ! ! ! ! x x i ~ p $ % $ $ O X X X X X X O O O O O O X ",
"% % % % % % % $ % # n ! ! ! ! x x i x / i x x x u 4 1 3 3 3 8 x x x ! ! ! ! ! ! ! ! x ! ! x u + $ $ $ O O O O O O + + + O O O O ",
"% % % 0 > > > > $ o i ! ! ! ! x x u 1 u x x x 9 1 3 3 3 3 3 1 x x x ! ! ! ! ! ! ! ! ! ! ! x n q X > $ O O O O O + + + $ $ O O O ",
"% 5 5 w w w w 0   # 9 i x / x z 4 1 1 4 8 4 1 3 3 # 3 3 3 3 3 6 x / ! ! ! ! ! ! ! ! ! ! ! i ] 2 . % % $ $ + O O O $ $ % % $ % O ",
"7 w w w w w w w % # 4 9 9 6 4 3 3 3 3 3 3 3 3 3 3 # # 3 3 3 3 1 i / ! ! ! ! ! ! ! ! ! ! ! ! ~ I 5 % % $ $ $ % % % $ $ % % $ % % ",
"6 q j h h h w w X # 3 3 3 3 3 3 3 3 3 3 3 # # 3 3 o 3 4 3 3 3 3 6 x x x ! / ! ! ! ! ! ! ! x x ~ q % > > > > > % % % % % % % % % ",
"8 8 j h h h h w X # # 3 3 3 3 3 3 3 3 3 1 o o 3 5 o 5 3 3 3 3 3 1 u x x x 9 i ! ! ! ! ! ! x x ~ p X : > > > > % % % % % % % % % ",
"9 8 c m l l h w X o 3 3 3 3 3 3 3 3 3 4 o % % 4 o o #.4 3 3 3 3 1 4 i x x 9 9 / ! ! ! ! ! x x ~ n X > > > > > : : % % % % % % % ",
"f f c m m l h h $ o 1 3 3 3 3 3 3 3 3 1 a q w 3 5 5 i.8.4 3 3 3 3 1 3 4 4 1 4 9 ! i ! ! ! x x ~ n X > > > > > : : % % % % % % % ",
"g g v M M m j w X o 3 3 3 3 3 3 o o 3 o (...t 6 O ..} uX8.5 3 3 3 3 3 3 3 3 4 4 9 x / / x / ! ~ b $ 0 0 0 > > > > 5 5 7 7 w 7 w ",
"g g v M V m l # 5 3 3 1 3 3 3 # . 3 2 0 + s.r.1 5 ].y.@XtXe.3 3 3 3 3 o o 3 3 3 3 6 x x x x i ( e % 0 0 0 0 > > > 5 5 w w e e z ",
"g g v M V m j 3 1 o $ 1 3 3 3 X # 4 8.P.1XMXMX>X4 u xXwX2X4Xe 5 5 3 3 e R 3 # 3 3 3 4 8 x x x n . w w w w w w > w w w e k n _ [ ",
"g g v M V m h o ' i.X 1 3 3 R Y 5 P.4XwXcXjXnXnX>X[ V.hXbX2XeX..5 o o [ ).3 3 3 3 3 3 1 3 3 4 5 X w w w w w w w w j k Y { | @.&.",
"i g g M V m w % *X0.q 3 O . %Xk U MXxXmXbXfXlXnXlXmX7XkXgXgXdX7Xz   t :.xXn 4 4 3 3 3 1 o 5 # # % w w w 7 w w w j m { | $.=.y.V.",
"g g g v V V j b #X_.i.:   + >Xs...) | 9 1XbXgXfXfXfXfXjXdXmXmXMX#X  % }.mXP.3 3 3 3 1 1 . X.# % % t w w 7 w e z M } @.:.y.V.G.^.",
"! g g v V V c I U.S.J.7 % . $Xq.7XjXnXdX[.G.dXkXkXgXfXXX@.@X}.9.y.m $ 7XkXqXo 1 3 3 6 } q J.$ X P U b e e e n _ +.&.q.V.D.Z.^.^.",
"/ g g v V V V Y U.S.U.J.5 X m dXgXgXgXkXvXF.6XkXbXkX}.A.cXsXsXfX}...i.jXkX}.X X 5 # t.U.e.uX#.0 6.#.R m b z ' +.%.>.V.Z.Z.H.^.^.",
"/ g g v _ V V l %XeXU.@X+ X `.kXgXgXkXkXfXwX=.qXvXMXw.vXkXgXgXgXcX{.<XfXkXF.X . 5 q %XJ.].iX1X7.s.0.#.{ U R } &.>.V.C.Z.Z.Z.Z.Z.",
"/ g g v _ V V N 1XuXU.1X6 + %XkXgXdX7X'.6XzXu [ [ S.F.dX<X}.7XhXhX7X{ xX7Xr.  . 2 `.L.eXP.4XrXI.I.i.0.#...X.@.:.V.V.V.C.c.C.C.C.",
"/ g g v _ ' V j $X1X_.4XL...].kXgXdXP.zX`.U.#.>XdXzX'.XXuXZX6XvXfXjXO x A.r.  0 6 eXi.uX].rXrXr.I.J.i.0.6.&.:.w.x.V.x.x.l.l.l.l.",
"/ i z v v V V T X.uXL.6X:X[.| fXlXdXdX8XnX].| ^.dXxXq.dXhXiX{.<XgX7X@.cXjXi.s.+ #X4X$XY.@XyXS.i.S.J.i.y.e.q.w.V.x.x.l.;.;.;.;.;.",
"/ i z z v V V R m #X0.].3XaX>X0.zXnXlXxX}.w.&XxXnX>Xy.}.jXjXcXjXcX'.xXhXkX>X@.} 1X4XL.rXyXrXX.e.y.i.J.S.i.A.V.V.V.x.l.;.;.;.;.;.",
"( i u z v V V T Y #.*X#XtXwX8X<XV.A.J.i.A.iXxX'.{.}.6X@.{.nXcXxXG.F.dX8XgXjXiX4XiX:X$X:X1X@.| +.0.i.J.L.L.P.G.V.V.x.l.;.;.;.;.;.",
"( i u z z m R T N R n J.4X9XqXkXhXxXxXxX>X'.G.F.].>XoXdXF.[ w.@.$XbXkX.XkXkXwX2X1X1XA.1XU.{ [ | #.e.J.(.).).G.V.x.l.l.;.;.;.;.;.",
"i 8 e e m m T N N k $ { 4X2X9XgXfXhXcXK.8.U.[.K.K.N.'.aXxXqXhXfXfXfXbX XkXkX9X4X].#XtXOX% M [ } @.e.S._._.).G.V.>.>.>.>.>.-.%.%.",
"n u e e m Y T N N % X m eX9X[.jXjXoXXXG.CXFXGXAXu.AXVX#XzX'.dXjXjXkXhX{.bXqX2X4X#.5 8 + n ) [ } @.e.S._._.).D.>.-.-.>.>.>.%.$.| ",
"n u 8 e k m T N l w w % eXyX3X,XhX XhXxX..1.u.s.7.7.7.7.1X,X<XhXkXbX,XjXvX2X5X1X6 % 5 . { ) ] } #.e.S.U._.P.A.w.%.-.>.>.-.%.| [ ",
"n u 8 e k m T N l Y > > t.yX4X,XvX8XjXfX$XZXGXHXFX=Xr.L.cXbX,XcXhX X8XbX2X5X:X$Xo X o Y U _ ' } #.e.J.U.).P.A.:.%.-.>.>.-.$.[ M ",
"n u 8 e j m l l l P P < t eX9X9XkXkX XkXjX&X+X*X*X&X>XjXbXXXhXkX8XkXkX9X4X4X1Xa O X n n _ _ ' } 6.r.J.K.P.F.y.%.=.-.>.>.-.$.| M ",
"n u 8 e j m l P P d : P G U.yX3XhXjXhXkXoXnXdX.X0XbXbX<XhXhXgXgXlXhXaX3X5X6XL.  A : w U z z U } X.0.i.S.L.F.w.%.9.:.>.>.-.&.| [ ",
"n u u e j l T P - Z K E J I.eX3XwXbXgXfX.XhXhXdXjXlX XnX8XjXgXkXbX0XtX3X:X_.. * F A < : k Y U X.X.8.t.e.e.q.9.9.9.%.%.:.:.%.$.+.",
"( n u e m m Y - J K L K E HX+XyX3XvXsXfXvX7X<XqXwXqX<X,XhXkXqXqX3XyX1X:XY.a.+X, D D Z < : $ { X.#.8.t.0.e.9.*.&.&.$.&.&.*.-.%.%.",
"( n z f c k < K K K K K W JX=X%X3X2XbXkXhX<XcXnXdXXXqXcXvXXX1X4X5X:X:XA.eXDXa.D Z Z A A Z , : ..6.6.#.#.&.&.8.&.O.O.O.O.$.&.*.%.",
"( x z e w < K K K K K K W KXKX+XrX2XqXoXhXjX,XoXqXcXjXdX,X1X3X5X3X:XP.uXVXZXD D Z Z A Z C , < t Q ....} X.| $.$.O.&.$.&.%.O.*.*.",
"x z e 0 < J K K K K K K W KXKX=X%X5X2XwXXXqXbXfXkXhX7X{.3X4X5XyX@Xt.AXAXJX;XC A Z F F C , F F F = P { { X.@.$.q.9.&.&.:.=.| %.&.",
"u e % < A K K K K K K K W KXKXHX+XrX5X3X5X2X[.N.N.@XtX4X4X4X1Xe.-XSXAXKXHXu.Z Z Z F F C Z Z L Z ; * > U ' } @.9.N.*.:.q.%.%.| $.",
"e O C K C K K K K K K K W KXKXKXFXL.yX5X5X5X5X5XyX5XyXyX4Xi.#XVXDXZXJXJX;X= Z K Z Z Z K F Z K = * = & O j ' | $.q.q.q.9.X.O.| [ ",
"%   ; K K Z K K K K K K W JXKXKXKXzX+X4X1X4X5X5X2XtXeXi.-XGXAXVXSXZXKXFX7., Z K Z Z K K K F C = * = = < w U } } | &.&.X.| | [ n ",
", Z * ; F K K K K K K K J HXKXKXKXHX=Xi.P.Y.[.Y.K.Z.T.{.JXKXAXVXSXZXJX;X, , Z F Z K K K F C = * * ; F J < y ' ' ' } } ] ] ] I b ",
"K K * ; ; Z F K K K K F , =XKXKXKXFX=X(.^.o.o.4.o.R.!.,.GXJXHXVXZXZXJX7.A A F Z Z J F A C * * * Z K Z Z Z > H p n U n n n n p a ",
"K F E & ; = C J K K K K D H HXKXJXs.HXV.W.v.m.f.g.d.c.FX+XJXKXHXAXCXFXA F K A F C J A , * * Z Z Z K F F K < r a a y q e u a q a ",
"K K K F * = = Z K K K J D ` pXKX=XJXKX`.R.Q.z.g.M.f.@XJX+XHXJXKXFXZXE F F A A A Z F * * , Z Z Z Z F F F Z , + r w > 5 q q q q q ",
"K K K P E ; = ; K K K J D ` 8.=XVXKXKXHXk.W.Q.b.f.U.JXJXI.HXJXKXJXs.E , A A A A A * ; Z Z A Z Z Z Z Z Z Z , O 0 % > > 0 0 % 0 q ",
"K K K K Z Z ; & Z K K K D <.K.| BXJXJX*Xv.^ j.z.OXGXHXI.:.DXJXJX;X1.= A D A A , ; A A Z A A A Z Z Z Z Z Z <   + + : : > > > > > ",
"K K K K K Z Z ; ; K K K C 3.o.C.t.JXGX/.W.d.g.f.DXGXJ.D.K.i.JXVX1.E D A A A , C A A A Z A Z Z , C A A C Z Z * O + + + + + : : : ",
"K K K K K K Z K ; F K J ; 3.` H.^ GX&.E.Q.n.g.f.SX&.~.C.` W NX1.1.; K F F C F F F F A Z A , , A A A Z C A A : O + + + + + % + : ",
"K K K K K K K ; F C K F C 2.<.B.n.` M.d.!.Q.b.f.h.|.4. .5.2.2.2.1.F K K ; K K K K K J F Z = A A A F A F F J < O + + + + + % + + ",
"K K K K K K K F = , F J C 3.1.o.E.^ f.g.E.!.v.v.W.k.<.3.3.3.3.5.F E J , * J K K Z K F Z ; F K K K K K K K K , $ o + + + + + + > ",
"K K K K K K K P J , , K S 3.5.4.z.n.^ f.f.h.R.W.k.p.p.3.3.3.3.1.; A ; * * * ; , Z J K ; J J K J K K K K K K < : $ O O + $ : : : "
};
