/* XPM */
static char *_c09dc534bec4a65bc8744804534204fOzPfc4SAbuCpqIwv[] = {
/* columns rows colors chars-per-pixel */
"64 64 197 2 ",
"   c #010000",
".  c #0A0403",
"X  c #0D0806",
"o  c #090709",
"O  c #0D0A09",
"+  c #110604",
"@  c #120906",
"#  c #1F0F07",
"$  c #120B09",
"%  c #1B0E0B",
"&  c #14110D",
"*  c #1C120D",
"=  c #151313",
"-  c #1B1613",
";  c #1D1914",
":  c #1C1818",
">  c #210E09",
",  c #23140D",
"<  c #29160D",
"1  c #27180F",
"2  c #2D1B0E",
"3  c #301C07",
"4  c #351D0D",
"5  c #381F0E",
"6  c #231712",
"7  c #251A14",
"8  c #2B1B13",
"9  c #221C19",
"0  c #2B1E19",
"q  c #351E12",
"w  c #391F13",
"e  c #361F18",
"r  c #36210E",
"t  c #3A220F",
"y  c #2F2219",
"u  c #362113",
"i  c #3B2314",
"p  c #332219",
"a  c #3D261A",
"s  c #3B281D",
"d  c #2C1F20",
"f  c #2A2522",
"g  c #2B2825",
"h  c #352721",
"j  c #362B24",
"k  c #392A23",
"l  c #322B29",
"z  c #38312D",
"x  c #3B3432",
"c  c #383635",
"v  c #412513",
"b  c #412317",
"n  c #412515",
"m  c #432517",
"M  c #422617",
"N  c #432816",
"B  c #412418",
"V  c #43261A",
"C  c #44261A",
"Z  c #422A1D",
"A  c #442E20",
"S  c #443229",
"D  c #423730",
"F  c #453D3A",
"G  c #513E36",
"H  c #683831",
"J  c #44413E",
"K  c #49423B",
"L  c #594238",
"P  c #4B4442",
"I  c #544A42",
"U  c #5A4E43",
"Y  c #5A524D",
"T  c #5B5957",
"R  c #7B4D49",
"E  c #64564D",
"W  c #6C5B4B",
"Q  c #665C55",
"!  c #695C54",
"~  c #7C5850",
"^  c #72665C",
"/  c #7D6B5C",
"(  c #676564",
")  c #746C65",
"_  c #7C736D",
"`  c #7B7B7C",
"'  c #9C5250",
"]  c #866C5C",
"[  c #94765B",
"{  c #A66158",
"}  c #87776A",
"|  c #8C7A6E",
" . c #937D69",
".. c #857C74",
"X. c #8B7E71",
"o. c #807F7F",
"O. c #967E70",
"+. c #A06B68",
"@. c #BD6069",
"#. c #C8655A",
"$. c #CE756E",
"%. c #D97369",
"&. c #E3796A",
"*. c #8A8279",
"=. c #958172",
"-. c #998676",
";. c #998B7B",
":. c #9C8D7D",
">. c #AB8C73",
",. c #A38D7A",
"<. c #B09277",
"1. c #B9967E",
"2. c #EE8075",
"3. c #8B8484",
"4. c #898A87",
"5. c #9D8E80",
"6. c #948E8B",
"7. c #998F8C",
"8. c #9E948A",
"9. c #A49386",
"0. c #A99582",
"q. c #AA998B",
"w. c #BC9C84",
"e. c #B19E8E",
"r. c #A49A94",
"t. c #AD9E93",
"y. c #AB9D9B",
"u. c #ADA08B",
"i. c #B4A18C",
"p. c #ADA295",
"a. c #AEA79B",
"s. c #B4A393",
"d. c #B5A79B",
"f. c #B9AA9B",
"g. c #BAAB9D",
"h. c #A5A5A5",
"j. c #B9ACA6",
"k. c #BDB1A2",
"l. c #B2B0AE",
"z. c #B7B6B5",
"x. c #EA8B88",
"c. c #E49084",
"v. c #CCAA8E",
"b. c #D0AE8F",
"n. c #CAA994",
"m. c #C2AC98",
"M. c #C1B19F",
"N. c #CEB49E",
"B. c #D6B999",
"V. c #C6B5A3",
"C. c #CAB6A2",
"Z. c #CAB8A6",
"A. c #CCBCAB",
"S. c #D1BDA7",
"D. c #EBC49D",
"F. c #CFC0AA",
"G. c #DBC6AE",
"H. c #D5C4B1",
"J. c #DCC6B3",
"K. c #DDCBB5",
"L. c #D6C9B9",
"P. c #DACBBC",
"I. c #DFD1BA",
"U. c #EAC6A3",
"Y. c #EECAA6",
"T. c #EACBAA",
"R. c #F1CAA4",
"E. c #E2CBB4",
"W. c #E2CDBA",
"Q. c #E4D2BD",
"!. c #E8D1BC",
"~. c #D6CBC3",
"^. c #D9D6D2",
"/. c #E3CFC0",
"(. c #E3D3C2",
"). c #EBD6C2",
"_. c #EDDAC5",
"`. c #EBDBCB",
"'. c #F3DEC6",
"]. c #F3DFCA",
"[. c #E0D5D6",
"{. c #F3E1C7",
"}. c #F5E2CC",
"|. c #FEE7CE",
" X c #FFE7CE",
".X c #FDE8CE",
"XX c #FFE8CE",
"oX c #E4E5D9",
"OX c #F5E4D1",
"+X c #FCE7D1",
"@X c #F6EAD5",
"#X c #FCE9D2",
"$X c #FAE5DA",
"%X c #E9E9E6",
"&X c #F5F5F5",
"*X c #FBFAF7",
"=X c #FEFEFC",
/* pixels */
"j k V n V V n V n n n n n n n n n V V V V n n V V V n V n n n n n N C C n n V V V V V V V V V V V V V V V V a k j j j j j j j k ",
"k s V C C C V V V V V V V V V V V V V V V a , * * * % * , s a V V C C V i < , , 8 a V V V V V V n V n n V V V s j j j k j j j k ",
"a v n v n V V n n n n n n n n n V i a p .                     . . .                   8 a V n n n n n n n n n n s j j j j j j j ",
"a n n n n n n n n n n V n n n n a 1 @                                                   . y n n n n n n n n n n a s j j j j j j ",
"n n n n n n n v v n n n n n n i *                                                         X 0 i V n n n n n n n n s h j k j j j ",
"V n n n n n V n n n n V n n u $                                                               p i n n n n n n n n n s j j j j j ",
"n V V V n n V n n n n V n w @                                                                 X p V i n n n n n n n i s j j j j ",
"b i v n n v v v n b i i i %                                                                     . i V V n n n n n n n V a j j j ",
"a a V V n n n n n n n i 6                                                                         + a n n n n V n V n V V k k j ",
"i i i V V n n n n n V <                                               _ l                           6 n V n n n V n n n V V s j ",
"i i i V V n i i i i i O                                 O : 9 y d.+X X X X}.! =                       u n n n n n n i i i i a k ",
"i i i n n n i i i i *                                 f k.+X.X X.X.X X X X.X X}.X._                   * i i n n n n i i i i i V ",
"i i i n n n i i i p                                 F (. X X X X X X X X X X X X X+XJ.F                 8 i i i i n n b b n i n ",
"i i i n n n i i i .                               9 J..X.X.X.X.X.X.X.X.X.X.X.X+X.X.X.X}.                @ a i i i i i i i i i i ",
"i i i i i i i i 8                                 E +X X X X X X X X X X X X X X X X X X_                 8 a i i i i i i i i i ",
"a a a i i i a i .                                 `..X.X.X.X.X.X.X.X.X.X.X.X.X.X.X.X.X.XQ.                6 a i i i i i i i i i ",
"i i i i i i a *                                   +X X X X X X X X X X X X X X X X X.X X_.x                 a i i i i a a i i i ",
"i i i i i i a                               o :   }.+X#X.X+X X.X.X.X.X X.X(.#X#Xq.h h j }._                 , i i i i i i i i i ",
"i i i i i i %                               = x   .       ..H..X X X X X Xz             $ Y                 . u i i i i i i i i ",
"i i i i i e X                               O :         .   : Q +X X.X.X XQ.5.:.:.5.;.l   = .                 < i i i i i i i i ",
"i i i i i 8                                       @X#X#X+X~.K P..X X X0. X}.+X X X X X@XX   =                 * i i i i i i i i ",
"i i u i i 6                                 =   - +X}.+X@X9..X X X.X.Xi..X,..X.X.X.X.X.X`.z . J                 p i i i i i i i ",
"i i i i i .                               . a.  } .X}..X+XZ.]. X.X.X X).+XJ.Q..X.X+X X+X.X9.o p.                % i i i i i i i ",
"i i i i i                                 Y L.  `..X.X X.X}.C.E. X.X+X+X+X+X.X.X.X X X.X X+Xx F.9                 u i i i i i V ",
"i i i i p                                 g.*.$ ]..X X+X.X}.H.+X.X+X+X+X+X+X+X X+X_.#XK. X XK.W.l                 , i i i i i i ",
"i i i i ,                                 g.. .. X X X;.> OXi.G. X X+X X X X X X#X$X+X X X X#Xs..                 $ u i i i i i ",
"i i i i @                               - 8.6 A. X.X.X.X.X+XH..X.X.X X X.X X.X X_.+X X.X.X.X Xp.                    2 u u t t t ",
"i i i i .                               J P V. X X X X.X.X.X X X X X X X X.X X . X X X X X X XY                     6 i i i i i ",
"u r u u .                               f L..X.X X XQ.*.*X*Xl.H. X.X.X.X.X).W. X#XK 3._ I.+X.X.                     . 4 r r r r ",
"u q w 4 .                               l K. X X XG.7.=X=X=X=Xj.OX X X X XW.A..X^.*X=X=X6.V. X                        u i i i i ",
"r t t i +                               I }. X X X}.} =X=X=Xf V. X X X X.X X/ }.) %X=X( l {.#X                        u i i i t ",
"i i i i @                               !  X X X X X.XA.I U }. X X X X X X.X;.+X`.! U t..X X X                        p i i i i ",
"q q 4 q 6                               A. X X X X.X X X X X X X X.X.X X X Xs.#X XE. X.X.X X+XF                       p i w i i ",
"4 4 4 w p                               +X X X.X.X.X.X.X.X.X+X.X}.}.-. X X.XH.W .X.X.X.X.X X Xa.                      q 5 w w w ",
"4 4 4 4 4                               +X X X X X X X X X X X X X X,. X X X{.$X.X X X X X X Xs.                    X q 4 q 4 4 ",
"q w 4 4 r @                             .X.X.X.X+X.X.X.X.X.X.X.X.X.XW..X.X.X.XS .X.X.X.X.X.X.Xs.                    < 4 4 4 5 4 ",
"w w 4 q 4 6                           z +X X X X X X X X X X.X]._. X X X X X.X`.s. X X X X X Xs.                  @ 4 4 4 4 4 q ",
"q q 4 4 4 <                           ~.:.+X X X X X X X X X XV.Z.OXf..X+XH.E ].^ _. X X X X Xr.                  2 4 4 4 q w q ",
"q 4 4 4 q 8 X                         ).`..X X X X X X X X.X}.@XZ.6.f 9 + Y * , } j. X X X X X6                 q 4 4 4 4 4 4 4 ",
"q 4 4 q 4 4 @                       K }.H.-.+X.X.X.X.X.X.X.XZ.Q.=.w.E.] L N.w.Y.<.G .X X.X XC.8.              < 4 4 4 4 4 3 4 3 ",
"4 4 4 q 3 3 #                       } .X+XW K. X X X X X X.X(.+Xn.n.c.#.#.2.&.H B.f.+X X X X!.)             6 4 4 4 4 4 3 3 3 3 ",
"4 4 4 4 4 4 *                     O e. X X X/ }. X X X X X.Xq.=.1.$.x.{ %.%.' @.~ `.+X X X X+XX             p 4 4 4 4 4 4 4 3 4 ",
"4 4 4 4 4 2 X                     9  X.X.X XE.'..X.X.X X+XV.H.D R +.oXy.r.l.[.7.4.P..X X.X X.X              q u 5 r r t t 4 4 4 ",
"q 4 4 4 4 <                       OX+X X X X X X X X X XOXOX.   c &X&Xh.^.z.l.& c ~.u..X X X.X              q u 4 i i i i 5 q i ",
"q 4 3 4 4 X                       :.+X X X X X X X X X].)..Xs.O                 0 /.K.H. X X#X              . < u i i i i 5 i i ",
"4 4 r u %                         9 +X X X X X X X X X+X#X X}.)                 p E.+Xe. X Xt.                  X @ # i i 5 i i ",
"i i i ,                             |  X.X.X.X.X.X.X.X).S. X+XK.O             - ] E.+X5..X+X9                 X X * p i i w i i ",
"u u >                               x '. X X X X X X X Xe..X XE.} P 4.o.T ` g >.[ K.Q.(. X}.;                 $ i i i i i i a a ",
"w q q .                               D  X.X.X.X.X.X.X X]. X XO.D.U.T.T.U.R.D.R.[ E..X X.XX.          d @ . , p i i i i i w i i ",
"q u 4 u , @ O X X @ .                   p. X X X X X X.X.X.X X} 1.Y.Y.b.>.v.Y.U.N..X X X}.Y           @ u i i i i i i i i u i i ",
"u q i i i u u q q 0 .                   = t..X.X X X X.X X X X-.V.).'.J.m.J.}.).0. X X.X(.              * i i i i i i u i i i i ",
"u i i i i i i u q .                         ) _. X X X X X X.X.X X X+X X X.X X.X.X X X'..                 8 i i a i i i i i i i ",
"i u q u 4 q 4 2 @                             K }. X X X X X X.X.X X X X.X X.X X X X.X^                     6 a i i i i i i i u ",
"i i i i u e e @                                 ; d.+X X X X X X X X X X X X.X X X Xp.o                     . 8 i i 4 q q 4 q w ",
"q q w q q q $                                       ..M.+X X.X.X.X X X X X X X.XK.!                     . * S A A Z a u u u u u ",
"i a a q q q ,                                         & U }..X X X+X+X X X X@XU l                       & s Z Z Z Z V i i a a a ",
"a A A i e q q .                                             . h g.P.P.*.*                                 0 Z Z Z Z V a a a i i ",
"& 8 A u q , .                                                                                               7 s Z Z Z a i a a i ",
"l.* * p @                                                                                                     $ Z Z Z a a a a i ",
"z T $ X                                                                                                           0 s i a a a a ",
"P f                                                                                                                 $ 8 i a a a ",
"X                                                                                                                       * s u i ",
"                                                                                                                            7 p ",
"                                                                                                                              X "
};
