/* XPM */
static char *_9815ce5e4ed4ae1bf85d1bae5ab502aqyDjZlv8S7gNUgCJ[] = {
/* columns rows colors chars-per-pixel */
"64 64 246 2 ",
"   c #010101",
".  c #070609",
"X  c #07090D",
"o  c #0A0A0C",
"O  c #180807",
"+  c #140E0C",
"@  c #14110F",
"#  c #1C140F",
"$  c #0B0C13",
"%  c #090B14",
"&  c #100F12",
"*  c #0D1017",
"=  c #0E121B",
"-  c #141312",
";  c #1A1614",
":  c #1C1916",
">  c #16171A",
",  c #12151D",
"<  c #1E1B19",
"1  c #260A0E",
"2  c #23140E",
"3  c #2C150C",
"4  c #3A1306",
"5  c #32160D",
"6  c #361A0C",
"7  c #3D1A0D",
"8  c #271915",
"9  c #221D1B",
"0  c #391C11",
"q  c #26211B",
"w  c #2A241E",
"e  c #2C281F",
"r  c #3C2116",
"t  c #39241A",
"y  c #131720",
"u  c #161B24",
"i  c #191D25",
"p  c #171F28",
"a  c #1A1F29",
"s  c #361C2A",
"d  c #1B2027",
"f  c #1A212B",
"g  c #1F2637",
"h  c #2B2521",
"j  c #2E2922",
"k  c #242429",
"l  c #332721",
"z  c #332B24",
"x  c #392E26",
"c  c #362E28",
"v  c #392F29",
"b  c #3B3127",
"n  c #37302C",
"m  c #3C322A",
"M  c #282934",
"N  c #252E3C",
"B  c #2A313F",
"V  c #3C3937",
"C  c #431606",
"Z  c #431C0A",
"A  c #4B1E0C",
"S  c #4B1913",
"D  c #680B1B",
"F  c #4B210D",
"G  c #422B0B",
"H  c #53220D",
"J  c #5C240C",
"K  c #5C280F",
"L  c #452315",
"P  c #4C2413",
"I  c #402319",
"U  c #522613",
"Y  c #5A2614",
"T  c #552813",
"R  c #5A2912",
"E  c #543417",
"W  c #62260B",
"Q  c #65290C",
"!  c #682B09",
"~  c #6D300D",
"^  c #622910",
"/  c #753817",
"(  c #690E24",
")  c #791127",
"_  c #41362D",
"`  c #43382E",
"'  c #523122",
"]  c #413630",
"[  c #453A31",
"{  c #4A3E34",
"}  c #423E3C",
"|  c #6E3335",
" . c #715A11",
".. c #7A5E1C",
"X. c #4D4036",
"o. c #4F433A",
"O. c #53453B",
"+. c #554538",
"@. c #56493D",
"#. c #59493F",
"$. c #2D3648",
"%. c #4B3851",
"&. c #3A4455",
"*. c #3F4B65",
"=. c #554843",
"-. c #525051",
";. c #58585B",
":. c #63554A",
">. c #73544F",
",. c #675B54",
"<. c #756252",
"1. c #746257",
"2. c #43516C",
"3. c #4C566B",
"4. c #485977",
"5. c #685274",
"6. c #5C667A",
"7. c #67676A",
"8. c #74706D",
"9. c #843A0E",
"0. c #983D09",
"q. c #89152C",
"w. c #901832",
"e. c #AB152F",
"r. c #BA1335",
"t. c #B61836",
"y. c #953332",
"u. c #AA283A",
"i. c #B73331",
"p. c #C63B28",
"a. c #8F410F",
"s. c #954612",
"d. c #AB4909",
"f. c #B64C09",
"g. c #A84C14",
"h. c #AF5213",
"j. c #B85717",
"k. c #8D6F13",
"l. c #A87019",
"z. c #915230",
"x. c #B64E24",
"c. c #B6672B",
"v. c #C85608",
"b. c #D55B09",
"n. c #C75C18",
"m. c #DA630B",
"M. c #C26D19",
"N. c #D86517",
"B. c #EA6707",
"V. c #F16704",
"C. c #F46A04",
"Z. c #FD6D00",
"A. c #FC6E01",
"S. c #F46D0A",
"D. c #E86812",
"F. c #CC4D23",
"G. c #D26E35",
"H. c #8B314E",
"J. c #A0284A",
"K. c #A34140",
"L. c #936753",
"P. c #B47952",
"I. c #857668",
"U. c #85756B",
"Y. c #967E6B",
"T. c #927F73",
"R. c #B27475",
"E. c #CC6F44",
"W. c #B28914",
"Q. c #A98D2C",
"!. c #DC8512",
"~. c #D39013",
"^. c #EB9F0A",
"/. c #E6871A",
"(. c #E79415",
"). c #D7A504",
"_. c #EFAE0B",
"`. c #F8B908",
"'. c #F6AD16",
"]. c #E69522",
"[. c #CBA82C",
"{. c #E8B430",
"}. c #FDC202",
"|. c #EEC027",
" X c #9B8876",
".X c #A98C77",
"XX c #A4927C",
"oX c #B5957A",
"OX c #C39063",
"+X c #536484",
"@X c #596184",
"#X c #53678B",
"$X c #53688B",
"%X c #898687",
"&X c #958A87",
"*X c #9B9287",
"=X c #999899",
"-X c #A89687",
";X c #AB9692",
":X c #B8A68F",
">X c #ABA094",
",X c #B9A897",
"<X c #BDAA96",
"1X c #ACA7A4",
"2X c #B5AFA7",
"3X c #B9B6B4",
"4X c #C48B86",
"5X c #D2AE8B",
"6X c #C4AB97",
"7X c #C5B29B",
"8X c #C9B7A7",
"9X c #D0B9B6",
"0X c #E2BDB9",
"qX c #D7C5AA",
"wX c #CDC2B1",
"eX c #D9CAB8",
"rX c #E0CAAE",
"tX c #E2CEB4",
"yX c #E4D2B6",
"uX c #E5D3BB",
"iX c #EAD6B9",
"pX c #EDDABC",
"aX c #F0DDBB",
"sX c #F6E2BF",
"dX c #BDBEC0",
"fX c #C7C6C6",
"gX c #D3CEC7",
"hX c #DDDBDA",
"jX c #E9CCC9",
"kX c #F3CCC5",
"lX c #FBCFCA",
"zX c #ECDBC5",
"xX c #F1DDC3",
"cX c #F7D8CA",
"vX c #F5E3C4",
"bX c #FAE5C5",
"nX c #FEE9C7",
"mX c #F2E2C9",
"MX c #FBE6CA",
"NX c #FDE9C9",
"BX c #E0E0DE",
"VX c #EBEAEA",
"CX c #F1EFEE",
"ZX c #F2F1ED",
"AX c #F5F5F5",
"SX c #FEFEFE",
/* pixels */
"w w w w w q q q 9 q 9 9 9 9 : ; - ; : : : : ; ; ; ; ; ; ; ; ; ; - - - - - - - - @ @ @ @ # 2 2 2 3 3 3 5 6 7 Z Z A F H H J J W Q ",
"w w w w w q q q q q 9 9 9 9 : ; - ; : : ; ; ; ; ; ; ; - - - @ @ - - - - - - - - @ @ @ - - # 2 2 2 3 3 5 6 7 7 Z Z A H H H J W Q ",
"w w w w w w q q q 9 9 9 9 9 : ; - ; : : ; : ; ; : ; ; ; - - O n.S.j.1 @ - - - - - @ @ - # # 2 2 2 3 3 5 6 7 Z Z Z A H H H J W Q ",
"h h w w w w 9 q q 9 9 9 9 9 : ; ; : : : : : : : : ; ; ; + 9.v.v.C.A.A.B.h.+ o - @ @ @ @ # 2 2 # O 2 3 5 6 7 7 Z Z A H H H J W Q ",
"l h h w w w q q q q 9 9 9 9 < ; ; : < < < < : : : : 2 a.S.A.A.A.A.A.A.A.A.S.d.f.6 @ @ - # 3 9.6 3 / a.F 5 7 Z Z A F H H K J W Q ",
"l l j h w w w q w q q 9 9 9 9 : ; ; < < < 9 < : : U S.A.A.A.A.A.A.A.A.A.A.A.A.A.A.h.! L ~ n.^ b.A.A.A.A.m.! 7 Z A A H H K W W Q ",
"l l l l j h w w w q q h 9 9 9 : : : 9 9 9 9 9 : / A.A.A.A.A.A.A.A.A.A.A.A.A.A.A.A.A.B.v.A.S.A.A.A.A.A.A.A.A.f.7 A A H H K J W Q ",
"z z l l j j h w w w w w 9 9 9 : ; : 9 9 9 9 9 ~ a.A.A.A.A.A.A.A.A.A.A.A.A.A.A.A.A.C.B.A.A.A.A.A.A.A.A.A.A.A.v.O Z F H H J W W Q ",
"z z z l j j j h w w w w h 9 9 : : : 9 9 9 9 + A V.A.A.A.A.A.A.A.A.A.A.A.A.A.A.A.A.A.A.A.A.A.A.A.A.A.A.A.A.A.A.V.~ A H H J J W Q ",
"x z z l l l j j j w w w h 9 9 < : : 9 9 9 < + B.A.A.A.A.A.A.A.A.A.A.A.A.A.A.A.A.A.A.A.A.A.A.A.A.A.A.A.A.A.A.A.A.A.J H H J W W Q ",
"v x z z l l l j j w w w w q 9 < : : 9 9 < : j.A.A.A.A.A.A.A.A.A.A.A.A.A.A.A.A.A.A.A.A.A.A.A.A.A.A.A.A.A.A.A.A.A.A.A.F U J W W Q ",
"b b b x z z z z l j h w w q 9 9 : < 9 9 9 t A.A.A.A.A.A.A.A.A.A.A.A.A.A.A.A.A.A.A.A.A.A.A.A.A.A.A.A.A.A.A.A.A.A.A.A.m.S K J W Q ",
"m b b v x z z z l j h w w w 9 < : < 9 9 9 ~ A.A.A.A.A.A.A.A.A.A.A.A.A.A.A.A.A.A.A.A.A.A.A.A.A.A.A.A.A.A.A.A.A.A.A.A.A.0.K K W Q ",
"z z l z z j j h w w w w q 9 9 : ; : < 9 : S.A.A.A.A.A.A.A.A.A.A.A.A.A.A.A.A.A.A.A.A.A.A.A.A.A.A.A.A.A.A.A.A.A.A.A.A.A.C.Z H J W ",
"h h h h w w w w q q 9 9 9 9 < < : : : : - A.A.A.A.A.A.A.A.A.A.A.A.A.A.A.A.A.B.A.A.A.A.A.A.A.A.A.A.A.A.A.A.A.A.A.A.A.A.A.v.H J W ",
"z z z z l l j j j h h w w q q q 9 9 9 9 8 A.A.A.A.A.A.A.A.A.A.A.A.A.A.A.A.A.b.A.A.A.A.A.A.A.A.A.A.A.A.A.A.A.A.A.A.A.A.A.C.7 J W ",
"m m m b b v x z z z z z z j h h w w w q t A.A.A.A.A.A.A.A.A.A.A.A.A.A.A.A.A.n.A.A.A.A.A.A.A.A.A.A.A.A.A.A.A.A.A.A.A.A.A.A.C R Q ",
"m m m m b b b b b z z z l j j l h e w w t A.A.A.A.A.A.A.A.A.A.A.A.A.A.A.A.A.~ A.A.A.A.A.A.A.A.A.A.A.A.A.A.A.A.A.A.A.A.A.A.N.K Q ",
"` _ m m m m b b b z z z l j j z j h w w t A.A.A.A.A.A.A.A.A.A.A.A.A.A.A.A.B.8XS.0.A.A.A.A.A.A.A.A.A.A.A.A.A.A.A.A.A.A.A.A.C.H Q ",
"` _ ` m m m m b v x z z z z l l l h w w 8 D.A.A.A.A.A.A.A.A.A.b.D.d.V.d.V.Y.nXG.0.A.A.A.A.A.A.A.A.A.A.A.A.A.A.A.A.A.A.A.A.A.T Q ",
"_ ` ` m m m m b b b v z z z l l l l e h 9 C A.A.A.A.A.b.B.N.L.' h.d.s.a.L.nXnX6Xj.b.A.S.A.A.A.A.A.A.A.A.A.A.A.A.A.A.A.A.A.N.Y Q ",
"_ ` _ ` m m m m m b v z z z z z l l l l h n.A.A.A.A.A.g.j.xXNXm 1.eXz *XnXnXnXNX.X6XS.! B.A.A.A.A.A.D.A.A.A.A.A.A.A.A.A.A.N.L Q ",
"_ _ _ _ ` ` m m m b b v z z z z l l l j o 6 A.A.b.A.m.V.5XnXnXnXnXaXnXnXnXnXnXnXbX` :Xm.:.N.4 A.A.S.S.A.A.A.A.A.A.A.A.A.A.n.S Q ",
"` [ ` ` ` _ ` m m m m b z z c z z l l j q m.A.A.d.A.v.V.qXnXnXsXiX7XbXnXnXnXnXnXnXxXXX7X<.-X<XP.B.f.A.A.A.A.A.A.A.A.A.A.A.W R Q ",
"[ [ [ [ ` _ ` ` m m m b b z c z z z l 8 g.D./ v.z.B.N.P.7XnXNXNXNXNXbXtXyXnXnXnXbXnXNXbXvXyXNXnXqX>.A.A.A.A.A.A.A.A.A.V.S.5 R Q ",
"[ [ [ ` ` ` _ ` m m m m m c z z z z h 0 ' ,.h. X6Xb.h.iXbXqX8.gX1X*XxX,XnXnXnXnXqX&XmXuXnXnXnXnXnX:XA.A.A.A.A.A.A.A.A.A.0.P K ^ ",
"[ [ [ [ ` _ _ ` m m m m b c z z z z z l ,.I.,XiXnXg.+.aXnXNXnXnXnXpXuXMXnXnXnXMXmXmX-XgX>XnXnXnXnXnXh.A.A.A.A.A.A.A.A.A.b.T R ^ ",
"{ { [ [ [ _ _ _ ` m m m b m v z z z z l :.NX_ NXnXoXyXuXnXnXnXnXnXxX<XnXnXnXvX>.eXY.nXNXpXqXnXnXnXnX5XA.A.A.A.N./ b.A.A.j.U R ^ ",
"{ X.{ { [ [ [ _ ` m m m b b x z z z z z ,.NXeXvXnXiX:.bXnXnXnXnXNXvXMXxXnXnX-XNX<XnXnXnXnXnXnXnXnXnXsXz.A.A.A.W oX:.6XoX9.T R R ",
"[ [ [ [ ` m ` m b c z z z z l l l l j j m xXY.xXnXnXnXnXnXnXnXnXnXnXnXI.-XI.qXNXqXNXnXnXnXnXnXnXnXnXnXbXoXc.s.OX8X-XnXNXO P H K ",
"[ ` ` m b b b z z z j h h j w w w w w w w @.7XuXnXnXnXnXnXnXnXnXnXiX8XlXlXlX0X-XiXnXnXnXnXnXnXnXnXnXnXbXaXnXnXbXvXtXnXbX3 H H H ",
"X.{ { { [ ] ] ` m b b v c z j h q w j j j e h 2XnXnXnXnXnXnXnXNXiX8X:.R.4XL.,X0XxXnXnXnXnXnXnXnXnXnXnXbXpXnXnXnXvX8XnX<XL U T R ",
"O.O.O.X.X.{ [ [ [ _ ` ` m m z h w z z z z z l 7XnXnXnXnXnXnXnXNXh 2XZX;XjX1.CX: T.nXnXnXnXnXnXnXnXnXnXbXaXnXnXnXMXwXnXT.T T R R ",
"O.O.O.O.X.X.{ [ [ [ _ ` m m z w e z v z z z z ,XnXnXnXnXnXnXnXXX  V -.: ;.} 8.k o NXnXnXnXnXnXnXnXnXnXqXnXnXnXNX1.vXvX0 U T R R ",
"O.O.O.O.X.X.{ { [ [ ` ` ` m z w j v v z x z z =.nXnXnXnXnXnXNXyX                  T.bXnXnXnXnXnXnXnXnXnXnXnXMXeXwXxX<.P U U R R ",
"O.O.O.O.X.{ { { { [ ` _ ` m z w j v v v x z z 9 xXnXnXnXnXnXnXvX9 V o         - o.MXNXNXnXnXnXnXnXnXnXnXnXnX<XNXMX<X0 P U U T R ",
"O.O.O.O.o.X.{ { { [ [ _ ` m z h j v b x x z z z U.nXnXnXnXnXnXNXU.=.0XfXk . V jXcXnXnXnXnXnXnXnXnXnXnXnXnXmX# =.O r L P U U T R ",
"O.O.O.O.o.X.X.{ { [ [ [ _ m c w l b b b x x z - > MXNXnXnXnXnXnXuXjX0X,X8X0XlX XnXnXnXnXnXnXnXnXnXnXnXnXnX,.t r I L L L P U T R ",
"@.O.O.O.O.X.X.X.X.{ { { [ ` z h z b b b b z > i f ,.NXnXnXnXnXnXnX-XkXlXlXkX;XNXnXnXnXnXnXnXnXnXnXnXnXnXxXd > 3 r L L P P U U T ",
"@.@.O.O.O.O.X.X.X.X.X.{ [ _ c h z b b b j - f f f M 7XnXnXnXnXnXnXnXtX X.XiXNXnXnXnXnXnXnXnXnXnXnXnXnXvXk f f i 9 r L P P U U T ",
"@.@.O.O.O.O.O.X.X.X.{ { [ _ c h z b b z , f f f f ;.1XxXnXnXnXnXnXbXnXnXnXnXnXnXnXnXnXnXnXnXnXnXnXnXuX- a f f f f - 0 L P P U T ",
"#.@.O.O.O.O.O.X.X.{ { { [ _ b j z b 9 u f f f f f -.SXn bXnXnXnXnXXXvXnXnXnXnXnXnXnXnXnXnXnXnXnXnX,X=Xi f f f f f = , 2 L P U U ",
"#.#.O.O.O.O.O.O.{ { { [ ` ` b j z + a f f f f f f 7.SXSX*XNXnXnXnXnXtX-XMXnXnXnXnXnXnXnXnXnXnXMX&XVX7.a f f f f a , a a - L P U ",
"#.#.#.O.O.O.O.O.X.{ { [ _ ` m j - a f f f f f f f 7.SXSXhX>XnXnXnXnXnXyXxXbXnXnXnXnXnXnXnXNXU.9XSXAXk f f f f i u f f f f > r P ",
"#.#.#.O.O.O.O.X.X.{ [ [ [ ` z > a , f f f f f f f -.SXSXSX3X:XnXnXnXnXnXnXnXnXnXnXnXnXNX,X2XSXSXSX=X* f f f i , f f f f f f , 0 ",
"O.O.O.O.o.{ { [ [ _ ` m m z - f f i i f f f f f f ;.SXSXSXSXfX8XNXnXnXnXnXnXnXnXnXxXeX%XSXSXSXSXSXk f f f i y f f f f f f f d & ",
"[ [ ] ] ] ] m b b b v c < - , f f f i f f f f f f &.SXSXSXSXSXCXt -XxXaXvXsXaXrX} VXSXSXSXSXSXSX=Xk f f a y f f f f f f f i , f ",
"[ { { { { { { [ [ ] ] o a i , * f f f f f f f f f , SXSXSXSXSX7.|.p.e.e.u.E.)._.-.SXSXSXSXSXSXSX;.i f f u f f f f f f f $ u f u ",
"qX-Xl O.O.O.O.O.o.X.h a f f , u , f f u f f f f f s ,.SXSXSX=XSX{._.t.r.r.r./.W.fXSXSXSXSXSXSX%Xk f f u f f f f f f , y f a * y ",
"nXnXNX:XT.{ O.O.X.v , f f f u , i , f i f f f f f s w.AXSXfXhXSX..}./.r.r.r.t.<XVXAXSXSXSXSXAX3.u f u f f f f f y * i f a * f f ",
"nXnXnXNXnXNX-X{ X.i f f f f f $ a i , f f f f f f M t.1XAX2XSXSX=X!.}./.r.r.| SXSX;.SXSXSXSX8.a f f f f f f i , a f f f , f f f ",
"nXnXnXbXnXnXnX1.9 f f f f f f , i f a = f f f f f N J.{.8 SXSXSXAXq.!.`.'.S SXSX3X| SXSXSXdX+Xf f f f f a % a f f f f , f f f f ",
"nXnXnXpXvXnXnXzXi f f f f f f u * f f p = f f f f N 5./.F.;XSXSXQ.(.e.u.u.CXSX;XM._.BXSXgX4.$.f f f f % u f f f f f a , f f f f ",
"nXnXnXnXiXnXnXMXi f f f f f f f X f f f i , f f f N @Xe.'.H.SX&X_.}.p.r.t.VX-X~.^.u.fXVX6.+X, f f f y f f f f f f f , f f f f f ",
"nXnXnXnXnXnXnXnXM f f f f f f f $ a f f f i a f f N +XH.(.x.&Xw./.}.^.t.e.L.^./.H.$X&.*.#X2.f f f y f f f f f f f , i f f f f f ",
"nXnXnXnXnXnXnXNX$.a f f f f f f i u f f f f % f f N #X$.i./.q.r.r.`.}.(.~ `.N.H.4.$X$X$X#X= f f * i f f f f f f f , f f f f f f ",
"nXnXnXbXnXnXnXnXV $ f f f f f f u $ f f f f f u f N $X#XH.!.i.D r.F.W.s.}.p.%.$X$X$X$X$X&.f f , X . , a f f f f i i f f f f f f ",
"nXnXU.vXnXnXnXnXV i , f f f f f i X f f f f f , f N $X$X2.u.'.e.D ) ~.`.K.%.+X$X$X$X$X$Xk o $ X $ $ X X $ , f f % f f f f f f f ",
"8X:XuXnXnXnXnX-Xk a = f f f f f i % f f f f f f f N $X$X4.5.F.'.N._.(.>.2.#X$X$X$X$X$X4.X X 1 ( / k.k.o X , f u i f f f f f f f ",
"X.NXnXnXnXnXqXi f u a f f f f f a , f f f f f f f N $X$X$X3.H.G./.c.%.+X#X#X$X$X$X$X$Xg - [.w.r.c.}.).[.X , f * f f f f f f f f ",
"x nXnXnXNXuX> f f = f f f f f f a u f f f f f f f B $X$X#X#X4.5.5.2.#X#X$X$X$X$X$X$X$XM * E y.i.z.].~. .. f i , f f f f f f f f ",
"v NXnXnXmX- a f f * f f f f f f a i f f f f f f f B $X$X$X$X$X$.#X$X$X$X$X$X$X$X$X$X$Xy , X G }.s.r.q.o u f = a f f f f f f f f ",
"m NXnXuXk f f f f u a f f f f f a i f f f f f f f N $X$X$X$X$X$X$X$X$X$X$X$X$X$X$X$X+Xu f . [.l.F l.W.. a f , a f f f f f f f f ",
"h mXyXk f f f f f f , f f f f f i a f f f f f f f N $X$X$X$X$X$X$X$X$X$X$X$X$X$X$X$X$.f f i +  .W. .. a f f y f f f f f f f f f "
};
