/* XPM */
static char *_a642a88595f4354f2902c26052cca48QxzKweBbuPAc0NQZ[] = {
/* columns rows colors chars-per-pixel */
"64 64 250 2 ",
"   c None",
".  c #020102",
"X  c #0A0508",
"o  c #150B05",
"O  c #1C0D09",
"+  c #180805",
"@  c #1C110A",
"#  c #030B14",
"$  c #0A0A14",
"%  c #0A0E1A",
"&  c #040917",
"*  c #120D19",
"=  c #0C121D",
"-  c #06111B",
";  c #141318",
":  c #240E07",
">  c #24130B",
",  c #2A150C",
"<  c #271709",
"1  c #2D1B13",
"2  c #261812",
"3  c #331C13",
"4  c #371C18",
"5  c #321C0F",
"6  c #2B221A",
"7  c #34231B",
"8  c #3B241B",
"9  c #392618",
"0  c #0B1423",
"q  c #0D1B2C",
"w  c #081926",
"e  c #131C2C",
"r  c #1B1E2D",
"t  c #161824",
"y  c #061B36",
"u  c #141E31",
"i  c #1B1F34",
"p  c #110E22",
"a  c #221E2E",
"s  c #16212E",
"d  c #0E2132",
"f  c #0E263B",
"g  c #142233",
"h  c #1A2335",
"j  c #15253A",
"k  c #1C263A",
"l  c #1C293C",
"z  c #172939",
"x  c #0F202F",
"c  c #24222B",
"v  c #3A2925",
"b  c #232434",
"n  c #21263B",
"m  c #212A3D",
"M  c #2A2B39",
"N  c #382B39",
"B  c #33313C",
"V  c #3D3327",
"C  c #4E0F12",
"Z  c #4D271E",
"A  c #432B24",
"S  c #472B26",
"D  c #542922",
"F  c #582D26",
"G  c #4B332A",
"H  c #493529",
"J  c #53332B",
"K  c #56362B",
"L  c #5B3C32",
"P  c #473832",
"I  c #673729",
"U  c #673732",
"Y  c #793A35",
"T  c #6C312B",
"R  c #5E0B20",
"E  c #007516",
"W  c #5D4437",
"Q  c #69473A",
"!  c #764839",
"~  c #67472E",
"^  c #547C00",
"/  c #082746",
"(  c #1D2C42",
")  c #162A44",
"_  c #1B3248",
"`  c #1B3A58",
"'  c #232C42",
"]  c #252B45",
"[  c #273248",
"{  c #233957",
"}  c #353845",
"|  c #273E61",
" . c #493B44",
".. c #315073",
"X. c #2A4359",
"o. c #584A45",
"O. c #4C454B",
"+. c #7A5846",
"@. c #6E4F4D",
"#. c #5C5C67",
"$. c #605464",
"%. c #5D6A7B",
"&. c #7C6A68",
"*. c #7E644E",
"=. c #BB000E",
"-. c #97042C",
";. c #AB0430",
":. c #833938",
">. c #973531",
",. c #8F001D",
"<. c #EA0002",
"1. c #FF0000",
"2. c #F70004",
"3. c #FD0017",
"4. c #FF0326",
"5. c #FD1937",
"6. c #EF221D",
"7. c #8D650A",
"8. c #B6680D",
"9. c #88473B",
"0. c #91523D",
"q. c #B05823",
"w. c #F75400",
"e. c #FC6F00",
"r. c #983341",
"t. c #FF324A",
"y. c #864A42",
"u. c #9A4B47",
"i. c #8B5446",
"p. c #915344",
"a. c #945B4A",
"s. c #9B5B4D",
"d. c #96564A",
"f. c #855954",
"g. c #9B5E51",
"h. c #965C54",
"j. c #A45846",
"k. c #B7545B",
"l. c #AA4F55",
"z. c #9D624C",
"x. c #9C6456",
"c. c #846358",
"v. c #A36355",
"b. c #AA6454",
"n. c #A46A5C",
"m. c #A96D5D",
"M. c #A66859",
"N. c #B56B5A",
"B. c #AB735C",
"V. c #B6735E",
"C. c #A9654B",
"Z. c #B35762",
"A. c #937167",
"S. c #AA6A62",
"D. c #B86965",
"F. c #AB7566",
"G. c #B47465",
"H. c #B37A63",
"J. c #B57B6B",
"K. c #BB7C6C",
"L. c #BC7766",
"P. c #A67B76",
"I. c #B77E72",
"U. c #9F5E60",
"Y. c #F84457",
"T. c #C57869",
"R. c #C77C73",
"E. c #CD7377",
"W. c #D26661",
"Q. c #008504",
"!. c #008D1A",
"~. c #008A24",
"^. c #008636",
"/. c #00A23E",
"(. c #508E08",
"). c #049E5D",
"_. c #43A26C",
"`. c #FF9700",
"'. c #CAB500",
"]. c #FCB600",
"[. c #F2A90A",
"{. c #FFC500",
"}. c #FFCA05",
"|. c #FFD401",
" X c #FFDB00",
".X c #FFCA1F",
"XX c #FFEA00",
"oX c #FFD631",
"OX c #BD826B",
"+X c #B8826C",
"@X c #A8837A",
"#X c #BC8373",
"$X c #B78577",
"%X c #87827C",
"&X c #C3836D",
"*X c #CB836C",
"=X c #C78067",
"-X c #C48473",
";X c #CB8473",
":X c #CD8976",
">X c #C48B7A",
",X c #CC8A7C",
"<X c #C58678",
"1X c #D38D7B",
"2X c #D38679",
"3X c #CB917D",
"4X c #D3917F",
"5X c #FF8963",
"6X c #FFE856",
"7X c #32628E",
"8X c #7D7683",
"9X c #89858F",
"0X c #B88C88",
"qX c #B7938C",
"wX c #B29493",
"eX c #959BAB",
"rX c #B5AAAF",
"tX c #AEA4A4",
"yX c #C68D84",
"uX c #D58C82",
"iX c #CD9484",
"pX c #CA9388",
"aX c #D39384",
"sX c #DA9384",
"dX c #DA9B8C",
"fX c #D6988A",
"gX c #C49996",
"hX c #D89C95",
"jX c #E89293",
"kX c #DCA298",
"lX c #D8A08E",
"zX c #CBA7A6",
"xX c #C8B5B6",
"cX c #D2B4AD",
"vX c #E8B3B6",
"bX c #E2A199",
"nX c #E0C2BD",
"mX c #D2BBC9",
"MX c #BEFCFF",
"NX c #C5C7CA",
"BX c #D6D7DB",
"VX c #D1CAD2",
"CX c #EDC6C8",
"ZX c #D7D9E2",
"AX c #E7DDE6",
"SX c #F8DEF1",
"DX c #CBF9FB",
"FX c #E6E7F1",
"GX c #FAFEFF",
"HX c #ECE9F4",
/* pixels */
"                                                                                                                                ",
"                                                                                                                                ",
"                                                                                                                                ",
"                                                                                                                                ",
"                                                                                                                                ",
"                                                      G 1 4 P 9 G H < S                                                         ",
"                                                3 o.8 O 1 1 8 G 3 1 8 G A.1                                                     ",
"                                                ~ 8 7 2 9 8 O 8 8 , > 9 S W 8                                                   ",
"                                              Q 9 7 O o 2 o o + > > H c.o., v H $.                                              ",
"                                          o.v < S , o @ , : < 7 7 H 8 H 5 < 3 @ P o.                                            ",
"                                          v S @ o O X 8 1 > A +.S V O 9 O @ Q H c &.$.                                          ",
"                                        o.+.o o o 2 , X A v 1 *.2 . < + 3 + . 7 S > @.                                          ",
"                                        @.O O o O 4 K o 9 W L 3 J : 3 4 4 < , X Q v 1 v                                         ",
"                                        8 > 6 > v o 8 8 , + c.X , 3 4 F U S , 3 5 2 Q H                                         ",
"                                      qX7 7 @ 6 O 1 5 : 3 Z F D Y i.v.m.<XJ.s.G.G A L +.                                        ",
"                                      A., 7 > ! +.Y y.g.S.K.-XhX,XlXcXkXkX-X<Xb.! H H H gX                                      ",
"                                      v O J y.M.G.K.,XiX1X:X4XlXsXfXdXdXaX;X-X;Xi.8 < 8 cX                                      ",
"                                      o.: L ! m.G.-XaXaX:X*XaXdXdXaXfXaXaX;X:XT.! 1 > 6 xX                                      ",
"                                      O.+ S +.v.N.N.L.T.T.*X*X:X*X1XdXsX1X*XV.V.p.8 : @ gX                                      ",
"                                      7 N f.@Xd.b.N.L.=X1X1X:X1X:XdXkXdXfX,XT.K.z.F < o nX                                      ",
"                                      : v L qXgXm.G.K.:X:X4XdXsXsXdXlXfXfXhXL.K.zXd.> 1 zX                                      ",
"                                      v V f.xXP.! b.$X#XiXsXaX1X1X-XY J S i.Y Y xXJ.i.< cX                                      ",
"                                      Q v cXmX4 J U Z 4 T s.-XdX3X9.I 9.L.&XK.9.U FX$XrXqX                                      ",
"                                      +.o.mX@Xi.S.Y a.Y 9.0.j.2X2XC.v.T 6 v : C b.CXCXwXZ C >.                                  ",
"                                      A.5 VXf.9.s.: X rXg.0.u.2XE.T.U.T rX6 y.p.N.cXCXP.bXk.>.                                  ",
"                                    >.zX4 VXP.0.U y.S.D.v.Y Y T.T.D.yXG.0.-XK.>X-XK.zX0XJ.bXq.                                  ",
"                                    G.D.&.xXgXv.G.V.R.;Xj.:.Y 2XE.D.T.aXaX,XsXdX:X<XhXvXC T.aX                                  ",
"                                    0XS.@XzXwXH.:X;X1X:Xj.:.y.E.dXD.D.uXhXfXdXsX*XiXgXzXhX>.N.                                  ",
"                                    tXF.gXxXgXm.1X1X2X;Xu.9.u.uXCXD.T.2XuXdXhXhX;X<XyX0X1Xk.k.                                  ",
"                                    zXY cX$XS.v.2X1XuX2Xp.9.Z S.D.: u.sXsXsXsXuX<XJ.yX@Xk.R.u.                                  ",
"                                      D D.I.n.b.R.1X1XR.Y 9.Y 9.d.D.R.sXsXuX1X-XJ.G.0XP.aXR.D.                                  ",
"                                      n.C @Xn.s.R.R.;XT.j.9.D M.D D D K.sX:X;X&X#XJ.#XpXsX                                      ",
"                                        S.P.S.S.N.G.N.-XD D b.hXyXhXuXD a.D &X-Xm.B.>X                                          ",
"                                            P.F.s.p.v.D S.D.Z.k.D.E.D.u.iXOXOXOXv.J.+X                                          ",
"                                            0Xp.a.9.F.F.Y :.R >.r.k.Z.l.yX-XK.b.#X<XJ.                                          ",
"                                              m.i.d.F.+XS.:.k.k.k.l.yXR.:X&X-X&XJ.J.n.                                          ",
"                                              S.n.x.x.J.K.b.v.p.y.b.*X*X3XL.OX&XK.f.A.                                          ",
"                                              n.x.x.z.v.G.N.&XhXdXdX;X=XT.OX-XB.n.+.gX                                          ",
"                                              0Xf.+.i.i.M.V.<XaXuXhXhX:X:X-XH.M.c.#XhX                                          ",
"                                              gXJ Q Q 9.z.g.G.iXpXyX#XG.H.a.L G a.R.zX                                          ",
"                                              gXF.Q U ! a.h.#X#X$Xg.M.z.p.Q G J H.<XgX                                          ",
"                                              qXS.M.x.~ S S Q L J K Z J J I H.H.,X#XwX                                          ",
"                                              vXs.g.s.n.0.y.A J J 8 D I H.B.>XiX,XJ..                                           ",
"                                              @ p.n.d.a.a.a.x.B.B.+X>X3X#X#XaXiX<XK.k .                                         ",
"                                              X p.d.a.a.s.g.+XK.>XiXiX>X#X>XiXiXiXU i VX                                        ",
"                                          / ZX% ! a.z.M.v.s.S.>XfXhX3X#XJ.<X>XdX<Xk ( . h c                                     ",
"                                        u ` { e 0 3 B.G.M.s.h.S.fXiXG.J.#XiXfXyXU e ` 0 0 g # )                                 ",
"                                      . $ ` 8X0 q - U OXV.V.m.h.G.<X#XJ.>X,XiX<Xn g eXi e q $ e { h                             ",
"                              w ( w [ 0 = # & #.$ e = p.:.-Xs.x.J.+X$XG.>Xx.h k e h BXg l 0 q g e f e e e e h                   ",
"                          X...] q j q q s $ 0 . l 0 e t h h e r e t m n h e 0 0 ( g h g u j q d g k f e 0 k g g l `             ",
"                    b 0 ' g _ { 0 g s w q e $ 0 % h % & 0 * C = R 8.=.<.* = q ' l g e - l g k 0 u * # 1.1.a h g e f             ",
"                  ' e w w [ _ ( _ g . q g g e - & # X - * t 8.; p {.- r % i g [ & k e ( j ( ' ' ' ] . - 5.1.r e e q ` ..        ",
"            w [ _ u q ) k -.4.-.w w q q g g ( h 0 q 0 . h b 4.q N h W.CXjXm k l k k ' ( ' l ] 0 [ h k m e . t.1.1.a c q ] j     ",
"        ..f g _ a =.3.* % e e e q %.VXg q g g g g h 0 = s r ;.;.* * ; ; t h r - ( ' ( ( ( l ( g ZXFXl l h t eX. 2.1.g k u s z | ",
"      ) ) q q q Y.1.R & & g h e . BX .g u g g g g g g $ e r * m t $ m ] h h l s k ' ' l ( l ' k VX$.% m l HXtXb 3.,.l k y d u { ",
"  q 7Xf j f e t 1.3.k $.VX#.m [ eXN r g u u e k u u h g g l q 0 g * k l h u k e k l m ( g m l l ] e rXNX9XAXn # 1.M ' y k y n j ",
"..` y g y y l n C 1.l h ] NXNXFX# l } q h g m k l l k l l ' k j ' % l k k m g k m m m k ' h g [ s 9XGXm $ BXi R 1.b k ( ) g g q ",
"..w w q l m y u t <.e u n g m u = ( } j l ' m ' ( l ( k l ( l m j l k k e ' e l m ' m m s h m ] h k h k ' w e 3.1.b y l l z j q ",
"` _ q q d y ( e t 2.k u FX8X] l e ' t #.GX).Q.NX~.@ l l l l m ' l = l d l l h k m M M M M B M m m n l l m k k 3.1.n ) ( w k q g ",
"/ j d 0 y j ( [ k <.# k n k q . _.AXHX!.VX).SXSXQ.o.l ( ] ] ' l l # l l ' k r M  X|.|.{..XoXoX5X6X6XB ] m ' n 1.e m %.k | d g d ",
"{ d g j g / ..y e n 4.h e u k . /.BX!.ZX~.Q.^.HXjX%X] m k k ' l l $ k m l b 7.w.{.4.].XX{.{.E ^ ].|.}.].C.M b 3.b g j s eXg q q ",
"X.x u g # ( h q e k 4.h k l z % /.AXQ.^.AX1.1.DX1.9X' l ' k ' l ' X l ' ] c 7.w.|.4.3.~.(. XQ.E |.'.|.oX6.m m 1.l u / { - q u q ",
"{ g g g ( x ) l ` e 1.k k h m } 1.Y.MX1.1.VXY.vXGXX m m k k l m ( # ] m k b c M  X{.{.{.{.'. X|.E E |.{.}.[.b h m ..q [ q g g k ",
") g j g ) ] ..y g l l k g l ] [ AX1.DX1.2.5.FX[ ] ' ' m m m m ( ) % ' l l k b k M B ] 8.`.e.`.].`.e.w.e.XXm & m ' j g f g e d j "
};
