/* XPM */
static char *_06c365f485d41fe99dce8227eec398bosNDYeDJipyCrW3e[] = {
/* columns rows colors chars-per-pixel */
"64 64 256 2 ",
"   c #010201",
".  c #0D0300",
"X  c #0D0B00",
"o  c #0A0B0B",
"O  c #120400",
"+  c #160900",
"@  c #181902",
"#  c #131116",
"$  c #241C05",
"%  c #282906",
"&  c #3A3906",
"*  c #31310E",
"=  c #282828",
"-  c #383837",
";  c #343428",
":  c #181025",
">  c #483903",
",  c #503A0A",
"<  c #413937",
"1  c #464301",
"2  c #494705",
"3  c #564C06",
"4  c #565503",
"5  c #4A4916",
"6  c #584A19",
"7  c #585516",
"8  c #495308",
"9  c #665B05",
"0  c #66590F",
"q  c #58610B",
"w  c #676705",
"e  c #7C7200",
"r  c #726A19",
"t  c #747619",
"y  c #6D690D",
"u  c #47492A",
"i  c #595725",
"p  c #474839",
"a  c #56573C",
"s  c #554B2D",
"d  c #645C2A",
"f  c #6A5B34",
"g  c #5E632D",
"h  c #696726",
"j  c #756B2B",
"k  c #6B6934",
"l  c #686637",
"z  c #736738",
"x  c #7A7438",
"c  c #6E732C",
"v  c #343344",
"b  c #444443",
"n  c #4C4A4B",
"m  c #565747",
"M  c #555456",
"N  c #5D5D5D",
"B  c #565959",
"V  c #514C4E",
"C  c #625C47",
"Z  c #61585D",
"A  c #5D614E",
"S  c #696546",
"D  c #736C45",
"F  c #777446",
"G  c #686A58",
"H  c #787758",
"J  c #6F6F58",
"K  c #5C5A63",
"L  c #665D67",
"P  c #675F77",
"I  c #5D6268",
"U  c #646364",
"Y  c #6C6C6C",
"T  c #6B6466",
"R  c #797867",
"E  c #6B6B74",
"W  c #746E7A",
"Q  c #747373",
"!  c #7B7B7B",
"~  c #777677",
"^  c #71746B",
"/  c #847710",
"(  c #AE730B",
")  c #846819",
"_  c #82774A",
"`  c #827D6E",
"'  c #71823E",
"]  c #7D8279",
"[  c #7D8361",
"{  c #798C4C",
"}  c #8A8811",
"|  c #AC8E11",
" . c #938B2B",
".. c #B28A2A",
"X. c #CD8E2E",
"o. c #D9932E",
"O. c #E3E13F",
"+. c #8B8346",
"@. c #888655",
"#. c #898765",
"$. c #8A8975",
"%. c #959577",
"&. c #929172",
"*. c #ACAD64",
"=. c #D1BF73",
"-. c #D1CD55",
";. c #E9D959",
":. c #FAC35E",
">. c #DBE252",
",. c #EBE849",
"<. c #ECEC5B",
"1. c #E9E759",
"2. c #F4EB5B",
"3. c #EDF25A",
"4. c #FCFD55",
"5. c #F4F45C",
"6. c #FBF35D",
"7. c #FEFD5E",
"8. c #F6F756",
"9. c #EEF346",
"0. c #D9D965",
"q. c #D9CE79",
"w. c #D8D676",
"e. c #CBC971",
"r. c #FECB6A",
"t. c #E7DB65",
"y. c #FFD56B",
"u. c #E3DC77",
"i. c #FEDC74",
"p. c #F6CA6D",
"a. c #DDE569",
"s. c #DEE47D",
"d. c #ECEC6B",
"f. c #EAE667",
"g. c #F5EE6E",
"h. c #FDEE6E",
"j. c #F9E865",
"k. c #EDF46C",
"l. c #EEF164",
"z. c #FEF463",
"x. c #FEFD63",
"c. c #F4F36C",
"v. c #FCF46C",
"b. c #FEFD6C",
"n. c #F3F765",
"m. c #ECE27A",
"M. c #EEEB7C",
"N. c #E7E676",
"B. c #F2EC72",
"V. c #FBED73",
"C. c #F4EC7B",
"Z. c #FDED7C",
"A. c #FAE478",
"S. c #ECF47C",
"D. c #EDF774",
"F. c #F4F374",
"G. c #FDF474",
"H. c #F5FB73",
"J. c #FEFD73",
"K. c #F2F57A",
"L. c #FDF47B",
"P. c #FEFE7B",
"I. c #F5FD7B",
"U. c #787582",
"Y. c #8C7D80",
"T. c #7E8484",
"R. c #848484",
"E. c #8A898A",
"W. c #888984",
"Q. c #989897",
"!. c #8F9088",
"~. c #999AA4",
"^. c gray63",
"/. c #B8BF93",
"(. c #DDDB89",
"). c #D9D799",
"_. c #D3CC8C",
"`. c #E4DC8A",
"'. c #F4DA88",
"]. c #E6D893",
"[. c #E2CF8D",
"{. c #DCE590",
"}. c #ECEA82",
"|. c #E7E688",
" X c #F3EB84",
".X c #F9E989",
"XX c #EDF585",
"oX c #F4F285",
"OX c #FDF584",
"+X c #FEFD84",
"@X c #FEF48B",
"#X c #FFFE8B",
"$X c #F4F888",
"%X c #ECEC93",
"&X c #E9E596",
"*X c #F8EB99",
"=X c #F4F293",
"-X c #FCF493",
";X c #FEFE94",
":X c #FFFD9B",
">X c #F8F69B",
",X c #EFF29B",
"<X c #D5D5BA",
"1X c #E5DBA7",
"2X c #E2DFBC",
"3X c #EBE8A5",
"4X c #F9EBA8",
"5X c #FEFEA4",
"6X c #FFFEAC",
"7X c #FCF4A4",
"8X c #FEFFB3",
"9X c #F9FBBE",
"0X c #EDEDB4",
"qX c #CFE5B7",
"wX c #C0BEC9",
"eX c #CECECE",
"rX c #DBDBD9",
"tX c #D5DACB",
"yX c #E6E7C8",
"uX c #FAFBC7",
"iX c #E7E7D9",
"pX c #F3EADB",
"aX c #EEF6D9",
"sX c #FBFDDC",
"dX c #F8F7D6",
"fX c #EFF7C4",
"gX c #DBDAE6",
"hX c #E2DCEB",
"jX c #E7DBF3",
"kX c #DBE2E5",
"lX c #E4E4E3",
"zX c #ECECEC",
"xX c #E8E8E8",
"cX c #F6E9E8",
"vX c #ECF3E7",
"bX c #F3F4E5",
"nX c #FDFDE5",
"mX c #F3F3EC",
"MX c #FBF4EA",
"NX c #F6FCEB",
"BX c #FCFDEC",
"VX c #FAF5E3",
"CX c #EEEDF2",
"ZX c #EDEAF7",
"AX c #F2EEF5",
"SX c #F3ECFE",
"DX c #F4F4F4",
"FX c #F9F5F3",
"GX c #F6FCF5",
"HX c #FDFEF4",
"JX c #F5F4FB",
"KX c #FCF6FE",
"LX c #F6FCFE",
"PX c #000000",
"IX c #E8F7F3",
"UX c #E1D9D7",
/* pixels */
"PXPXPXPXPXPXPXPXPXPXPXPXPXPXPXPXKXKXSXKXKXPXFXHXHXbXPXPXPXKXPXPXPXHXPXPXPXPXPXPXPXPXPXPXPXPXPXPXPXPXPXPXPXPXPXPXHXHXPXPXPXPXPXPX",
"PXPXPXPXPXPXPXPXPXPXPXPXPXPXPXPXZXKXKXJXKXzXHXHXBXBXPXPXKXPXPXzXPXPXPXPXPXPXPXPXPXPXPXPXPXPXPXPXPXPXPXPXPXPXPXPXPXPXPXPXPXPXPXPX",
"PXPXPXPXPXPXPXPXPXPXPXPXPXPXPXPXPXPXDXxXPXmXiXHXPXPXDXKXPXPXPXPXPXPXPXPXPXPXPXPXPXPXPXPXPXPXPXPXPXPXPXPXPXPXPXPXPXPXPXPXPXPXPXPX",
"PXPXPXPXPXPXPXPXPXPXPXPXPXPXPXPXbXiX^ m ` W.^ xXlXPXPXPXKXCXPXPXPXPXPXPXPXPXPXPXLXLXGXGXPXLXPXPXPXPXPXPXPXPXPXPXPXPXPXPXPXPXPXPX",
"PXPXPXPXPXPXPXPXPXPXPXPXPXPXPXHXBXdX%.H H #.; - W gXPXPXPXKXPXJXPXPXPXPXPXPXPXHXHXHXHXHXHXHXHXPXPXPXPXPXPXPXPXPXPXPXPXPXPXPXPXPX",
"PXPXPXPXPXPXPXPXPXPXPXPXPXPXPXHXyXk @.@.@.[ $.Q # n L wXPXPXPXPXPXPXPXPXPXPXHXHXHXBXBXHXHXHXPXPXPXPXPXPXPXPXPXPXPXPXPXPXPXPXPXPX",
"PXPXPXPXPXPXPXPXPXPXPXPXPXPXPXHXD 7 (.&X*.F R W.: v v ~.KXzXGXPXPXPXPXPXPXPXHXHXHXHXHXPXPXPXPXPXPXPXPXPXPXPXPXPXPXPXPXPXPXPXPXPX",
"PXPXPXPXPXPXPXPXPXPXPXPXPXPXPXBXl _.6X%X|.uX` b P SXKXJXPXGXPXDXPXPXPXPXPXPXPXHXHXPXPXPXPXPXPXPXPXPXPXPXPXPXPXPXPXPXPXPXPXPXPXPX",
"PXPXPXPXPXPXPXPXPXPXPXPXPXPXPXBX_ (.XX;Xs.6X#.xXKXKXPXPXPXPXPXPXPXPXPXPXPXPXPXPXHXPXzXPXKXKXKXKXPXDXFXPXDXJXPXPXPXPXPXPXPXPXPXPX",
"PXPXPXPXPXPXPXPXPXPXPXPXPXPXPXBX5 8X}.#X;X(.D PXKXKXKXPXPXHXPXPXPXPXPXPXPXPXPXPXPXAXPXKXKXKXKXKXmXPXPXxXPXPXxXPXPXPXPXPXPXPXPXPX",
"PXPXPXPXPXPXPXPXPXPXPXPXPXPXPXBX@.&XoXH.F.w.l iXKXKXKXPXHXHXPXPXPXPXPXPXPXPXPXPXPXCXKXKXKXKXAXcXHXBXHXmXPXPXPXZXPXPXPXPXPXPXPXPX",
"PXPXPXPXPXPXPXPXPXPXPXPXPXPXPXHXyX+.M.J.H.;Xk HXKXKXKXPXHXHXPXPXLXLXPXPXPXPXPXPXPXKXPXxXHXpXVXBXa u aXiXHXPXDXPXPXPXPXPXPXPXPXPX",
"PXPXPXPXPXPXPXPXPXPXPXPXPXPXPXPXMXd u.J.P.S.1 pXKXKXPXPXBXHXPXPXLXLXLXPXPXPXPXPXKXPXMXBXdXz d i * a C G bXbXPXPXPXPXPXPXPXPXPXPX",
"PXPXPXPXPXPXPXPXPXPXPXPXPXPXPXPXcXD  XH.1.d.x C KXKXPXHXBXHXPXPXLXLXLXPXPXPXPXPXHXHXnXuXc 2 >X%XuX/.H @ %.NXPXPXPXPXPXPXPXPXPXPX",
"PXPXPXPXPXPXPXPXPXPXPXPXPXPXPXPXcXf -XP.1.#X_.R KXKXHXBXnXNXLXLXGXGXPXPXKXPXKXPXmXBXl h %X$Xa.;X0XfX%.H J ] NXDXPXPXPXPXPXPXPXPX",
"PXPXPXPXPXPXPXPXPXPXPXPXPXPXPXPXHXs  Xb.J.0.x nXKXKXVXsXdXsXNXNXsXsXnXBXGXKXKXHXVXl 2 |.#XK.H.$X3XfX#.[ %.G Q.DXPXPXPXPXPXPXPXPX",
"PXPXPXPXPXPXPXPXPXPXPXPXPXPXPXGXA h D.J.J.w._ cXcXC l c q c h h r t h k D pXpXS f 3 #Xc.v.+XS.,X0XyX$.J ^ R !.B zXPXDXDXPXKXJXPX",
"PXPXPXPXPXPXPXPXPXPXPXPXPXPXPXGXa ).#X>.l.5X, s S i e.5X%X=Xm.}.m.oX=Xw.h h z 6 [.:X;.b.J.F.|.8 a G p m m ; - # B iXPXPXPXKXPXPX",
"PXPXPXPXPXPXPXPXPXPXPXPXPXPXPXGXR 5 a.P.n.Z.> 6 ].`.5X;X}.:X@X;X:XoX X;XXXXX%X*X5Xu.#X#Xf.-X7 k nXHXvXHXtX] G p Y lXPXPXKXPXPXKX",
"PXPXPXPXPXPXPXPXPXPXPXPXPXPXPXPXrXi ;Xv.b.h./ .X#XL.F.0.C.:XOX@X-X-XL.H.H.H.F.OXOX#Xt.m.:X&Xl yXaXBXBXHXHXiXxXmXxXPXJXJXPXKXPXPX",
"PXPXPXPXPXPXPXPXPXPXPXPXPXPXPXPXPXS (.F.J.J.;.P.z.b.b.J.+XOXt.i.'.;XP.8.4.4.x.P.g.V.OX.X2 _ BXHXHXHXHXHXHXGXPXPXPXPXPXPXPXCXKXPX",
"PXPXPXPXPXPXPXPXPXPXPXPXPXPXPXPXJXa 7  XV.z.P.,.4.4.2.2.G.L.G.#X:X X1.,.4.9.9.,.P.g.B. .1 yXzXPXPXHXHXGXGXPXPXGXFXPXPXPXPXKXPXPX",
"PXPXPXPXPXPXPXPXPXPXPXPXPXPXPXPXKXBXD r u.+Xz.x.x.7.6.v.G.G.z.2.#XL.J.7.7.9.7.J.c.+XL.w.h dXPXPXFXGXPXGXPXPXPXGXPXPXFXPXKXPXPXJX",
"PXPXPXPXPXPXPXPXPXPXPXPXPXPXPXPXPXPXyXk |.;X;.J.2.b.P.P.V.v.J.z.G.V.J.<.b.b.+Xg.f.#XG.oX7 sXJXJXPXPXPXPXPXPXPXPXPXPXPXPXPXDXPXPX",
"PXPXPXPXPXPXPXPXPXPXPXPXPXPXPXPXPXPXNX2X+.>Xm.#X#XN.:XM.+Xb.6.7.z.J.J.B.oX-X=X}.C.+XP.t.t uXCXPXPXPXPXPXPXPXPXPXPXPXPXPXPXPXPXPX",
"PXPXPXPXPXPXPXPXPXPXPXPXPXPXPXPXIXIXHXnX6 3X6X|.3 r w.;XP.1.5.b.6.z.f.;X`.h 7 4X:XL.b.l.N.h PXLXPXPXPXPXPXPXPXPXPXPXPXPXPXPXPXPX",
"PXPXPXPXPXPXPXPXPXPXPXPXPXPXPXPXLXIXHXaXl 3X4Xj . X 0 |.+XJ.b.2.,.P.P.m.j . . z .XB.b.x.+X .iXPXPXPXPXPXPXPXPXPXPXPXPXPXPXPXPXPX",
"PXPXPXPXPXPXPXPXPXPXPXPXPXPXPXPXLXLXBX&.).9X4X> . . 1 }.k.3.P.v.x.6.F.=X1 O + , *X#X6.b.d.(.R DXPXPXPXPXPXPXPXPXPXPXPXPXPXPXPXPX",
"PXPXPXPXPXPXPXPXPXPXPXPXPXPXPXPXzXHX<X6 7X>X].> O . 1 N.n.3.+XL.b.n.F.oX1 X + >  X+X,.7.#X|.a mXPXPXPXPXPXPXPXPXPXPXPXPXPXPXPXPX",
"PXPXPXPXPXPXPXPXPXPXPXPXPXPXPXPXPXMX#.j '.-X.Xj O + w k.b.b.+XM.f.+XP.N.y X . r m.G.P.2.+X7Xl PXPXPXPXPXPXPXPXPXPXPXPXPXPXPXPXPX",
"PXPXPXPXPXPXPXPXPXPXPXPXPXPXPXPXPXiXf =.L.+XOX'.6 j 0.J.4.,. X5XOXF.f.#Xa.w 4 .X#X;.P.z.0.(.#.cXPXPXPXPXPXPXPXPXPXPXPXPXPXPXPXPX",
"PXPXPXPXPXPXPXPXPXPXPXPXPXPXPXPXKXMX_ *XA.| ( .X4X'.;Xj.7.x.Z.@XOX+XOXB.F.L.OXA.A.| | h.:Xj dXHXPXPXPXPXPXPXPXPXPXPXPXPXPXPXPXPX",
"PXPXPXPXPXPXPXPXPXPXPXPXPXPXPXPXGXH 1X*X..| ( ( p.X.X.y.v.z.J.P.K.$X>X:Xi.y.X.X.y.( j.A.4Xf BXvXPXPXDXJXPXPXPXKXPXPXPXPXPXPXPXPX",
"PXPXPXPXPXPXPXPXPXPXPXPXPXPXPXPXBXa f 4X.Xr.@Xo.o.r.o.y.#Xv.3.n.I.:X&X'..XX.( X.i.X.Z.-X[.C bXLXDXFXPXPXPXPXPXPXPXPXPXPXPXPXPXPX",
"PXPXPXPXPXPXPXPXPXPXPXPXPXPXPXPXiXnXz [.*X>Xr.y.r.:Xr.i.Z.+Xk.I.S.XX5X7Xi.) :.A.r.X.j.t.x J tXGXPXPXPXDXzXPXPXzXPXPXPXPXPXPXPXPX",
"PXPXPXPXPXPXPXPXPXPXPXPXPXPXPXPXBXnX0X+.4X7X'....Xp.:XA./ 0.N.#Xw q % > e , Z.@XOXj.+Xm.k yXHXLXGXPXPXPXPXPXPXPXPXPXPXPXPXPXPXPX",
"PXPXPXPXPXPXPXPXPXPXPXPXPXPXPXPXnXyXsXD _.).8X'. .9 t.+X1 w } -.w a.t w -.| ;.Z.V.h.J.u.5 BXGXvXzXPXxXPXPXxXxXPXPXPXPXPXPXPXPXPX",
"PXPXPXPXPXPXPXPXPXPXPXPXPXPXPXPXBXaXnXsXH i _.&X|.M.} 4 2 u.=Xt 8 I.}.N.#X1.g.L.G.c.J.;Xg nXLXPXPXlXM N rXPXPXKXPXPXPXPXPXPXPXPX",
"PXPXPXPXPXPXPXPXPXPXPXPXPXPXPXPXiXBXHXvXHXm l 7 s.:X0.I.;XS.=X}.H.P.;X#Xc.P.#Xd.J.k.k.;Xk iXPXPXPXY     ~ DXPXPXPXPXPXPXPXPXPXPX",
"PXPXPXPXPXPXPXPXPXPXPXPXPXPXPXPXPXPXDXPXPXmXyX7 t 0.+Xl.H.OX@X;XP.f.;XC.J.l.d.I.P.H.k.}.l bXPXDXzX- Y E.U M N zXPXPXPXPXPXPXPXPX",
"PXPXPXPXPXPXPXPXPXPXPXPXPXPXPXPXAXPXSXKXPXPXyXk |.$XP.b.n.J.#XV.J.j.#X#XJ.v.J.P.f.#Xk.w.@.pXHXcXU - R.! ~ Y o M PXxXPXPXFXPXPXPX",
"PXPXPXPXPXPXPXPXPXPXPXPXPXPXPXPXKXjXKXKXKXFXG 7 %XS.l.<.6.v.P.h.v.P.A.OX-.b.G.c.+Xd.+X}.i HXMXL   U Q R.E.Q.Q o M PXFXrXPXPXPXPX",
"PXPXPXPXPXPXPXPXPXPXPXPXPXPXPXPXSXKXKXhXJXHXS ).4  .1.J.P.b.j.z.v.P.Z.;Xe w +XF.g.#XH.-Xz MXcXV ! E.E.~ N E.! Y   Y xXPXPXzXFXPX",
"PXPXPXPXPXPXPXPXPXPXPXPXPXPXPXPXPXKXKXPXMX<Xi > t -.+XJ.v.z.6.J.2.#Xm.@Xf.9 t.+X+Xf.F.u.z pXY.~ ~ ~ ! E.R.Q !.! Q o V zXxXPXFXPX",
"PXPXPXPXPXPXPXPXPXPXPXPXPXPXPXPXJXPXxXBXsXF X % *X;X;Xf.j.J.z.x.J.d. X5XL.} V.+XL.#XI.5X5 m T T E.U R.  = Q R.R.E.~ o U DXPXPXDX",
"PXPXPXPXPXPXPXPXPXPXPXPXPXPXPXPXPXGXnXqXx & 1 r *Xu.:X@XL.+X6.5.P.K.:Xw.B.f.e C.f.B.F.w.i G - U - U b b M # Q ~ N ^.U - PXPXPXPX",
"PXPXPXPXPXPXPXPXPXPXPXPXPXPXPXPXIXNXqX{ {.7X%X>Xq. .q.:XC.G.5.J.H.XX4 =X;Xd.L.e e #X+Xs.5   Q kXPXCXFXPXlXU = E.Q.Q Q Y xXPXFXPX",
"PXPXPXPXPXPXPXPXPXPXPXPXPXPXPXPXNXaX' 8 $XXX;X|.r O j `.-XP.3.b.XX4 @ w 0.#XB.B.L.d.K.=Xi p iXLXDXPXPXPXPXPXb U Y R.U xXPXPXFXPX",
"PXPXPXPXPXPXPXPXPXPXPXzXPXPXxXHXdXh %XN.c.J.P.C.3 + , 4X-XF.J.n.&X2 @ & ;XF.H.b.J.P.K.:X).l yXHXPXPXmXPXFXFXR.b b ! eXPXPXPXPXPX",
"PXPXPXPXPXPXPXPXPXFXFXPXPXPXPXiX6 r m.P.J.,.<.C.1 O , 4X-Xc.x.n.4Xi . 1  XF.b.5.3.>.+X:X&Xh d dXmXPXPXPXPXPXxXDXzXPXPXPXPXFXPXPX",
"PXPXPXPXPXPXPXPXPXPXPXPXxXzXPXpXd *X;Xg.x.5.J.P.w $ r *X@XJ.8.b.|._ O / B.J.b.8.J.x.P.+X-Xq.3 z BXPXDXFXFXPXPXPXKXPXPXPXPXPXPXPX",
"PXPXPXPXPXPXPXPXPXPXFXPXPXPXeXm 7 %Xm.B.J.b.n.l.-. .e.:X#XP.5.J.-Xq. .N.P.v.8.8.O.7.<.G.C.5X.X3 iXPXJXFXPXPXFXCXPXPXPXPXPXPXPXPX",
"PXPXPXPXPXPXPXPXPXPXPXPXPXrXQ C 1X6XoX:XF.l.c.#X#XN.#XOXF.H.<.g.OX XC.+Xc.z.8.7.7.J.2.J.g.N.-X0 J eXPXPXPXPXPXPXPXPXPXPXPXPXPXPX",
"PXPXPXPXPXPXPXPXFXPXPXPXlXY = <X1X].%X:XN.:X#Xf.F.d.+Xd.+X+X#X;X;XZ.#XL.j.v.b.b.z.J.v.g.#X+X#X(.@ Q DXFXFXPXPXPXDXFXPXPXPXPXPXPX",
"PXPXPXPXPXPXPXPXPXPXDXPXzXb   J i 7 7 3 0 w.5XoXM.+X+X$X:Xw.`.|.-Xu.u.;X#XOX+XB.C.C.OX;XM.M.m.8X* V xXPXPXPXPXPXPXPXPXPXPXPXPXPX",
"PXPXPXPXPXPXPXPXPXPXxXPXDXM = ^ H F D @.F x _.,X:X:XXX|.(.h 7 7 3 4 w |.>X%X6X%X|.t 4 ,X&X5X7X).u - zXPXPXPXFXPXPXPXPXPXPXPXPXPX",
"PXPXPXPXPXPXPXPXFXPXPXV = o Y Q $ * J %.$.` @.d &X7X&X7 7 & C H z @.X 5 0X9X).l 5 &.k i i % 2 u R # Y PXDXPXFXPXPXPXPXPXPXPXPXPX",
"PXPXPXPXPXPXPXPXPXPXDXY V = N V p b L ` Z Q.$.% & i 1 % #.C < V a % J u p p m @ J R $.S * @   % $.Q   U PXxXPXFXPXPXPXPXPXPXPXPX",
"PXPXPXPXPXPXPXPXFXPXPXlXDXFXPXKXKXKXhXU.U.W E.R R &.H $.R # K JXPXm ] Q N B ! R.~ T.! T.lX!   W.! W.N V PXFXFXPXPXPXPXPXPXPXPXPX",
"PXPXPXPXPXPXPXPXPXPXPXPXPXPXPXCXKXKXKXKXW E W ~ ~ G = b - U.SXJXLXPXI v T.~.U.U.Q.  I kXPXkXE b - - R.  Y FXDXPXPXPXPXPXPXPXPXPX",
"PXPXPXPXPXPXPXPXPXFXDXPXPXPXPXPXKXKXPXZXAXW V K M M E KXzXhXPXPXPXPXxXPXE = M o   K xXPXPXPXJXPXPXB - Y xXPXPXPXPXPXPXPXPXPXPXPX",
"PXPXPXPXPXPXPXPXPXPXPXPXFXDXDXPXPXJXCXPXlXPXDXCXZXPXgXJXPXPXPXKXCXPXPXZXJXPXDXY Y zXPXAXPXPXZXJXCXPXDXPXPXzXPXPXPXPXPXPXPXPXPXPX",
"PXPXPXPXPXPXPXPXPXPXPXPXPXPXPXPXDXPXPXvXHXHXGXPXKXPXSXPXPXLXiXHXPXFXPXPXFXMXMXbXiXHXHXPXPXHXPXPXPXPXFXDXPXPXFXPXPXPXPXPXPXPXPXPX",
"PXPXPXPXPXPXPXPXPXPXPXPXPXPXPXDXPXPXbXnXBXBXHXPXPXKXPXJXxXPXBXnXHXPXUXPXHXHXpXBXBXVXHXHXMXPXPXFXPXPXPXPXPXzXPXDXPXPXPXPXPXPXPXPX"
};
