/* XPM */
static char *result[] = {
/* columns rows colors chars-per-pixel */
"64 64 235 2 ",
"   c #010104",
".  c #02030B",
"X  c #06070A",
"o  c #0A0A0E",
"O  c #110E0D",
"+  c #14100F",
"@  c #030611",
"#  c #050A15",
"$  c #0B0C14",
"%  c #070C19",
"&  c #090E1B",
"*  c #0E1114",
"=  c #0C121D",
"-  c #131215",
";  c #12151C",
":  c #1A1A1C",
">  c #241D18",
",  c #27221D",
"<  c #32281D",
"1  c #0D1323",
"2  c #0E172A",
"3  c #111623",
"4  c #141A25",
"5  c #1A1D24",
"6  c #111729",
"7  c #141B2C",
"8  c #191E29",
"9  c #151E31",
"0  c #181E31",
"q  c #1E2024",
"w  c #1C212C",
"e  c #172132",
"r  c #1B2333",
"t  c #1C263A",
"y  c #1E283C",
"u  c #242324",
"i  c #21242C",
"p  c #2A2A29",
"a  c #312C25",
"s  c #2E302E",
"d  c #3A362B",
"f  c #212632",
"g  c #242A34",
"h  c #2A2D34",
"j  c #20273A",
"k  c #242B3C",
"l  c #292E3A",
"z  c #2B3138",
"x  c #2C323D",
"c  c #343433",
"v  c #3B3937",
"b  c #31353D",
"n  c #433A2B",
"m  c #4B3631",
"M  c #484339",
"N  c #554A38",
"B  c #62553E",
"V  c #1E2B43",
"C  c #232D42",
"Z  c #262F45",
"A  c #253145",
"S  c #2C3343",
"D  c #25324B",
"F  c #2B344C",
"G  c #2E3A4D",
"H  c #313742",
"J  c #343A44",
"K  c #373D49",
"L  c #263551",
"P  c #2A3652",
"I  c #273857",
"U  c #2D3954",
"Y  c #2C3D5B",
"T  c #303753",
"R  c #333C55",
"E  c #313E5A",
"W  c #3E4044",
"Q  c #3D424C",
"!  c #2E415F",
"~  c #35415B",
"^  c #394558",
"/  c #2F4162",
"(  c #334463",
")  c #374965",
"_  c #3B4A64",
"`  c #344668",
"'  c #364A6B",
"]  c #3A4C6D",
"[  c #3D516E",
"{  c #364C71",
"}  c #394E72",
"|  c #3D5273",
" . c #395379",
".. c #3B557B",
"X. c #454749",
"o. c #575248",
"O. c #414651",
"+. c #444A55",
"@. c #494D57",
"#. c #4C515B",
"$. c #585859",
"%. c #655A47",
"&. c #76664C",
"*. c #6A6453",
"=. c #756B56",
"-. c #424C60",
";. c #43526C",
":. c #4C5669",
">. c #555B65",
",. c #495874",
"<. c #435A7C",
"1. c #515E77",
"2. c #566476",
"3. c #58647B",
"4. c #6E7070",
"5. c #897A5B",
"6. c #947F5D",
"7. c #867A66",
"8. c #91866F",
"9. c #A79872",
"0. c #3D5880",
"q. c #425C84",
"w. c #475E86",
"e. c #45638C",
"r. c #486389",
"t. c #546484",
"y. c #546689",
"u. c #586988",
"i. c #5A6A8C",
"p. c #5A718E",
"a. c #496792",
"s. c #4C6A93",
"d. c #546C95",
"f. c #5D6E92",
"g. c #4F729C",
"h. c #5B7296",
"j. c #53739D",
"k. c #5A749C",
"l. c #65758B",
"z. c #6E798B",
"x. c #677899",
"c. c #5778A2",
"v. c #5D7AA4",
"b. c #5C7CAA",
"n. c #627DA6",
"m. c #7F8187",
"M. c #778899",
"N. c #5B81AC",
"B. c #5D88B3",
"V. c #5D8AB5",
"C. c #6A83A6",
"Z. c #6381AA",
"A. c #7388A5",
"S. c #748CAB",
"D. c #7C96AA",
"F. c #658BB5",
"G. c #6792B9",
"H. c #7A95B4",
"J. c #78A3B9",
"K. c #6898C3",
"L. c #6C9CC6",
"P. c #719EC8",
"I. c #6EA1C8",
"U. c #76A6C7",
"Y. c #73A4CB",
"T. c #7BABCD",
"R. c #7BADD1",
"E. c #7EB1D4",
"W. c #8D9395",
"Q. c #AEA592",
"!. c #839AAB",
"~. c #969FAA",
"^. c #859BB4",
"/. c #859EBB",
"(. c #8DA4B0",
"). c #87A5B9",
"_. c #8CA3BC",
"`. c #93A8BB",
"'. c #A4A9AA",
"]. c #88AAC5",
"[. c #94ABC3",
"{. c #97ACC6",
"}. c #86B3CB",
"|. c #8DB3CD",
" X c #97B5CC",
".X c #9BB4CB",
"XX c #85B3D4",
"oX c #8BB6D3",
"OX c #8BB9D8",
"+X c #94BAD5",
"@X c #9CBBD3",
"#X c #98BAD6",
"$X c #93BEDB",
"%X c #A5B7CA",
"&X c #A2B7D0",
"*X c #A2BDD3",
"=X c #95C1DB",
"-X c #9CC2DC",
";X c #A4C1D6",
":X c #A3C3DC",
">X c #AAC7DE",
",X c #B5C9D9",
"<X c #B9CDD9",
"1X c #BBCDDB",
"2X c #9CC2E1",
"3X c #A4C6E3",
"4X c #A7CAE6",
"5X c #ABCAE3",
"6X c #B2CEE5",
"7X c #BBD3E7",
"8X c #B4D2EB",
"9X c #B5D4EF",
"0X c #BBD5EC",
"qX c #C8CECF",
"wX c #C8D3DB",
"eX c #D3D8D9",
"rX c #CBDAE3",
"tX c #C5D8E9",
"yX c #D3DDE3",
"uX c #D4DFE7",
"iX c #C5DDF1",
"pX c #CFE1EF",
"aX c #D7E1E6",
"sX c #DBE2E5",
"dX c #D5E2EC",
"fX c #DDE5EA",
"gX c #CDE1F2",
"hX c #D9E8F5",
"jX c #E2E7E9",
"kX c #E4EBEC",
"lX c #E9EEED",
"zX c #E7EEF2",
"xX c #EDF2F2",
"cX c #EFF4F5",
"vX c #E9F3F9",
/* pixels */
"% % % & % % % % % & & 1 1 1 1 2 2 2 9 2 9 t V V V L G 7.>.} <.r.N.D.8.*.'.<XeXaXfXkXkXkXsXyXeXwX,X<X,X{.}.;X;X|.U.T.R.Y.I.L.I.Y.",
"# % & & % % % % & & & % & 1 1 2 2 2 2 9 9 t e V V L p n M u.<.s.N.W.o.Q.=.qXyXaXkXkXkXkXjXsXyXwX1X1X>X).J.|.;X|.U.E.R.I.Y.Y.Y.Y.",
"% % % & % % & & 1 & 1 1 1 1 1 2 2 2 2 9 9 t V V D Y N 8.N *.<.d.N.M =.Q.*.9.yXsXkXkXlXlXjXsXyXrX1X1X;XJ.G.U.@X|.T.T.R.Y.Y.P.Y.Y.",
"% & % & % % % % % % & 1 % 1 1 2 2 2 9 2 e t V V D P $.8.W.M 4.4.8.M 4.Q.4.N aXjXkXlXlXlXlXjXsXeX1XqX;XU.J.J. X|.T.E.Y.Y.Y.Y.Y.P.",
"# & & & % % & & & 1 & & 1 1 1 2 2 9 9 9 e t V V D k 8.4.8.B 9.6.9.%.*.*.7.M aXjXkXlXlXlXlXfXsXeXwX1X;X].I.J.|.oXR.R.Y.Y.P.I.Y.Y.",
"% & & % & & & & % % % 1 1 1 2 2 2 2 9 9 t V V V D A W.o.o.8.=.6.&.8.*.o.$.X.fXkXxXxXxXxXlXkXsXyXtX1X;XXXI.J.+XXXE.R.Y.L.L.K.L.Y.",
"& & & & & % & & % 1 1 1 1 2 2 2 9 9 9 e t V V L I ! d n =.N N &.B &.5.o.M 4.kXkXcXcXxXxXxXkXjXaXwX1X;XoXU.].-XOXE.E.Y.Y.I.P.Y.Y.",
"% & & % % % & & 1 1 1 2 1 2 9 2 9 e e t V V D I ! ` d d d a d d d d M N M Q.hXkXlXxXxXlXxXkXsXyXrX7X:X+XXX#X#XOXE.R.R.Y.Y.Y.Y.R.",
"& & & & & & & & % 2 R +.8 7 0 0 e t t V V L I ! ( ] s > + : d a , + - O d M qXlXlXlXlXlXlXkXfXsXrX1X>X+X=X:X=XOXE.R.R.R.Y.Y.R.R.",
"& = & & 1 & 1 = 2 D `.`.S 7 0 0 r y V V D L I / ( ;.> > c : a < s     X d n 8.jXlXlXlXlXlXjXfXsXrXtX>X=X}.=X=XOXE.R.T.T.Y.Y.I.I.",
"7 8 7 4 1 & 2 1 1 C W.A.C e 0 t t V V D D L Y ( ` :.> > '.k m n a     X n d n sXkXkXlXlXjXfXsXaXrX7X6X-X=X=X}.E.Y.R.R.Y.I.I.I.I.",
">.!.M.-.0 2 1 1 1 9 C C e e 0 t k C D F D I ~ ` ) $.a a c $.8.9.=.+ + a d < < eXaXkXsXsXfXaXaXrXwX6X>X-X=X=XE.}.R.R.T.Y.U.I.J.U.",
"D.6X:Xf.j 3 1 1 1 2 7 9 e e r t C Z P U T ! ( ' ] n : < m 6.9.9.9.&.d d , < < qXaXaXyXsXdXyXrX7X6X5X:X-X}.}.E.U.J.}.U.}.T.J.T.T.",
"C ^ R r 1 1 1 6 2 2 7 9 e r t A F P T U Y ! ` ] [ v > N 8.&.B B &.9.8.B < , , rXiXpXpXtXtXiX0X0X6X5X@X$X}.}.E.U.}.=XJ.(.J.J.J.J.",
"1 1 1 1 1 2 2 2 1 6 7 0 r t A u.x.E I E R / ` ] | -.n &.8.> O o n 5.5.B d + M tXtXiX0XtX0X0X8X5X3X3X=X$X}.}.}.}.=X}.J.J.J.D.D.D.",
"6 6 1 1 1 1 2 6 6 7 7 0 t g R {.5X,.Y Y ! ` ` | ..<.X.n a : X + d M v n > : ).9X0X0X9X9X8X6X5X3X-X-X=X$X=X=X}. X X}.).(.(.(.(.D.",
"-.Q j 6 6 6 6 6 6 0 0 0 C j G t.f.( ! ( ( ( ' | ..<.:.a u p p u c d v v * e M.^.`.:X8X5X4X5X:X:X-X=X+X=X$XOXoX}.+X[.J.).).(.D.D.",
"%XW.Q 0 6 4 6 6 0 0 0 t C C ~ x.p.~ E ~ ( ' ' | ..} 4 : a u q , p s n : 3 3 & = % 2 Q -X-X-X5X6X5X-X=X=X=X=X$X+X X X`.`.`.`.(.(.",
">.O.k 7 7 6 0 0 0 t 0 t C Z ;.&X)._ ( ( ` ' ] ;.~ w r 8 - - - - - : : & % x = i l z q t M.=X6XwXdXaXsXfXdXdXaXdXsXsXaXaXaXsXsXsX",
"8 8 8 0 7 0 7 0 0 0 j j Z Z ~ u.,.( ( ( ' ] ] C 7 l x w #   : h & @ w 7 = J 7 x 2.x z * o M.7XdXhXkXlXxXzXkXkXlXlXkXkXkXsXjXsXsX",
"7 6 7 e 0 0 e e 0 C C C Z F U E ( ! ) ) ' ] U ; ; h J x ; . 3 8 ; = g r # J t x @.z +.g 3 +.<X1XdXkXxXcXvXzXzXzXzXzXkXpXaXhXdXdX",
"^ ^ ~ G t e e t 0 j C C F F P ( ' ( ) ` ` ] f $ . f J J . ; & 4 & w i w # b z J b r l z +.= 1X6XpXvXcXvXvXzXvXcXvXvXvXhXpXpXpXpX",
"qXeXwX`.^ V V V C j C Z F T U ( } ] ' ) ] E 3 $ & o h J @ 8 = 4 # w b # # H g J #.3 4 J 7 = W.,XgXvXvXvXvXhXvXvXvXvXvXgXiXiX0X0X",
"eXeXeX,X;.V D D Z S C Z F F T ) | | ' ' ] ~ 5 u & . p J & 3 & & # Q w X % x f ^ Q w = g J w t >X0XhXvXvXhXgXgXhXhXvXpX9X8X9X8X8X",
"eXeXeX%X_ A A y k k l G P P R ] q.<.] ;.;.G u 5 = X w z # & & $ & g = . # l k J 7 4 = w +.H 7 .X6X9XiXiX0X9X9XtXiX8X6X-X-X=X=X$X",
"eXeXeX,X;.L L ! ! ! ! ! ( ) ] q.w.e.q.e.w.; ; u = % w w = 3 3 . w g # # % J l = % $ = x >.+.S !.3X4X8X6X5X4X4X5X5X3X;X=X=X=XoXoX",
"`.`._.C.<.....<.r.s.s.d.k.k.v.v.s.n.N.n.<.p 5 h 1 . q w & 3 = . w f % % & J J = # @ # = J 2.5 M.3X#X*X3X3X*X4X4X:X;X=X+X=X=X2XOX",
"_ | r.e.s.a.r.a.d.j.x.k.b.n.n.Z.j.F.N.Z._ M u v 4 % i = = 4 3 $ g f % = 4 K Q 7 % . . = H K #.g :X3X:X2X3X:X2X*X=X=X X|.oX$X}.oX",
"[ ..r.s.s.s.s.y.j.x.n.n.n.Z.Z.C.k.F.n.b.-.*.q X.= 4 l @ = 4 & - r x % q g @.Q w % X . = g H w 7 *X-X:X-X2X#X#X#X+X+X|.{.|.|.|.[.",
"| <.r.s.d.p.s.s.j.c.v.k.Z.Z.Z.Z.k.S.n.c.b $.c X.4 i p @ 3 4 @ o x H = r b g S 3 %     1 r = q w 1.@X@X@X@X&X@X.X.X.X[.{.{.[._._.",
"[ | <.r.y.y.y.u.y.s.h.d.p.f.k.k.s.n.k.y.X.*.@.X.4 i q ; 3 6 $ . Q J w r W J Q = % 5 4 g = ; & 4 #..X&X.X&X{..X{.{.{.[.`.[._._._.",
"L L G ! ! Y ! Y E E ~ ~ ~ _ ] ;.<.,.,...v v $.$.q W $ 5 3 ; % . g Q r g Q J Q 7 4 * M.# # # ; J ^ {.&X.X&X&X{.{.{.{.[.^.[.[.`.^.",
"y j C F Z Z F F F J T R R R E ( ] ;.;._ - u $.>.b b & 5 5 ; & . 4 #.b K X.O.+.8 3 = ^.% . % & K w `.-X;X*X*X#X@X.X.X.X`.{.{.[._.",
"C C C Z F F C F F T T T R R _ ` ;.;.;.4 o v $.$.X.h ; 8 4 = & X - @.Q +.+.#.>.g 4 = `.>.. @ % O.g `.;X;X*X&X*X*X.X.X.X[.[.[.[.`.",
"C C Z Z Z F F F F F T R R ^ ( -.] ;.R $ . X M $.b o ; 5 4 & & . o f H +.O.>.>.8 w = `.`.$ @ # O.O.(.*X.X&X:X&X&X.X.X{.[._._.).).",
"D D D D L F F P F T R R R ^ ~ _ ;.;.7 .   o W X.p   5 5 5 ; & #   c k @.>.>.>.8 J 3 z..XG . # 7 Q 2.;X@X.X.X#X.X.X.X{.`.(._.).).",
"L L L L P L P F T T P R E E E _ | R ; @ . $ X.c o   5 5 5 : ; . . o f W >.#.@.f x 1 3 %X`.@ @ 4 +.f .X X{.|.{.{.[.[._.^.^.D.H.D.",
"L I I I P L L D F T T R ~ ~ -.-.w.l & 8 . u X.u     * 5 4.p 7 #     5 w >.W @.K g 4 & ).{.x @ & Q w {.[./././.]._._./.H.H.A.S.S.",
"I Y I I P P P P Y R T E ~ O.( -.( : 3 5   p W -   o h W @.$.w X     ; 6 @.J H @.g w 4 3..X^ . w J l l.[.[._._././././.^.H.D.A.M.",
"Y Y ! Y Y Y P P Y R T R ~ E ~ E H ; 7 @ . - h       8 3 q b # 3 .   $ H H l H Q w J w -..X_ o f w H ^ [.]._././.^.H.H.^.S.S.S.S.",
"` ` ` / / Y T T E E R E ~ ~ R +.= 4 & . $ . $     X w x w z ; 4 # .   w J S J r z x t 4 {.S.o $ 1 l ^ `././././.H.H.H.S.S.S.S.S.",
"{ { / / / Y Y Y E E T R T R S & 3 w &   l @       w S x J b w 7 #     b f #.z f l l r % !.x..   b m.6 ^././.S.H.S.S.A.n.n.A.n.n.",
".. .{ ` ! / P T R R T G T K @ o '.#.# @ U .     . z J x z b g 4 # . $ $ f #.g w b z g % j ;.. . O.K 6 n.n.n.n.n.n.n.x.x.x.x.x.x.",
".. .{ ` ( / U Y T T F G K S = m.~.4 . 3 F       o l z w b J g 3 % $ . = r g J g H f x # @ ;.o b i 0 S n.n.n.k.f.d.i.y.i.i.i.f.f.",
".. .{ ` ( ( E P U S Z S Z h 8 5 3 . $ R l       q x g w 4 x z = =   5 & : @.b S x Q z = . R w >.4.0 S f.f.i.i.i.y.y.y.t.i.i.y.y.",
"0...{ ` ` E / U T F C K H g x . . * z F =   . $ 4 H z 7 = z x *   o g 4 $ w x f J Q f 7 . S l w Z H :.n.x.f.f.f.f.f.i.i.i.i.i.i.",
"0. .] ` ! E T L F Z C O.8 H w 3 X 3 ~ ~ .   5 . q b z 7 = r f .   h b =   f w 7 Q +.x 1 . . w 7 k f x.x.x.f.f.f.i.i.i.i.i.i.i.i.",
"q.0.{ / ! Y T P S Z l h 4 k x k ~ ( ~ ~ $   $   i x g 4 = = 7 . $ z x =   X w w t #.J 3 . X 2.= @ 1 M.n.x.f.f.f.f.i.i.i.i.i.i.i.",
"a.0.{ ` ! I P F Z C K +.3 4 4 7 ( ( R ~ $       p x r 5 7 3 % . - Q J 3 .   : 7 8 K #.3 .   M.M.n.A.x.x.f.i.i.i.i.i.t.y.i.t.i.i.",
"e.0.{ / Y P F Z Z C @.S l $ & k ( ( K ^ .       h J r 3 @ @ # . ; +.K w #   5 = 8 8 #.8 # . t C.A.x.x.x.f.t.i.t.t.t.t.t.t.t.t.t.",
"..{ / I D D C C k k O.J 8 l z S R R K F .     X X.W 4 1 = @ .   : Q J w &   $ 5 f f f g 4 . 2 M.x.z.l.i.i.t.t.t.1.,.1.1.1.t.t.3.",
"0.{ Y L Z C C C j l b 8 j k k Z F F F H .     X s 4.$ 4 3 3 .   ; X.S w = . . w K 8 4 w r # = 3.x.l.i.i.t.1.:.1.:.:.:.1.:.>.1.1.",
"q.0.{ I I L D C k S f j k j C l G U P F X       v X.# = = # .   ; Q J w = .   w S 4 8 f g ; % 2.f.l.f.t.t.1.1.:.:.:.,.,.>.,.,.1.",
"V.c.a.0. .{ / / U P D D F F P T ~ ( ] ) X       5 4.* & = .     u X.x w 1 .   g 8 w 8 l 4 4 = _ x.x.f.f.y.i.w.w.w.w.t.y.y.t.t.t.",
"L.F.b.c.g.s.e.0...{ { ` ` ' ( { .. .q.r.1 .     p z q = 4 . .   q Q x w 3 #   u w J 8 l 3 2 % 2 n.n.n.n.k.k.k.d.f.k.b.b.v.n.n.n.",
"B.b.j.g.s.s.a.0.q.0...} { |  ...0.e.a.s.1 #     o $.; = = @ .   : @.x w 1 #   = w J 7 w q g = = n.P.n.n.n.b.b.b.b.b.k.k.b.b.b.n.",
"V.B.N.N.c.c.a.a.a.q.0.0.0.0.0.a.e.s.e.e.^ @       W w 4 # @ .   - +.H w 4 #   # w g e w w w = = t.P.P.n.F.F.b.b.b.b.b.b.b.b.b.b.",
"V.V.N.N.N.c.g.g.s.s.a.a.s.g.g.c.g.N.q.D A #       X.w 3 % .     q Q b w w %   o w w 4 w w = & % ^ 8X4X2X2XOXXXXX/.P.P.P.K.P.K.P.",
"V.V.V.B.N.g.g.g.g.g.c.c.g.c.c.B.V.V.a.A ~ #       z w = # .     q W J f w =   o q k w 7 w w & & K tXgXiX9X9X8X4X4X2X2X2X$X$XoXOX",
"K.K.V.V.K.V.V.B.V.V.V.V.V.V.K.L.Y.E.U.S.S..       p g 8 % .     q W Q t w =   . z x r ; w q w % 1 qXhXhXgXgXiXtX9X9X8X8X4X4X4X3X",
"I.I.L.K.L.L.I.L.I.I.Y.Y.Y.R.E.OX=X2X2XgX%X.       ; b f @       h >.Q w w & . . x l l = w 4 4 # % qXjXjXjXlXjXfXuXrXtXtX0X0X0X0X",
"K.K.K.K.K.K.K.K.P.L.Y.E.XX=X2X4X6X8X4X`.$.        : z q .   .   s Q b ; = 4 X O Q S Q 7 1 3 4 # % +.lXjXjXlXjXjXjXfXfXfXuXtXrXwX",
"q.e.e.0.q.q.q.q.r.e.d.c.Z.].4X0XrXiX[.D 4         $ b 5 . .     O.J f r 7 # # fX>.l +.8 = = 3 @ @ o jXsXsXsXsXsXuXuXsXeXtXwXwXwX",
"e t e e r r r t t t t A D ] T.5X7XwX;XR .           h $         +.b w 4 7 =   >.Q l Q 4 % = 3 @ # o 2.z.z.l.l.z.t.t.t.i.i.z.z.x."
};
