/* XPM */
static char *result[] = {
/* columns rows colors chars-per-pixel */
"64 64 212 2 ",
"   c black",
".  c #792D2C",
"X  c #853B38",
"o  c #895352",
"O  c #AD5653",
"+  c #B96C6A",
"@  c #BC7A78",
"#  c #C35B58",
"$  c #DF635F",
"%  c #E5625F",
"&  c #C86C6A",
"*  c #D87478",
"=  c #E46561",
"-  c #E56B67",
";  c #E7726E",
":  c #E5797A",
">  c #E47E7B",
",  c #51B900",
"<  c #66BF34",
"1  c #6ABE36",
"2  c #6DBE3B",
"3  c #59C800",
"4  c #66C404",
"5  c #7ED300",
"6  c #6AC515",
"7  c #6BC41A",
"8  c #78C21F",
"9  c #52C120",
"0  c #6BC426",
"q  c #77C42A",
"w  c #7FCE2D",
"e  c #6EC13A",
"r  c #70C13E",
"t  c #7BC139",
"y  c #7ABD45",
"u  c #7BBB4B",
"i  c #77C348",
"p  c #8EE207",
"a  c #80CE2E",
"s  c #80CE32",
"d  c #88D830",
"f  c #97B54F",
"g  c #80B65E",
"h  c #81AD6E",
"j  c #86A979",
"k  c #8AB37B",
"l  c #8FBB7B",
"z  c #B6A56C",
"x  c #ADB568",
"c  c #B7A771",
"v  c #B9AE76",
"b  c #B5B673",
"n  c #B9B075",
"m  c #C89676",
"M  c #CB9C7E",
"N  c #E9827F",
"B  c #C4A57C",
"V  c #C1AD7B",
"C  c #C2B07D",
"Z  c #83C54D",
"A  c #86CC4C",
"S  c #8CD646",
"D  c #8ED846",
"F  c #8ED64B",
"G  c #8ED849",
"H  c #91D74E",
"J  c #87CA52",
"K  c #89CB53",
"L  c #8AC959",
"P  c #83D553",
"I  c #8DD255",
"U  c #8ED259",
"Y  c #91D553",
"T  c #93DA55",
"R  c #91D25C",
"E  c #AAC55C",
"W  c #8BCB63",
"Q  c #8EC66D",
"!  c #93CD6C",
"~  c #93D362",
"^  c #94C873",
"/  c #AAC367",
"(  c #BAC077",
")  c #862ABD",
"_  c #8448B6",
"`  c #AD55BC",
"'  c #9468BA",
"]  c #9078B2",
"[  c #CB799C",
"{  c #9207CE",
"}  c #931CCE",
"|  c #8B18D1",
" . c #9327CD",
".. c #913DC7",
"X. c #9334CB",
"o. c #923BCA",
"O. c #972BD1",
"+. c #934CC6",
"@. c #9345C9",
"#. c #9346C8",
"$. c #9254C3",
"%. c #925AC1",
"&. c #7A8889",
"*. c #85988B",
"=. c #868B9C",
"-. c #8B8E9A",
";. c #8B9495",
":. c #909A9C",
">. c #B08F91",
",. c #8EAE88",
"<. c #90AD8B",
"1. c #8EB580",
"2. c #8DA692",
"3. c #90A593",
"4. c #95A896",
"5. c #ABA28B",
"6. c #8D8BA5",
"7. c #918AA9",
"8. c #8E91A1",
"9. c #9093A3",
"0. c #9398A2",
"q. c #B4BBB5",
"w. c #CB8C8A",
"e. c #D58482",
"r. c #DA8685",
"t. c #DB8987",
"y. c #DA8589",
"u. c #DD8B89",
"i. c #CB9D81",
"p. c #D79188",
"a. c #E48583",
"s. c #EA8683",
"d. c #EC8986",
"f. c #E2858C",
"g. c #E28D8C",
"h. c #EB8D8B",
"j. c #F38D89",
"k. c #E29083",
"l. c #E2908E",
"z. c #ED918E",
"x. c #F1908E",
"c. c #E68A91",
"v. c #E59492",
"b. c #EE9492",
"n. c #E99897",
"m. c #EC9996",
"M. c #EE9D9A",
"N. c #F19493",
"B. c #F19997",
"V. c #F0959A",
"C. c #F09E9C",
"Z. c #CFAA84",
"A. c #C3B180",
"S. c #CDA095",
"D. c #E0A499",
"F. c #EEA19D",
"G. c #F0A09E",
"H. c #F59CA0",
"J. c #DEB9B0",
"K. c #EAA7A5",
"L. c #F1A2A0",
"P. c #F0A8A6",
"I. c #F1ABA9",
"U. c #EAB9B8",
"Y. c #F0B6B5",
"T. c #F2BDBC",
"R. c #A9D18B",
"E. c #B5DA97",
"W. c #B9E69D",
"Q. c #B6D1A8",
"!. c #BBE1A4",
"~. c #BDE1A9",
"^. c #CFC4A6",
"/. c #D5CBB4",
"(. c #F3C0BF",
"). c #B38AD7",
"_. c #B896D8",
"`. c #CCD3D4",
"'. c #D8DAD9",
"]. c #EEC2C1",
"[. c #EDCCCC",
"{. c #F3C5C4",
"}. c #F3C8C7",
"|. c #F3CACA",
" X c #F8CECD",
".X c #F0CCD2",
"XX c #EDDBDB",
"oX c #F3D4D5",
"OX c #F6D8D6",
"+X c #F3DEDE",
"@X c #F8D9D8",
"#X c #DAE6D1",
"$X c #E2EDDB",
"%X c #E3F1DD",
"&X c #DCD3E5",
"*X c #E2DDE8",
"=X c #ECE4E3",
"-X c #E8E7E9",
";X c black",
":X c black",
">X c black",
",X c black",
"<X c black",
"1X c black",
"2X c black",
"3X c black",
"4X c black",
"5X c black",
"6X c black",
"7X c black",
"8X c black",
"9X c black",
/* pixels */
"9X9X9X5X8X6X|.}. X}.|.|.|.|.|.}.}.}.}.}.6X9X5X5X9X9X9X5X5X9X9X5X5X9X9X9X5X5X9X9X7X5X7X9X9X+X{. X}.}.}. X|.|.}.|.}. X{.@X5X7X9X9X",
"8X9X9X;X4X<XG.x.j.x.b.b.N.j.x.B.N.N.x.N.<X9X-X4X9X9X5X;X5X9X9X5X;X7X9X8X;X;X9X9X5X;X3X9X9X{.d.m.N.N.N.x.N.b.N.N.N.N.d.Y.;X5X9X9X",
"9X9X7X;X8X=Xo >.OXK.g.M.L.oXU.o @ B.B.L.<X9X;X5X9X9X5X,X5X9X9X5X;X9X9X7X5X5X9X9X5X5X5X9X9X{.N.L.G.G.G.G.F.G.G.G.G.L.B.T.5X5X9X9X",
";X;X5X9X9XXX  &.8XU.; b.K.5X`.  o B.b.C.+X8X9X9X4X;X9X9X9X;X5X9X9X7X;X5X9X9X5X;X7X9X9X;X5X{.b.G.C.C.C.C.C.C.C.C.C.G.x.(.9X9X;X5X",
"5X;X5X9X9XXX+ w.T.n.> m.F.Y.K.+ e.C.m.C.XX8X9X9X5X;X9X9X9X;X5X9X9X5X;X5X9X9X5X;X9X9X9X;X4X{.b.G.C.C.M.C.C.C.M.C.C.L.b.(.9X9X;X;X",
"5X5X5X7X9X>XB.j.d.N N m.C.d.j.B.B.G.B.C.:X9X7X9X5X5X5X9X9X5X5X8X9X8X5X5X9X9X5X5X5X9X9X5X5X{.N.L.C.C.C.C.C.C.C.C.C.G.b.T.9X9X5X5X",
"9X9X9X;X4X<XM.b.F.d.N z.G.B.m.m.M.M.M.M.<X9X=X4X9X9X5X;X5X9X9X,X;X9X9X9X;X;X9X9X5X;X5X9X9X{.z.L.B.C.C.C.C.G.C.C.C.G.b.T.4X5X9X9X",
"5X9X9X;X4X,XL.C.F.z.> m.G.C.G.G.C.C.M.M.<X9X;X5X9X9X5X;X5X9X9X5X;X5X9X9X;X,X9X9X5X;X5X9X9X{.b.L.C.C.C.C.C.M.C.C.C.G.N.T.;X5X9X9X",
"3X5X7X9X9X:XM.B.G.z.N k.h.M.M.M.C.M.C.C.+X8X9X9X5X5X7X9X9X3X5X9X9X5X5X5X9X9X5X5X5X9X9X,X5X{.b.L.C.C.C.C.C.C.C.C.M.L.z.T.9X8X5X5X",
"3X;X5X9X9X:XM.C.F.d.* N N M.L.F.C.C.C.C.XX8X9X9X;X;X9X9X9X;X;X9X9X7X;X5X9X9X5X;X9X9X9X;X4X{.b.G.C.C.C.C.C.C.C.G.C.G.x.{.9X9X;X,X",
"5X;X5X9X9X>XM.C.F.z.> N > a.s.> h.C.B.C.XX9X9X8X5X3X9X9X7X;X5X9X9X8X3X5X9X9X5X5X8X9X9X5X5X{.b.G.C.C.C.C.C.C.v.v.M.L.b.T.9X9X4X5X",
"9X9X8X;X5X>XL.M.L.z.N ; - % = = s.L.C.C.<X9X;X4X9X9X5X;X5X9X9X5X;X7X9X9X;X;X9X9X5X;X5X9X9X{.N.L.C.M.C.C.C.G.l.r.M.F.b.T.;X5X9X9X",
"8X9X9X;X5X>XL.h.s.+ o S.J.K.S.X O d.b.C.<X9X;X;X9X9X5X;X5X9X9X3X;X7X9X9X;X;X9X9X5X;X5X9X9X{.b.G.C.C.M.C.C.C.m.v.M.L.b.T.;X5X9X9X",
"5X5X5X7X8X>XL.h.; X   q.#X#XQ.  . - s.L.:X8X7X9X5X7X7X7X7X5X7X7X7X5X5X5X7X9X5X5X5X9X8X5X8X{.b.L.B.C.C.C.M.C.G.G.C.F.N.T.9X8X5X5X",
";X;X5X9X9X:XG.z.s.& O w.D.D.p.O # - d.H.XX8X9X9X;X;X9X9X9X;X3X9X9X8X;X5X9X9X5X;X9X9X9X;X4X{.b.G.C.M.C.C.C.C.C.C.C.G.x.(.9X9X;X,X",
"5X5X8X9X9X>XG.b.d.: ; - $ $ % % = = s.C.$X9X9X9X8X3X9X9X8X;X5X9X9X7X;X5X9X9X5X;X9X9X9X5X8X{.z.L.C.C.C.C.C.C.C.M.C.L.N.{.9X9X4X4X",
"+X{.|.{.|.(.M.m.b.b.h.h.z.z.h.d.d.d.b.L.T.|.{.}.(.+X9X3X5X9X9X5X5X5X9X7X3X5X9X6X|.{.{.|.|.I.B.C.C.C.C.C.C.C.M.C.C.G.B.I.|.}.{.|.",
"].d.B.m.b.B.C.G.G.C.M.G.C.F.L.L.L.L.M.F.M.b.b.B.s. X5X;X5X9X9X3X;X9X9X9X;X;X9X6XL.h.B.b.B.B.G.L.C.C.C.C.C.C.C.C.C.C.C.M.b.b.B.b.",
"|.B.n.v.F.G.G.m.l.M.C.C.M.C.C.M.M.M.G.M.C.C.C.L.b.|.8X5X5X9X7X5X5X5X9X7X5X5X9X5XP.B.L.G.L.C.C.v.v.C.C.C.C.C.C.C.M.C.C.C.C.F.C.G.",
"[.N.u.t.M.M.G.b.e.v.G.M.C.C.C.C.M.M.M.H.C.C.C.L.b.{.9X9X9X;X3X9X9X5X;X5X9X9X5X=XI.B.L.C.M.C.G.u.t.M.G.M.G.M.C.C.G.C.C.C.C.C.C.C.",
"|.b.M.v.M.C.C.M.v.M.C.C.C.C.M.v.m.C.C.C.M.C.C.L.N.].9X9X9X;X5X9X9X5X;X5X9X9X8X=XP.B.G.C.C.C.C.v.v.C.C.C.C.C.C.C.M.C.C.C.C.C.C.M.",
"[.N.L.C.C.C.C.M.G.C.M.C.C.C.m.e.l.G.C.C.G.C.C.F.x.}.8X8X5X7X8X5X5X9X9X5X5X5X9X,XP.m.G.C.C.C.M.L.G.C.C.C.M.C.C.C.C.C.C.C.C.C.C.C.",
"|.b.L.C.C.C.C.C.C.C.M.C.C.C.M.v.m.C.C.C.C.C.C.L.z. X8X;X5X9X9X,X;X9X9X9X;X;X9X9XL.B.L.M.C.C.C.C.C.C.C.C.G.C.C.M.C.C.C.C.M.C.C.C.",
"[.x.L.C.C.G.M.C.C.C.C.C.C.C.C.G.C.C.C.C.C.C.M.L.z.|.8X3X5X9X9X5X;X5X9X9X5X,X9X6XP.m.L.C.M.C.C.C.C.C.C.C.C.C.C.C.C.C.C.C.G.G.C.C.",
"|.b.C.M.v.v.C.C.C.G.C.M.C.C.C.C.C.G.m.v.v.v.M.F.b.].9X9X5X;X5X9X9X5X;X5X9X9X8X=XP.M.M.F.C.C.C.C.M.C.C.C.C.C.C.C.C.C.C.C.v.v.G.C.",
"[.x.L.B.u.u.M.C.C.C.C.C.C.M.C.C.C.C.v.e.u.u.M.L.N.].9X9X9X;X4X9X9X7X;X5X9X9X5X=XP.m.H.M.C.C.C.M.C.C.C.C.C.C.C.G.C.M.G.v.e.v.C.C.",
"|.b.L.M.g.l.M.C.M.C.C.C.C.C.C.C.C.C.v.v.u.u.M.L.b.].9X9X9X5X5X9X9X8X5X5X8X9X8X>XI.b.v.n.C.C.C.C.C.C.C.C.C.C.v.v.M.M.G.n.u.v.C.C.",
"[.N.L.M.u.u.C.C.G.C.C.C.C.C.C.C.C.C.G.L.g.u.M.L.b.|.8X;X5X9X9X,X;X7X9X9X;X,X9X6XI.b.e.v.L.C.C.C.C.C.C.C.C.G.l.r.M.C.C.M.r.b.G.C.",
"|.z.L.B.u.u.C.C.C.C.C.C.C.C.C.C.C.C.C.C.g.u.M.G.a.|.8X;X4X9X8X5X;X5X9X9X;X;X9X6XP.m.m.m.C.C.C.C.C.G.C.C.C.C.m.v.M.C.F.m.r.v.M.C.",
"|.b.L.M.u.g.C.G.C.C.C.C.C.C.C.C.C.C.C.C.g.u.M.M.* U.9X9X9X5X5X7X9X5X5X5X9X9X8X>XL.M.L.C.C.C.C.C.C.M.C.C.F.M.G.C.C.M.C.m.t.v.G.C.",
"[.z.L.C.u.u.G.G.M.C.C.M.F.C.C.M.C.C.C.C.g.t.M.F.k.U.9X9X9X;X5X9X9X9X;X5X9X9X5X=XP.B.L.B.C.C.C.C.C.C.M.F.M.M.M.M.M.F.G.m.r.v.C.C.",
"}.b.L.B.u.g.H.H.C.H.H.H.C.H.H.H.H.H.C.H.g.u.M.L.b.].9X9X8X;X5X9X9X5X5X5X9X9X8X=XP.B.C.C.C.C.H.C.H.H.H.C.H.H.H.H.H.H.H.m.t.v.G.C.",
"|.b.F.M.u.p.n v n n v v v v v v v v n v p.g.M.L.x.|.8X;X5X9X9X5X;X9X9X9X;X,X9X6XP.B.L.C.C.Z.x n n v n v v v v n n v b v y.b.M.H.",
"[.z.G.F.f.m 2 < 2 0 6 7 6 6 6 6 7 7 4 6 m g.M.L.z. X5X;X5X9X9X3X;X5X9X9X;X;X9X9XP.b.C.C.H.x 9 i 1 7 6 6 6 6 7 6 6 0 3 f y.c.F.F.",
"|.z.L.n.c.M K J A j =.-.-.-.-.-.-.-.-.;.w.u.n.L.N.}.9X8X7X8X5X7X9X7X5X5X9X8X9X>XP.M.L.C.H.b i I g ;.-.-.-.-.-.-.-.-.-.>.u.v.C.M.",
"|.N.H.M.f.i.R U H 0.} +.@.X.O.@.#.#... .[ u.M.G.b.].9X9X7X;X5X9X9X5X;X5X9X9X5X=XP.B.F.C.H.b P T ^ %.o.+.o. .@.#.#.#.| ` r.v.L.C.",
"[.z.G.F.f.i.R I H :.+.%.' 4.:.' %.$.7.<.w.g.n.G.N.{.8X9X9X;X3X9X9X5X;X5X9X9X5X=XP.B.L.M.H.( P H Q ' %.%.7.<.] $.%.' 2.5.r.v.M.C.",
"[.x.G.M.f.i.R U D -. .o._ Y Q +.$.@.<.d i.f.F.G.z.|.8X5X5X9X8X5X5X5X9X9X5X5X9X6XL.M.L.M.H.( P H Q %.o.} :.p 8.#.$.] i E y.b.C.C.",
"|.x.L.F.f.i.U U Y l 3.3.3.R l ' %.#.<.F i.f.F.L.z. X8X;X5X9X9X3X;X5X9X9X;X;X9X6XP.B.L.M.v.b P T W 2.3.3.l F 7.+.$.' L / u.v.L.C.",
"[.d.M.z.: m R I I Y G G K S l #.@. .2.D m > z.B.d.{.8X5X5X7X9X5X5X7X9X5X5X3X9X6XC.h.M.h.* x P U Y G D G I F 7. .o.' W / * a.B.N.",
"+X[.oXOXoX/.R I U U U U W I Q 3.3.3.l S /..XOXOX[.XX9X9X9X;X3X9X9X8X;X5X9X9X5X;XoX@X@X[.[.E.i ~ U U U I U U 1.3.4.4.i R.oXoX.X[.",
"4X;X8X9X9X%XS S R U U U R I I G G F F I #X9X9X9X4X;X8X9X9X;X5X9X9X7X;X5X9X9X5X;X9X9X9X4X8X~.w T I I U U U Y I D F T 5 W.9X9X4X4X",
"8X7X7X5X9X-X0.1.Y U U U I I U U R W I I $X9X5X5X8X6X6X6X7X9X5X7X8X7X5X7X5X7X5X9X5X5X5X8X7X^.a ~ U U U U U U U W U ! *.q.7X7X8X6X",
"8X9X8X;X5X*XO.6.H U I U U U U U U U I I 1X9X-X4X9X9X5X-X5X9X9X3X-X7X9X9X;X;X9X9X5X;X5X9X9X~.a ~ I I I U U U U U F ^ X.).;X5X9X9X",
"8X9X9X2X5X-X#.8.Y U I I I I I R U U K U %X9X;X5X9X9X5X3X5X9X9X5X3X7X9X9X,X3X9X9X7X3X5X9X9X!.a ~ U U U U U U U U G ^ _ _.5X5X9X9X",
"5X,X5X9X9X*X@.7.F U U R Y U R R U R G D #X9X9X9X5X3X9X9X9X;X3X9X9X6X;X5X9X9X5X;X9X9X9X3X5X!.s ~ I U I U U U U U G ^ _ _.9X9X;X3X",
"3X;X5X9X9X*X@.8.F R U J J Z J R U U 1.-.'.9X9X9X3X;X8X9X9X;X3X9X9X5X;X5X9X9X5X;X7X9X9X;X5X~.s ~ U U I Z Z Z K R G ^ _ _.9X8X;X;X",
"5X5X7X7X9X*X} 6.F U U i y y i D I G -.{ *X8X9X9X5X5X7X9X7X5X5X7X9X8X5X5X9X8X5X5X8X9X7X5X7X~.a ~ I U J y y y K W G ^ ) _.9X8X5X6X",
"8X9X9X;X5X-X4.k R I I Z y 2 g 0.,.D :...-X9X-X3X9X9X5X;X5X9X9X3X;X7X9X7X;X;X9X9X5X;X5X9X9X~.w ~ I U K y i y J ~ I ! 2.q.;X5X9X9X",
"7X9X9X;X5X1XT S R I R i u q h { 9.p :.X.2X9X-X5X9X9X5X;X5X9X9X5X;X9X9X9X;X3X9X9X5X;X5X9X9X~.w ~ U U K y y y J Y I R 5 E.;X4X9X9X",
"5X5X5X8X9X$XR K R U U Z u s h %.] 4.] _ &X9X7X9X5X5X9X9X7X5X5X9X8X7X5X5X9X9X5X3X9X9X8X5X7X~.w ~ U R K i y y J U I ~ s !.9X9X5X5X",
";X;X5X9X9X$XR Y R U U Z u q j +.o.O.X.#.&X7X9X9X;X;X9X9X9X;X;X9X9X5X;X5X9X9X5X;X5X9X9X;X5X~.w ~ U Y K y y y K R U ~ s !.9X9X;X;X",
"5X;X5X9X9X$XZ Z J J J f u 2 g ;.;.;.*.;.'.9X9X9X5X;X9X9X9X;X3X9X9X5X3X5X9X9X5X;X9X9X9X5X5X~.8 L J J Z u g 2 Z K J L 7 E.9X9X;X5X",
"9X9X7X;X7X$X2 0 2 < e 2 2 y 2 6 6 0 4 4 %X9X-X5X9X9X5X;X5X9X9X5X3X9X9X9X3X3X9X9X5X;X5X9X9XQ., y 1 1 2 2 r t 2 1 1 y , R.5X5X9X9X",
"8X9X9X;X5X;XC V V V V c z z c V V V V V >X9X;X;X9X9X5X;X5X9X9X5X;X7X9X9X;X;X9X9X5X;X;X9X9X/.z A.V V V z z z v V v A.B ^.;X5X9X9X",
"5X5X9X5X9X:XH.C.H.H.C.j.[ f.j.C.H.H.V.C.>X9X5X9X7X7X7X8X7X5X9X5X8X7X5X7X8X7X7X5X7X8X7X7X7X{.N.L.C.H.V.f.a.f.V.H.H.H.N.(.5X9X5X9X",
"5X;X5X9X9X:XM.M.F.M.F.l.t.t.u.F.F.F.M.M.XX8X9X9X3X;X9X9X8X;X3X9X9X8X-X5X9X9X5X;X7X9X9X,X4X{.b.F.M.F.n.t.t.t.m.G.C.H.z.(.9X9X;X;X",
"3X;X5X9X9X:XM.B.G.C.M.g.u.t.l.M.G.F.C.C.XX8X9X9X3X;X9X9X9X3X3X9X9X6X;X5X9X9X5X;X9X9X9X;X4X{.b.L.M.F.n.u.u.t.b.G.M.L.z.{.9X9X;X5X",
"8X9X8X5X8X>XG.M.C.C.C.l.t.t.u.G.n.v.b.C.>X9X5X5X9X7X5X5X5X9X8X6X3X8X9X7X3X5X9X9X5X5X5X9X9X{.b.G.M.G.m.t.u.t.m.G.v.n.b.T.5X5X9X9X",
"8X9X8X;X4X<XL.B.L.M.C.l.t.t.g.G.b.e.v.C.<X9X-X;X9X9X5X-X5X9X9X;X;X7X9X9X;X;X9X9X5X;X;X9X9X{.b.L.M.G.n.t.u.t.v.C.u.u.b.T.;X5X9X9X",
"7X9X7X,X8X>XL.M.L.C.M.l.u.t.g.M.M.v.m.C.>X9X5X5X9X9X5X5X6X8X9X5X5X5X9X8X5X5X9X9X5X5X5X9X9X{.b.L.M.C.m.t.u.r.v.G.v.m.N.T.5X8X9X9X",
"5X;X5X9X9X:XM.C.C.C.M.l.t.t.l.M.C.G.C.C.XX8X9X9X3X;X9X9X9X;X3X9X9X5X;X5X9X9X3X;X9X9X9X;X4X{.N.F.C.C.m.t.u.t.m.G.G.L.z.(.9X9X;X;X",
"3X;X5X9X9X:XM.B.C.M.C.l.t.t.g.C.C.C.C.G.XX8X9X9X3X;X9X9X9X-X3X9X9X7X;X5X9X9X3X;X9X9X9X;X4X{.N.G.M.G.m.t.u.t.m.G.M.L.z.(.9X9X;X;X",
"5X7X8X7X8X>XL.C.C.G.M.l.t.u.g.G.C.G.B.C.:X8X5X6X8X6X7X7X8X6X7X7X8X7X7X5X9X5X6X8X7X5X9X5X8X{.b.L.M.F.m.t.u.u.v.G.M.L.N.T.8X5X9X5X"
};
