/* XPM */
static char *_8737a13bdd3437cdef5640221f191669cYMi8UPdPG26wIq[] = {
/* columns rows colors chars-per-pixel */
"64 64 5 1 ",
"  c black",
". c #F6FF00",
"X c #0685D1",
"o c #42E4F8",
"O c white",
/* pixels */
"                                                                ",
"                                                                ",
"                                                                ",
"                                                                ",
"                                                                ",
"                                                                ",
"                                                                ",
"                                                                ",
"                            OOOOOOOOO                           ",
"                         OOOXXXXXXXXXOOO                        ",
"                       OOXXXXXXXXXXXXXXXOO                      ",
"                      OXXXXXXXXXXXXXXXXXXXO                     ",
"                     OXXXXXXXXXXXXXXXXXXXXXO                    ",
"                    OXXXXXXXXXXXXXXXXXXXXXXXO                   ",
"                   OXXXXXXXXXXXXXXXXXXXXXXXXXO                  ",
"                  OXXXXXXXXXXXXXXXXXXOOOOOOXXXO                 ",
"                 OXXXXOOOOOOXXXXXXXOOOOOOOOOOXXO                ",
"                 OXXOOOOOOOOOOXXXXOOOOOOOOOOOOXO                ",
"                OXXOOOOOOOOOOOOXXXOOOOOOOOOOOOXXO               ",
"                OXOOOO    OOOOOOXOOOOOO    OOOOXO               ",
"                OXOOOO    OOOOOOXOOOOOO    OOOOXO               ",
"               OXOOOO      OOOOOOOOOOO      OOOOXO              ",
"               OXOOOO      OOOOOOOOOOO      OOOOXO              ",
"               OXOOOO      OOOOOOOOOOO      OOOOXO              ",
"               OXOOOO      OOOOOOOOOOO      OOOOXO              ",
"               OXOOOO      OOOOOOOOOOO      OOOOXO              ",
"               OXOOOO      OOOOOOOOOOO      OOOXXO              ",
"               OXXOOOO    OOOOOOOOOOOOO    OOOOXXO              ",
"                OXOOOO    OOOOOOOOOOOOO    OOOXXO               ",
"                OXXOOOOOOOOOOOO...OOOOOOOOOOOOXXO               ",
"                OXXXOOOOOOOOOO.....OOOOOOOOOOXXXO               ",
"                 OXXXXOOOOOOXO.....OXOOOOOOXXXXO                ",
"                 OXXXXXXXXXXXOO...OOXXXXXXXXXXXO                ",
"                  OXXXXXXXXXXXXOOOXXXXXXXXXXXXO                 ",
"                   OXXXXXXXXXXXXXXXXXXXXXXXXXO                  ",
"                    OXXXXXXXXXXXXXXXXXXXXXXXO                   ",
"                     OXXXXXXXXXXXXXXXXXXXXXO                    ",
"                      OXXXXXXXXXXXXXXXXXXXO                     ",
"                     OXOOXXXXXXXXXXXXXXXOOXO                    ",
"                     OXXXOOOXXXXXXXXXOOOXXXO                    ",
"                    OXXXXXXXOOOOOOOOOXXXXXXOO                   ",
"                    OOXXXXXXXXXXXXXXXXXXXXXOO                   ",
"                   OoOOOOOXXXXXXXXXXXXXXOOOooO                  ",
"                   OoooooOOOXXXXXXXXXXOOOooooO                  ",
"                   OoooooooOOOOOOOOOOOOooooooO                  ",
"                   OoooooooooooooooooooooooooO                  ",
"                   OoooooooooooooooooooooooooO                  ",
"                   OoooooooOOOooooooOOOooooooO                  ",
"                   OooooooO   OooooO   OoooooO                  ",
"                    OoooooO   OooooO   OooooO                   ",
"                    OoooooO   OooooO   OooooO                   ",
"                    OOooooO   OooooO   OoooO                    ",
"                   OOOoooooOOOooooooOOOoooOOO                   ",
"                 OOO..OoooooooooooooooooooO.OO                  ",
"                 O.....OOoooooooooooooooOO...O                  ",
"                 O.......OoooooooooooooO......O                 ",
"                 OO......OOOOoooooooOOO.......O                 ",
"                  O......O   OOOOOOO OO........O                ",
"                  OOO...OO            OO.......O                ",
"                    OOOOO              OOO....OO                ",
"                                         OOOOOO                 ",
"                                                                ",
"                                                                ",
"                                                                "
};
