/* XPM */
static char *porte_bleu1700420478[] = {
/* columns rows colors chars-per-pixel */
"64 64 57 1 ",
"  c #004041",
". c #005A59",
"X c #015A59",
"o c #005B59",
"O c #006E6C",
"+ c #006E6D",
"@ c #016E6D",
"# c #006F6D",
"$ c #007270",
"% c #007370",
"& c #007271",
"* c #007675",
"= c #017675",
"- c #007A78",
"; c #007A79",
": c #017A79",
"> c #007B79",
", c #007E7D",
"< c #017E7D",
"1 c #007F7D",
"2 c #008784",
"3 c #008685",
"4 c #008785",
"5 c #018785",
"6 c #008F8C",
"7 c #008E8D",
"8 c #008F8D",
"9 c #018F8D",
"0 c #009A98",
"q c #009B98",
"w c #009A99",
"e c #009B99",
"r c #019B99",
"t c #009F9D",
"y c #00A7A4",
"u c #00A6A5",
"i c #00A7A5",
"p c #01A7A5",
"a c #00ABA8",
"s c #00AAA9",
"d c #00ABA9",
"f c #00B2B1",
"g c #00B3B1",
"h c #00B7B6",
"j c #01B7B6",
"k c #00B7B7",
"l c #00C2C1",
"z c #00C3C1",
"x c #01C3C1",
"c c #52CBC9",
"v c #88DEDD",
"b c #89DEDD",
"n c #88DFDD",
"m c #ABEAE9",
"M c #D1F5F5",
"N c gray99",
"B c #FCFDFC",
/* pixels */
"veicBv71ddjjdjjljljljlxxxxxxkxkxklkzkzhkkkkhhjjjjjjjhhhhhcBb71pn",
"veecnp71ddddjdjjjjjjljxgxxxxxxxxxxzkzhzhxkzkzjjjjjjjhhhhhcbp71kn",
"v8eep71diidddddjdjdjkkkzkzkxxxxxxlxxzzzzlxkxjzjzjzkzhhkkhhp61adv",
"v777rrtpiiii+ddd+djd#kkh#kxk#kxx#lxx#zzz#xxx#zzj#kzj#kzkzhhjkkkv",
"v8878rrttpppiidddddjdkdkkkkkkljxkxxxzxxxxxxxxxxxzzxxxxkxhzhzkzjb",
"v887888rrtt&&&&&&&&&&&&&%#&&&&%%&&%%#%&%&&&&&%%%%#&&&Mxxzzzkzkzb",
"v2888788rrr&.....ooo%&%&%%&&&&&#&%#%&&&&&&&&&&%#&%&&cMxxzzzzzzzb",
"v228ggp877r&ottedddpddddddkdkdkkkkkkkkxkxkxkxlzzxxxxvMxxzzccpazb",
"c,2gvl7&777&orrttdedeydddddddjdjdjdjdjjjjxkxhzjzzzzzbMzzzcBb71zc",
"c,,rli7&877&o7rrtttedddpddddddddjdjjjjjjjjjkhhzjzhzzbMzzzcbp71zc",
"c,,,e7&&288#or7rrrtttdeprpdddddddjdjdjdjpjjjkhkjjzhzbMzzzhp61pzc",
"c,,,&&&,828#o88rrrqrttdedddpddddddddjdjdkjjjkkkjjjhhbMzhzzzzxzzc",
"c:,,,,22,22#o7778r6rrrttrdrdepdddddddddjdjdjdjjjjjjjbMkzjzhzxxxc",
"c::,,,,2322+o78888q8rrrrttdrdddpddddddddjdjdjjjjjjjjbMhhjhzhxkxc",
"c:::,,3,222+o888887rrr70eettedrdrpdddddddddjdjjkajjjbMjjjjkkkxkc",
"l::2e07,,22#o2828888r7eeeeerttdrdddpddddddddddjdjjjjbMjjjaccpakx",
"l*:rkp8&,,2+.23929777r7e8rrrrtttrdrdrpdddddddddjajdjnMdkhcBb7>kz",
"l*:7pp:o,,,+.23392999977rrrrrrrtttdrdddpddddaddaadjdnMkkhcbp61kz",
"l**&:&&o:,,..2,3293928778r8r7rrrrtttrdrdrpddddddddddnMdjpkp61ahz",
"l**+ooo#,:,o.,232293888888rrrrrrqrrtttdrdddpddddddddnMjdkkkhjhhz",
"l&***::::1:o.,12<2222828888r7e7e8rrrttttrdrdrpddddddvMddakakajdx",
"l&***:::::1o.,,,222322888888e7e0rrrrrrttttdrdddpddddvMddddddjakx",
"l#&****::::..,,,<2<3332828777r9u7r7rrrrrttttrdrdrpddvMddddddakax",
"l#&,e72**::..,,,<<33372282777799rrrrrrrrrrttttdrdddpcMddddccpddx",
"l##ekr7&*::o.,,,<<<2,332292999998r8r8rrrrrrttrttededcMdddcBv71dl",
"l&+7r7&o**:oo:,,<<<<33332292999988r8rrrrrrrrrtttttdecmdidcnp81dl",
"l*&&&&..*::..,:1<<<<,2,252395999888r8r8rrrrrrrrtttttcmedrjp81ddx",
"l*&#...+**:.o:,:<<<<,,2,55339599888887r8r8rrrrrqetttcmdrdddpdddx",
"l>*&##&****o.::1,,,,,,,2<55555592888888r8rrrrrrrrrrtcmttrdrdeidl",
"k:*&##%%***o.:::,::3,,,,5<55525587888688r8r8rr0rrrrrcmtrttdrddpj",
"k::*&#+#***o.::::,:,,,,,<5<55555282828888r8rrrrrrrrrcmrtttttrdrj",
"k::171++&**o.*::::,:,,,,<<5<5555228288867888r7rrrrrrcmrrrdccpdpj",
"k::8ie,&&&=..==::::1:,,,,,,2>3,32259595988888r8r8rrrlvrrrcBn71tk",
"k,:8e7&.+&=..===::::,:,,,,,,233322559588888888r8rrrrxvrrrcnp7,rk",
"k,:&&#..++%o.&==*::::,:,,1,,,2,2<55537282888888r8r8rxvrrrrp7,dtk",
"g,,+.o.+++#oo*==:*::::,::,,,,,1,555537928886888888r8xvrrrrrrrrqk",
"g,,::**&+&@..===*:*::::,:111,:12,3<23328595699998r8rxvrrrrrrrrrk",
"g,,:::**&+@..===**:*::::1:,,,,11,,223322557799998888xcrrrrrrrrqk",
"g,,,::==%#@..===***::::::,:,,,1133<2<2,2555959998888xc8rrr8rrqqk",
"g,,2r8:%%&@..&&=****::::::,:1111,><:7222555595998888xc88rdllp7qk",
"g2,eje7&=&&..+&=***%*::::::1:111,,,2,333>23259598888xc8r8xvc81rk",
"f2,7e7&.*&&..+&&******::::::1:11,,,,,,33225555958888kc886kcc81qk",
"f33&&&..**&..++&&******::::::1:>1,,,,2,2<5:555592888kc8888p8167k",
"f33&ooo#**&..+++&*******:>::::1:,1,,,,,,3<5555558266jc888888r67k",
"f23,1,:::**..++#&&*****:*:::::>>:,,,,,,2<533:3552959kz6888887r7k",
"f33311:::**o.&++#&&*****:*::::>:,:,,,,,,<<5<33332555kx678888886k",
"f222111:::=..&#+##&******:*::::::,:,,,,,<5<533,35555gx888868886k",
"j222r77,::=..&&###&&******:*::::::,:,,,,<<<<3,235555gx8288jkp66k",
"g22tkr7&::*o.&#%&++&&*=====:*::::::1:,,,,,,3,2,2<555il295jvl7,7j",
"g227r7&o:::..&%%@@++&======*:*::::::,:,,,,,,,,2,5555ij257jli2&7j",
"f92@#%..:::..**&&@##&+======*::::::::,:,,,,,,3,2,2<5pj3727d71&8j",
"f93@...@1::.+777222222227787888777777777999999eeeeidij53227&&88j",
"j72223,,1::o2rr7777777777788rrrrrrrpiiiippppiiiiigjjjj233229788k",
"g72237,,,1::*=*&&&####&@******:::::::::,,:,,,,,,1,2,22225223288j",
"g72232,,,,:: *** &%@ #@& *** **: ::: ::: ,:3 ,,, 2,2 3,25522528j",
"g7810e,,,,:::***&%%###@@&*****:*::::::::::,*,,,,111,2,3355id922j",
"g77elg,#,,,:::***&&&##@@%@**====*:*::::::::,:,,,,,33,2,2<scj7&2j",
"g77eg2+X,,,:::***&&&&#@@##&*====**:*::::::::,:,,,,:,,,2,3pjd2&2j",
"g77,++XX,,,1:::***&&&#++#+&*====***:*::::::::,:,,,,,,2,2,333&*2j",
"g772..X7,,,,:::***&&&&@@++&#====****:*::::::::,:,,,,,,,,3,&&&22j",
"k8822223,,,,:::****&&&+#++++##==*****:*::::::::,:,,,,,,,,2,3232j",
"k8882223,,,,:::***:&&&&#++@&#&%=******:*::::::::,:,,,,,,2,33232j",
"k88822332,1,1::***:=&&##@@@@##&********:*::::::::,:,,,,,,,,3,32j",
"j88893332,1111:*====&&&&@@@@##&****:%***:*::::::::,:,,,,,,3,3,3j"
};
