/* XPM */
static char *result[] = {
/* columns rows colors chars-per-pixel */
"64 64 223 2 ",
"   c #0D0605",
".  c #0C0907",
"X  c #150907",
"o  c #160A07",
"O  c #15100D",
"+  c #1C110C",
"@  c #161311",
"#  c #230E08",
"$  c #25120B",
"%  c #2C160C",
"&  c #301A0E",
"*  c #2B1911",
"=  c #281814",
"-  c #341C12",
";  c #3B1E14",
":  c #342017",
">  c #3A2215",
",  c #3C241A",
"<  c #332824",
"1  c #3E322E",
"2  c #400F08",
"3  c #49140B",
"4  c #4D1B0C",
"5  c #55170C",
"6  c #521F0C",
"7  c #581F16",
"8  c #58240A",
"9  c #4B2718",
"0  c #432B1B",
"q  c #532315",
"w  c #542811",
"e  c #5A2A13",
"r  c #5D2915",
"t  c #552C1C",
"y  c #4E301E",
"u  c #56311E",
"i  c #5B321B",
"p  c #662809",
"a  c #722E01",
"s  c #6A310E",
"d  c #612416",
"f  c #662C17",
"g  c #702B18",
"h  c #64351D",
"j  c #693618",
"k  c #6D341B",
"l  c #743717",
"z  c #783C13",
"x  c #71341C",
"c  c #4A2C20",
"v  c #5D2B23",
"b  c #48332A",
"n  c #5A3326",
"m  c #5D3D2E",
"M  c #662F20",
"N  c #772D25",
"B  c #643523",
"V  c #673926",
"C  c #6B3B26",
"Z  c #673E2B",
"A  c #793A25",
"S  c #613F30",
"D  c #79421C",
"F  c #56453A",
"G  c #6E4224",
"H  c #694726",
"J  c #66442E",
"K  c #7B4323",
"L  c #784629",
"P  c #7D532E",
"I  c #654432",
"U  c #744633",
"Y  c #774C38",
"T  c #78573B",
"R  c #524346",
"E  c #5F5A5A",
"W  c #66574F",
"Q  c #785545",
"!  c #755A48",
"~  c #7C5C4C",
"^  c #6B5A55",
"/  c #665F5D",
"(  c #6E615A",
")  c #7D6659",
"_  c #685F60",
"`  c #766964",
"'  c #786E71",
"]  c #823E2C",
"[  c #84481A",
"{  c #93561C",
"}  c #824723",
"|  c #824B2D",
" . c #884E2E",
".. c #865223",
"X. c #83522C",
"o. c #995B27",
"O. c #894B33",
"+. c #8E5333",
"@. c #865B37",
"#. c #815338",
"$. c #8A5A3A",
"%. c #945D38",
"&. c #8B6339",
"*. c #93623C",
"=. c #9C653D",
"-. c #A2682F",
";. c #A46A35",
":. c #AA7238",
">. c #885944",
",. c #846244",
"<. c #8B654E",
"1. c #876A4C",
"2. c #976447",
"3. c #9E6C45",
"4. c #9D734B",
"5. c #896954",
"6. c #876659",
"7. c #966B53",
"8. c #8E7054",
"9. c #89755C",
"0. c #957659",
"q. c #A16C44",
"w. c #AB7A44",
"e. c #A97A4D",
"r. c #B47E47",
"t. c #A37654",
"y. c #A87A52",
"u. c #A87E5B",
"i. c #8F7364",
"p. c #8C756B",
"a. c #9B7867",
"s. c #847A76",
"d. c #987E74",
"f. c #A17B64",
"g. c #AD875E",
"h. c #B48259",
"j. c #BA9159",
"k. c #978063",
"l. c #9B8173",
"z. c #978378",
"x. c #A78665",
"c. c #AD866A",
"v. c #B88865",
"b. c #B08F6F",
"n. c #A68776",
"m. c #B69875",
"M. c #C49F75",
"N. c #C2A376",
"B. c #8D8E8D",
"V. c #928C8C",
"C. c #9F958E",
"Z. c #A68E84",
"A. c #AC978A",
"S. c #AC948D",
"D. c #B59A86",
"F. c #AD9A94",
"G. c #B39D94",
"H. c #B9A48A",
"J. c #AAA19B",
"K. c #B9A595",
"L. c #B5AB9D",
"P. c #B5AAA1",
"I. c #B7A9A5",
"U. c #B1B0AF",
"Y. c #C4A788",
"T. c #C7AA97",
"R. c #C7B59B",
"E. c #C7B1A4",
"W. c #CAB4AA",
"Q. c #C7B8A9",
"!. c #D1B6A3",
"~. c #D4BFA7",
"^. c #C4BBB2",
"/. c #CDBDB1",
"(. c #C7BFB8",
"). c #D5C0AC",
"_. c #D8C2A8",
"`. c #CDC2B9",
"'. c #D2C2B3",
"]. c #D3C5BB",
"[. c #D7C9B9",
"{. c #E1CEBF",
"}. c #CDCAC5",
"|. c #D7CBC4",
" X c #DACDC4",
".X c #DCD2C6",
"XX c #D6D3CB",
"oX c #D5D5CB",
"OX c #DBD5CE",
"+X c #DAD5D1",
"@X c #D8D5D5",
"#X c #DBD8D3",
"$X c #E2D1C4",
"%X c #E9D0C4",
"&X c #E3D5CB",
"*X c #E3DBCD",
"=X c #E9D8CD",
"-X c #F1D9CA",
";X c #E2DCD4",
":X c #EADFD8",
">X c #DFE1D8",
",X c #F1E3CF",
"<X c #E8E3D7",
"1X c #E2E1DA",
"2X c #EBE3DD",
"3X c #F2EADF",
"4X c #E6E5E2",
"5X c #EBE6E1",
"6X c #EEEBE4",
"7X c #EDECEA",
"8X c #F2ECE4",
"9X c #F8EFE7",
"0X c #F1EDEA",
"qX c #F6F1E6",
"wX c #FAF0E5",
"eX c #F4F2ED",
"rX c #FAF5ED",
"tX c #FBF9ED",
"yX c #F5F4F2",
"uX c #FAF6F3",
"iX c #F5F9F4",
"pX c #000000",
"aX c #000000",
/* pixels */
"aXaXaXaXaXaXaXaXaXaXaXaXaXaXaXaXaXaXaXaXaXaXaXaXaXaXaXaXaXaXaXaXaXaXaXaXaXaXaXaXaXaXaXaXaXaXaXaXaXaXaXaXaXaXaXaXaXaXaXaXaXaXaXaX",
"aXaXaXaXaXaXaXaXaXaXaXaXaXaXaXaXaXaXaXaXaXaXaXaXaXaXaXaXaXaXaXaXaXaXaXaXaXaXaXaXaXaXaXaXaXaXaXaXaXaXaXaXaXaXaXaXaXaXaXaXaXaXaXaX",
"aXaXaXaXaXaXaXaXaXaXaXaXaXaXaXaXaXaXaXaXaXaXaXaXaXaXaXaXaXaXaXaXaXaXaXaXaXaXaXaXaXaXaXaXaXaXaXaXaXaXaXaXaXaXaXaXpXaXaXaXaXaXaXaX",
"aXaXaXaXaXaXaXaXaXaXaXpXaXaXaXaXaXaXaXaXaXaXaXaXaXaXaXaXaXaXaXaXaXaXaXaXaXaXaXaXaXaXaXaXaXaXaXaXaXaXaXaXaXaXaXaXaXaXaXaXaXaXaXaX",
"aXaXaXaXaXaXiXeX2X:X2X+XaXaXaXaXaXaXaXaXaXaXaXaXaXaXaXaXaXaXaXaXaXaXaXaXaXaXaXaXaXaXaXaXaXaXaXaXaXaXaXaXaXaXaXaXaXaXaXaXaXaXaXaX",
"aXaXaXaXaXrX*Xn.9.F p.` 4XpXaXaXaXaXaXaXaXaXaXaXaXaXaXaXaXaXaXaXaXaXaXaXaXaXaXaXaXaXaXaXaXaXaXaXaXaXaXaXaXaXaXaXaXaXaXaXaXaXaXaX",
"aXaXaXaXaX.Xk.8.T I % * ' 4XaXaXaXaXaXaXaXaXaXaXaXaXaXaXaXaXaXaXaXaXaXaXaXaXaXaXaXaXaXaXaXaXaXaXaXaXaXaXaXaXaXaXaXaXaXaXaXaXaXaX",
"aXaXaXaXaX.X9.&.H J > - = s.pXaXaXaXaXaXaXaXaXaXaXaXaXaXaXaXaXaXaXaXaXaXaXaXaXaXaXaXaXaXaXaXaXaXaXaXaXaXaXaXaXaXaXaXaXaXaXaXaXaX",
"aXaXaXaXaXqXP.1.J y # o * F pXaXaXaXaXaXaXaXaXaXaXaXaXaXaXaXaXaXaXaXaXaXaXaXaXaXaXaXaXaXaXaXaXaXaXaXaXaXaXaXaXaXaXaXaXaXaXaXaXaX",
"aXaXaXaXaXaXpXP.` 1 O X $ : @XpXaXaXaXaXaXaXaXaXaXaXaXaXaXaXaXaXaXaXaXaXaXaXaXaXaXaXaXaXaXaXaXaXaXaXaXaXaXaXaXaXaXaXaXaXaXaXaXaX",
"aXaXaXaXaXaXaXpX7XB..   $ - V.aXaXaXaXaXaXaXaXaXaXaXaXaXaXaXaXaXaXaXaXaXaXaXaXaXaXaXaXaXaXaXaXaXaXaXaXaXaXaXaXaXaXaXaXaXaXaXaXaX",
"aXaXaXaXaXaXaXaXaX}.. . $ > E @XaXaXaXaXaXaXaXaXaXaXaXaXaXaXaXaXaXaXaXaXaXaXaXaXaXaXaXaXaXaXaXaXaXaXaXaXaXaXaXaXaXaXaXaXaXaXaXaX",
"aXaXaXaXaXaXaXaXaXiX@   - , = B.aXaXaXaXaXaXaXaXaXaXaXaXaXaXaXaXaXaXaXaXaXaXaXaXaXaXaXaXaXaXaXaXaXaXaXaXaXaXaXaXaXaXaXaXaXaXaXaX",
"aXaXaXaXaXaXaXaXaXaXE   ; c . ' aXaXaXaXaXaXaXaXaXaXaXaXaXaXaXaXaXaXaXaXaXaXaXaXaXaXaXaXaXaXaXaXaXaXaXaXaXaXaXaXaXaXaXaXaXaXaXaX",
"aXaXaXaXaXaXaXaXaXaXU.O - - o R aXaXaXaXaXaXaXaXaXaXaXaXaXaXaXaXaXaXaXaXaXaXaXaXaXaXaXaXaXaXaXaXaXaXaXaXaXaXaXaXaXaXaXaXaXaXaXaX",
"aXaXaXaXaXaXaXaXaXaXU.< ; * + < pXaXaXaXaXaXaXaXaXaXaXaXaXaXaXaXaXaXaXaXaXaXaXaXaXaXaXaXaXaXaXaXaXaXaXaXaXaXaXaXaXaXaXaXaXaXaXaX",
"aXaXaXaXaXaXaXaXaXaX@X` > * + : iXaXaXaXaXaXaXaXaXaXaXaXaXaXaXaXaXaXaXaXaXaXaXaXaXaXaXaXaXaXaXaXaXaXaXaXaXaXaXaXaXaXaXaXaXaXaXaX",
"aXaXaXaXaXaXaXaXaXaXuXJ.0 > + * oXpXaXaXaXaXaXaXaXaXaXaXaXaXaXaXaXaXaXaXaXaXaXaXaXaXaXaXaXaXaXaXaXaXaXaXaXaXaXaXaXaXaXaXaXaXaXaX",
"aXaXaXaXaXaXaXaXaXaXaXU.c > o % P.aXaXaXaXaXaXaXaXaXaXaXaXaXaXaXaXaXaXaXaXaXaXaXaXaXaXaXaXaXaXaXaXaXaXaXaXaXaXaXaXaXaXaXaXaXaXaX",
"aXaXaXaXaXaXaXaXaXaXaX}., > $ > F.pXaXaXaXaXaXaXaXaXaXaXaXaXaXaXaXaXaXaXaXaXaXaXaXaXaXaXaXaXaXaXaXaXaXaXaXaXaXaXaXaXaXaXaXaXaXaX",
"aXaXaXaXaXaXaXaXaXaXaX0X: & > u 6.`.aXaXaXaXaXaXaXaXaXaXaXaXaXaXaXaXaXaXaXaXaXaXaXaXaXaXaXaXaXaXaXaXaXaXaXaXaXaXaXaXaXaXaXaXaXaX",
"aXaXaXaXaXaXaXaXaXaXaXpX& % 9 j T L.aXaXaXaXaXaXaXaXaXaXaXaXaXaXaXaXaXaXaXaXaXaXaXaXaXaXaXaXaXaXaXaXaXaXaXaXaXaXaXaXaXaXaXaXaXaX",
"aXaXaXaXaXaXaXaXaXaXaXpX& > 9 H ,.z.aXaXaXaXaXaXaXaXaXaXaXaXaXaXaXaXaXaXaXaXaXaXaXaXaXaXaXaXaXaXaXaXaXaXaXaXaXaXaXaXaXaXaXaXaXaX",
"aXaXaXaXaXaXaXaXaXaXaXaX( > i G &.! aXaXaXaXaXaXaXaXaXaXaXaXaXaXaXaXaXaXaXaXaXaXaXaXaXaXaXaXaXaXaXaXaXaXaXaXaXaXaXaXaXaXaXaXaXaX",
"aXaXaXaXaXaXaXaXaXaXaXaXC.> G G V J iXaXaXaXaXaXaXaXaXaXaXaXaXaXaXaXaXaXaXaXaXaXaXaXaXaXaXaXaXaXaXaXaXaXaXaXaXaXaXaXaXaXaXaXaXaX",
"aXaXaXaXaXaXaXaXaXaXaXaX`.) P P n u pXaXaXaXaXaXaXaXaXaXaXaXaXaXaXaXaXaXaXaXaXaXaXaXaXaXaXaXaXaXaXaXaXaXaXaXaXaXaXaXaXaXaXaXaXaX",
"aXaXaXaXaXaXaXaXaXaXaXaXiX.X&.X.i 9 aXaXaXaXaXaXaXaXaXaXaXaXaXaXaXaXaXaXaXaXaXaXaXaXaXaXaXaXaXaXaXaXaXaXaXaXaXaXaXaXaXaXaXaXaXaX",
"aXaXaXaXaXaXaXaXaXaXaXaXaXpXH.*.h 9 7XiXaXaXaXaXaXaXaXaXaXaXaXaXaXaXaXaXaXaXaXaXaXaXaXaXaXaXaXaXaXaXaXaXaXaXaXaXaXaXaXaXaXaXaXaX",
"aXaXaXaXaXaXaXaXaXaXaXaXaXaX3XR.L w I.uXaXaXaXaXaXaXaXaXaXaXaXaXaXaXaXaXaXaXaXaXaXaXaXaXaXaXaXaXaXaXaXaXaXaXaXaXaXaXaXaXaXaXaXaX",
"aXaXaXaXaXaXaXaXaXaXaXaXaXaXaXtX&.i t a.uXuXaXaXaXaXaXaXaXaXaXaXaXaXaXaXaXaXaXaXaXaXaXaXaXaXaXaXaXaXaXaXaXaXaXaXaXaXaXaXaXaXaXaX",
"aXaXaXaXaXaXaXaXaXaXaXaXaXaXaXaXm.P e h n n S.%XyXuXpXaXaXaXaXaXaXaXaXaXaXaXaXaXaXaXaXaXaXaXaXaXaXaXaXaXaXaXaXaXaXaXaXaXaXaXaXaX",
"aXaXaXaXaXaXaXaXaXaXaXaXaXaXaXaX_.3.i n 2 3 7 d M f.,XiXpXaXaXaXaXaXaXaXaXaXaXaXaXaXaXaXaXaXaXaXaXaXaXaXaXaXaXaXaXaXaXaXaXaXaXaX",
"aXaXaXaXaXaXaXaXaXaXaXaXaXaXaXaX).g.h M 3 3 5 3 3 d g N Y -XwXpXuXpXpXaXiXaXaXpXaXpXaXaXaXaXaXaXaXaXaXaXaXaXaXaXaXaXaXaXaXaXaXaX",
"aXaXaXaXaXaXaXaXaXaXaXaXaXaXaXaX`.x.h i Z V 7 q 7 4 6 g ] x O.O.k q v 6./.0X0X0XeXeXyXiXpXaXaXaXaXaXpXaXaXaXaXaXaXaXaXaXaXaXaXaX",
"aXaXaXaXaXaXaXaXaXaXaXaXaXaXaXaX].x.$.U U V B U M d 5 ] N g A x K l p 8 f 6 6 ; > F ! 9. X2X8XeX7XyXeXaXaXaXaXaXaXaXaXaXaXaXaXaX",
"aXaXaXaXaXaXaXaXaXaXaXaXaXaXaXaXtXK.X.A Y B A U G A k O.l f j | %.O.} =.q.3.z q 4 i ..D ..[ X.<.( `.^.pXaXiXaXaXaXaXaXaXaXaXaXaX",
"aXaXaXaXaXaXaXaXaXaXaXaXaXaXaXaXaX3Xk.! h 6 L >.2.| O. .3.O.O.%.=.=.2.;.w.;.o.r 4 h -.o.{ { [ a t Z T.wXaXaXaXaXaXaXaXaXaXaXaXaX",
"aXaXaXaXaXaXaXaXaXaXaXaXaXaXaXaXpXaXtX=Xr r >.f.D.u.h.*.3.y.t.e.r.u.e.w.w.:.-.l j D g.:.:.-.{ D p p =.D.1XyXaXaXaXaXaXaXaXaXaXaX",
"aXaXaXaXaXaXaXaXaXaXaXaXaXaXaXaXaXaXaXE.k L ~.tXpX$X'.K.D.c.c.m.M.b.g.j.j.r.;.+.K *.N.N.h.w.4.4.h s z s ! I.XX0XaXaXaXaXaXaXaXaX",
"aXaXaXaXaXaXaXaXaXaXaXaXaXaXaXaXaXaXpXK.K T ].aXaXaXaXaXaXtXuX X_.T.Y.N.N.h.3.+.P @.).R.0.1.8.8.C s p p t Z 9 Z.yXaXaXaXaXaXaXaX",
"aXaXaXaXaXaXaXaXaXaXaXaXaXaXaXaXaXaXyXD.D #. XaXaXaXaXaXaXaXaXiXpXtXtX$X/.Y.=.K z $.K.D.~ T <.8.1.@.T ,.i.n.c ! 2XaXaXaXaXaXaXaX",
"aXaXaXaXaXaXaXaXaXaXaXaXaXaXaXaXaXaXOXu.4.7. XaXaXaXaXaXaXaXiXaXaXaXaXaXaX%X3.[ 2.H.Q.F.i.6.I Q 5.9.).$XP.Q.L.|.pXaXaXaXaXaXaXaX",
"aXaXaXaXaXaXaXaXaXaXaXaXaXaXaXaXaXaXQ.%.~.n.'.yXaXaXaXaXaXaXaXaXaXaXaXaXaX8Xb.[ R.iXpXpX7X(.z.z.J. XrXpXaXaXaXpXaXaXaXaXaXaXaXaX",
"aXaXaXaXaXaXaXaXaXaXaXaXaXaXaXaXaXaXD.L #Xl.W.0XaXaXaXaXaXaXaXaXaXaXaXaXaXuX!.D qXaXaXaXiXaXaXiXaXaXaXaXaXaXaXaXaXaXaXaXaXaXaXaX",
"aXaXaXaXaXaXaXaXaXaXaXaXaXaXaXaXaXaXa.Z aXp.K.6XaXaXaXaXaXaXaXaXaXaXaXaXaXaX&XD pXaXaXaXaXaXaXaXaXaXaXaXaXaXaXaXaXaXaXaXaXaXaXaX",
"aXaXaXaXaXaXaXaXaXaXaXaXaXaXaXaXaXaXU ! pXd.S.6XaXaXaXaXaXaXaXaXaXaXaXaXaXyX'.T aXaXaXaXaXaXaXaXaXaXaXaXaXaXaXaXaXaXaXaXaXaXaXaX",
"aXaXaXaXaXaXaXaXaXaXaXaXaXaXaXaXaXuXq F.pXS.d.2XaXaXaXaXaXaXaXaXaXaXaXaXaX2X) ~ iXaXaXaXaXaXaXaXaXaXaXaXaXaXaXaXaXaXaXaXaXaXaXaX",
"aXaXaXaXaXaXaXaXaXaXaXaXaXaXaXaXaX;XS ^.aXW.6.;XaXaXaXaXaXaXaXaXaXaXaXaXaXU.c m aXaXaXaXaXaXaXaXaXaXaXaXaXaXaXaXaXaXaXaXaXaXaXaX",
"aXaXaXaXaXaXaXaXaXaXaXaXaXaXaXaXaXL.Z.5XaX:X<.OXaXaXaXaXaXaXaXaXaXaXaXaXaX^ Z n aXaXaXaXaXaXaXaXaXaXaXaXaXaXaXaXaXaXaXaXaXaXaXaX",
"aXaXaXaXaXaXaXaXaXaXaXaXaXaXaXaXaXZ.`.pXaXuX<.#XaXaXaXaXaXaXaXaXaXaXaXaXaX- ! C pXaXaXaXaXaXaXaXaXaXaXaXaXaXaXaXaXaXaXaXaXaXaXaX",
"aXaXaXaXaXaXaXaXaXaXaXaXaXaXaXaX#Xz.5XaXaXpX7.:XaXaXaXaXaXaXaXaXaXaXaXaXyXb A.Y aXaXaXaXaXaXaXaXaXaXaXaXaXaXaXaXaXaXaXaXaXaXaXaX",
"aXaXaXaXaXaXaXaXaXaXaXaXaXaXaXaXQ.l.aXaXaXuX7.;XpXaXaXaXaXaXaXaXaXaXaXaX4XW ;XZ aXaXaXaXaXaXaXaXaXaXaXaXaXaXaXaXaXaXaXaXaXaXaXaX",
"aXaXaXaXaXaXaXaXaXaXaXaXaXaXaXaXG.E.aXaXaXpX7.%XaXaXaXaXaXaXaXaXaXaXaXaXXXJ.0XZ aXaXaXaXaXaXaXaXaXaXaXaXaXaXaXaXaXaXaXaXaXaXaXaX",
"aXaXaXaXaXaXaXaXaXaXaXaXaXaXaXaXi.[.aXaXaXpX2.{.aXaXaXaXaXaXaXaXaXaXaX7X_ 2XpXQ pXaXaXaXaXaXaXaXaXaXaXaXaXaXaXaXaXaXaXaXaXaXaXaX",
"aXaXaXaXaXaXaXaXaXaXaXaXaXaXaX4Xz.|.aXaXpXaXt.{.iXaXaXaXaXaXaXaXaXaXaXXX< aXaXn.pXaXaXaXaXaXaXaXaXaXaXaXaXaXaXaXaXaXaXaXaXaXaXaX",
"aXaXaXaXaXaXaXaXaXaXaXaXaXaXpXL.T.:XaXaXaXaXv.!.aXaXaXaXaXaXaXaXaXaXaX^ b aXpXA.pXaXaXaXaXaXaXaXaXaXaXaXaXaXaXaXaXaXaXaXaXaXaXaX",
"aXaXaXaXaXaXaXaXaXaXaXaXaXaX'.~ !.uXaXaXaXaXv.0.aXaXaXaXaXaXaXaXaXaXaX< 6.pXaXW.pXaXaXaXaXaXaXaXaXaXaXaXaXaXaXaXaXaXaXaXaXaXaXaX",
"aXaXaXaXaXaXaXaXaXaXaXaXaXaXD.i &XpXaXaXaXpXc.#.pXaXaXaXaXaXaXaXaXaX0Xb +XaXaX[.|.aXaXaXaXaXaXaXaXaXaXaXaXaXaXaXaXaXaXaXaXaXaXaX",
"aXaXaXaXaXaXaXaXaXaXaXaXaXaXm 9 qXpXaXaXaXaXY.K OXaXaXaXaXaXaXaXaXiX_ b uXaXaX.XW 0XaXaXaXaXaXaXaXaXaXaXaXaXaXaXaXaXaXaXaXaXaXaX",
"aXaXaXaXaXaXaXaXaXaXaXaXpXI.c a.iXaXaXaXaXaXwXn.G.aXaXaXaXaXaXaXpX5X* E.pXaXpX5X& / aXaXaXaXaXaXaXaXaXaXaXaXaXaXaXaXaXaXaXaXaXaX",
"aXaXaXaXaXaXpXiXeXyXyXeX.Xd.6.W.4X7X7XeXuXpX1X}.T.>X;X1X1X1X;X>X1X[.~ ^.}.XXXX|.d.d.;X;X#X#XOXoXOXoXOX#X1X0XaXaXaXaXaXaXaXaXaXaX",
"aXaXaXaXaXaXaXaXpXpX6X4X;X|..X:X2X2X5X2X8X0X5X6X5X0X0X6X6X0X0X0X6X9X<X3X8X5X6X6X5X:X5X5X4X6X6X8X3X6X6XqXuXpXaXaXaXaXaXaXaXaXaXaX",
"aXaXaXaXaXaXaXaXaXaXpXpXpXpXrXrXeXyXiXiXiXpXuXuXaXpXaXpXuXpXpXpXaXpXpXpXpXuXiXpXpXaXpXpXpXpXuXpXuXiXaXaXaXaXaXaXaXaXaXaXaXaXaXaX",
"aXaXaXaXaXaXaXaXaXaXaXaXaXaXaXaXaXaXaXaXpXaXpXaXaXaXaXaXaXaXaXaXaXaXaXaXaXaXaXaXpXaXaXaXaXaXaXaXaXaXaXaXaXaXaXaXaXaXaXaXaXaXaXaX"
};
