/* XPM */
static char *result[] = {
/* columns rows colors chars-per-pixel */
"64 64 6 1 ",
"  c black",
". c #F90000",
"X c #FF2D2D",
"o c #2D6BFF",
"O c white",
"+ c black",
/* pixels */
"++++++++++++++++++++++++++++++++++++++++++++++++++++++++++++++++",
"++++++++++++++++++++++++++++++++++++++++++++++++++++++++++++++++",
"++++++++++++++++++   +++++++++++++++++++++++++++++++++++++++++++",
"+++++++++++++++    oo  +++++++++++++++++++++++++++++++++++++++++",
"++++++++++++++  ooooooo  +++++++++++++++++++++++++++++++++++++++",
"++++++++++++++ ooooooooo   +++++++++++++++++++++++++++++++++++++",
"++++++++++++++  oooooooooo   +++++   +++++++++++++++++++++++++++",
"+++++++++++++++   oooooooooo  +    oo    +++++++++++++++++++++++",
"+++++++++++                ooo  oooooooo   +++++++++++++++++++++",
"+++++++++  oooooooooo    +  oooooooooooooo  ++++++++++++++++++++",
"+++++++++   ooooooooooooo    oooooo  oooooo  +++++++++++++++++++",
"++++++++++++  oooooooooooooooooooo    oooooo +++++++++++++++++++",
"++++++++++++++         oooooooooooo  ooooooo X++++++++++++++++++",
"+++++++++++++++++++++++  ooooooooooooooooooo X++++++++++++++++++",
"++++++++                  ooooooooooooo oooo X++++++++++++++++++",
"++++++  ooooooooooooooooooooooooooooooo  ooo +++++++++++++++++++",
"++++++ oooooooooooooooooooooooooooooooooo    +++++++++++++++++++",
"++++++  oooooooooooooooooooooooooooooooooooo +++++++++++++++++++",
"++++++++  oooooooo       ooooooooooooooooooo +++++++++++++++++++",
"++++++++++            ooooooooooooooooooooo  +++++++++++++++++++",
"+++++++++++++++   oooooo  oooooooooooooooo  ++++++++++++++++++++",
"++++++++++++   oooooo     ooooooooooooo    +++++++++++++++++++++",
"+++++++++++ oooooo    +++ ooooooooooo   ++++++++++++++++++++++++",
"++++++++   oooo    +++++  ooooooooo   ++++++++++++++++++++++++++",
"++++++++ ooo    ++++++++      ooo   ++++++++++OO+O++++++++++++++",
"++++++++     ++++++++++  ooooo   +++++++++++++OOOO++++++++++++++",
"++++++++++++++++++++++  ooooooooo  +++++++++++OOOOOO++++++++++++",
"+++++++++++++++++++++  oooooooooooo  +++++++++OOOOO+++++++++++++",
"+++++++++++++++++++++ oooooooooooooo +++++++++O+++++++++++++++++",
"++++++++++++++++++++  oooooooooooooo  +++++++oo+++O+++++++++++++",
"++++++++++++++++++++ oooooooooooooooo +++++ooo++++OOO+++++++++++",
"+++++++++++++++++++ oooooooooooooooooo +++oo+++++OOO++++++++++++",
"++++++++++++++++++  oooooooooooooooooo ++oo++++++oOOO+++++++++++",
"++++++++++++++++++ oooooooooooooooooooo oo++++ooo+O+++++++++++++",
"+++++++++++++++++ ooooooooooooooooooooo o++oooo+++++++++++++++++",
"++++++++++++++++  oooooooooooooooooooooooooo++++++++++++++++++++",
"++++++++++++++++ ooooooooooooooooooooooo +++++++++++++++++++++++",
"++++++++++++++++ ooooooooooooooooooooooo +++++++++++++++++++++++",
"++++++++++++++++ ooooooooooooooooooooooo +++++++++++++++++++++++",
"++++++++++++++++ ooooooooooooooooooooooo +++++++++++++++++++++++",
"++++++++++++++++ ooooooooooooooooooooooo +++++++++++++++++++++++",
"++++++++++++++++ ooooooooooooooooooooooo +++++++++++++++++++++++",
"++++++++++++++++ ooooooooooooooooooooooo +++++++++++++++++++++++",
"++++++++++++++++ ooooooooooooooooooooooo +++++++++++++++++++++++",
"++++++++++++++++  oooooooooooooooooooooo +++++++++++++++++++++++",
"+++++++++++++++++ oooooooooooooooooooooo +++++++++++++++++++++++",
"++++++++++++++++++ ooooooooooooooooooooo +++++++++++++++++++++++",
"++++++++++++++++++ oooooooooooooooooooo  +++++++++++++++++++++++",
"+++++++++++++++++++  ooooooooooooooooo  ++++++++++++++++++++++++",
"++++++++++++++++++++  ooooooooooooooo  +++++++++++++++++++++++++",
"++++++++++++++++++++++ oooooooooooo  +++++++++++++++++++++++++++",
"+++++++++++++++++++++++   oooooo   +++++++++++++++++++++++++++++",
"+++++++++++++++++++++++++ o   oo++++++++++++++++++++++++++++++++",
"++++++++++++++++++++++++++o+++o+++++++++++++++++++++++++++++++++",
"++++++++++++++++++++++++++o+++o+++++++++++++++++++++++++++++++++",
"++++++++++++++++++++++++++o+++o+++++++++++++++++++++++++++++++++",
"++++++++++++++++++++++++++o+++o+++++++++++++++++++++++++++++++++",
"++++++++++++++++++++++++++o+++o+++++++++++++++++++++++++++++++++",
"+++++++++++++++++++++++++++o++o+++++++++++++++++++++++++++++++++",
"+++++++++++++++++++++++++++o++.+++++++++++++++++++++++++++++++++",
"++++++++++++++++++++++++++.+++....++++++++++++++++++++++++++++++",
"++++++++++++++++++++++++++...+.....+++++++++++++++++++++++++++++",
"++++++++++++++++++++++++++....++++++++++++++++++++++++++++++++++",
"++++++++++++++++++++++++++++++++++++++++++++++++++++++++++++++++"
};
