/* XPM */
static char *result[] = {
/* columns rows colors chars-per-pixel */
"64 64 201 2 ",
"   c #020101",
".  c #0A0101",
"X  c #01010C",
"o  c #0B090B",
"O  c #120000",
"+  c #1B0101",
"@  c #110E0F",
"#  c #00041A",
"$  c #0F1218",
"%  c #131313",
"&  c #1A1516",
"*  c #1A1B1A",
"=  c #240100",
"-  c #2C0100",
";  c #340200",
":  c #3C0200",
">  c #3E080A",
",  c #271A1B",
"<  c #25241E",
"1  c #00042F",
"2  c #1F1D20",
"3  c #00073B",
"4  c #1F292A",
"5  c #272A29",
"6  c #302A2E",
"7  c #393739",
"8  c #420300",
"9  c #4C0500",
"0  c #440D08",
"q  c #530500",
"w  c #5C0700",
"e  c #540A05",
"r  c #570A05",
"t  c #4C100C",
"y  c #620700",
"u  c #640800",
"i  c #6B0A01",
"p  c #690B0A",
"a  c #720B01",
"s  c #7A0C01",
"d  c #771106",
"f  c #7B1206",
"g  c #711715",
"h  c #7A201A",
"j  c #792E2C",
"k  c #031259",
"l  c #3C3D42",
"z  c #001767",
"x  c #092B63",
"c  c #6C2448",
"v  c #4B4B49",
"b  c #4D5150",
"n  c #515151",
"m  c #525B5B",
"M  c #6A706D",
"N  c #7B7A77",
"B  c #830E00",
"V  c #8B0F00",
"C  c #8D1101",
"Z  c #8E1409",
"A  c #87180E",
"S  c #941202",
"D  c #9A1402",
"F  c #95150A",
"G  c #97190A",
"H  c #9F1B0C",
"J  c #861C15",
"K  c #951F18",
"L  c #A21402",
"P  c #AB1500",
"I  c #AB1904",
"U  c #AB160B",
"Y  c #A41C0B",
"T  c #AB1B0A",
"R  c #B11703",
"E  c #B31B02",
"W  c #BB1B02",
"Q  c #B41D0B",
"!  c #BB1C0B",
"~  c #A41B12",
"^  c #9C230B",
"/  c #AE230D",
"(  c #B52107",
")  c #BA200C",
"_  c #A62318",
"`  c #B22213",
"'  c #BC2416",
"]  c #BF2E1F",
"[  c #862626",
"{  c #9A2B23",
"}  c #A92D26",
"|  c #B52723",
" . c #A8312A",
".. c #BB3227",
"X. c #BA3737",
"o. c #C31B02",
"O. c #CC1D03",
"+. c #C51E0B",
"@. c #C72406",
"#. c #C4230C",
"$. c #CC220A",
"%. c #DB2203",
"&. c #DD2805",
"*. c #D3230A",
"=. c #DD240C",
"-. c #DD280A",
";. c #C22412",
":. c #CD2414",
">. c #CF2A16",
",. c #C3251A",
"<. c #CB251C",
"1. c #C42A1A",
"2. c #CC2A1A",
"3. c #D52613",
"4. c #DB2612",
"5. c #D32A15",
"6. c #DC2A13",
"7. c #D8261B",
"8. c #D52B1D",
"9. c #DB2B1C",
"0. c #E42503",
"q. c #EB2603",
"w. c #ED2904",
"e. c #E4250C",
"r. c #EB260B",
"t. c #E52A0C",
"y. c #EC290C",
"u. c #F42501",
"i. c #FE2600",
"p. c #F42800",
"a. c #FC2901",
"s. c #F3260A",
"d. c #FB2609",
"f. c #F42A0D",
"g. c #E42613",
"h. c #ED2513",
"j. c #E52A14",
"k. c #EC2A14",
"l. c #E4261B",
"z. c #E32A19",
"x. c #EB2B1B",
"c. c #F22511",
"v. c #F72915",
"b. c #C32A25",
"n. c #C72A24",
"m. c #D32C23",
"M. c #DA2A24",
"N. c #C7322B",
"B. c #D73227",
"V. c #E32D25",
"C. c #F22E20",
"Z. c #E43123",
"A. c #E02635",
"S. c #B8493F",
"D. c #AE3269",
"F. c #B53061",
"G. c #A6347C",
"H. c #C92B4E",
"J. c #D42943",
"K. c #AF665F",
"L. c #9E5F65",
"P. c #837877",
"I. c #1C46AB",
"U. c #094EBD",
"Y. c #7542A8",
"T. c #085BCE",
"R. c #2F58D9",
"E. c #175BEB",
"W. c #005FFE",
"Q. c #155CF2",
"!. c #0B61EC",
"~. c #0767F3",
"^. c #0262F5",
"/. c #0063FD",
"(. c #494DCE",
"). c #4F4CCC",
"_. c #4450D3",
"`. c #8A3D94",
"'. c #873C9B",
"]. c #7A8484",
"[. c #958081",
"{. c #919192",
"}. c #9B9DA1",
"|. c #A5A4A3",
" X c #B9BABA",
".X c #CE9DA0",
"XX c #BFBDC3",
"oX c #CBCCCA",
"OX c #D4D3D1",
"+X c #E0DEDF",
"@X c #E1E1DE",
"#X c #E3E5E6",
"$X c #ECEDEB",
"%X c #F0EEEF",
"&X c #EFF1EF",
"*X c #F5F2EE",
"=X c #F5F6F6",
"-X c #FEF4F2",
";X c #FCFBF6",
":X c #F6FEFC",
">X c #FFFFFF",
/* pixels */
">X>X>X>X>X>X>X>X>X>X>X>X>X>X>X>X>X>X>X>X>X>X>X>X>X>X>X>X>X;X>X>X>X>X>X>X>X>X>X>X>X>X>X>X>X>X>X>X>X>X>X>X>X>X>X>X>X>X>X>X>X>X>X>X",
">X>X>X>X>X>X>X>X>X>X>X>X>X>X>X>X>X>X>X>X>X>X>X>X>X>X>X>X>X>X>X>X>X>X>X>X>X>X>X>X>X>X>X>X>X>X>X>X>X>X>X>X>X>X>X>X>X>X>X>X>X>X>X>X",
">X>X>X>X>X>X>X>X>X>X>X>X>X>X>X>X>X>X>X>X>X>X>X>X>X>X>X>X>X>X>X>X>X>X>X>X>X>X>X>X>X>X>X>X>X>X>X>X>X>X>X>X>X>X>X>X>X>X>X>X>X>X>X>X",
">X>X>X>X>X>X>X>X>X>X>X>X>X>X>X>X>X>X>X>X>X>X>X>X>X>X>X>X>X>X>X>X>X>X>X>X>X>X>X>X>X>X>X>X>X>X>X>X>X>X>X>X>X>X>X>X>X>X>X>X>X>X>X>X",
">X>X>X>X>X>X>X>X>X:X>X>X:X>X>X=X5 .                 * 2 #X;X>X:X:X>X:X;X>X>X>X>X>X>X>X>X>X>X>X>X>X>X>X>X>X>X>X>X>X>X>X>X>X>X>X>X",
">X>X>X>X>X>X>X>X>X:X;X>X&X5 . ; *.a.l.F u.a.u.i.a.q.0.:.a ; + * *X>X;X>X>X>X>X>X>X>X>X>X>X>X>X>X>X>X>X>X>X>X>X>X>X>X>X>X>X>X>X>X",
">X>X>X>X>X>X>X>X>X-X:X$ - N.u.a.i.i.B i.i.i.i.i.i.i.i.u.i.u.Y K : . }.;X>X>X>X>X>X>X>X>X>X>X>X>X>X>X>X>X>X>X>X>X>X>X>X>X>X>X>X>X",
">X>X>X>X>X>X>X>X;X:X. S.i.i.i.a.i.W u.i.i.i.i.i.i.a.i.i.z./ u.i.i.v.u   >X>X>X>X>X>X>X>X>X>X>X>X>X>X>X>X>X>X>X>X>X>X>X>X>X>X>X>X",
">X>X>X>X;X>X>X>Xo f ~ d.i.i.i.i.a.w o.u.i.i.i.i.i.a.O.s u.i.i.i.i.i.i.,.* >X>X>X>X>X>X>X>X>X>X>X>X>X>X>X>X>X>X>X>X>X>X>X>X>X>X>X",
">X>X>X>X>X:XM + 7.i.B i.i.i.u.h.f >.u.i k.u.s.u.0.a s.i.a.i.i.i.i.i.i.i._ 5 :X>X>X>X>X>X>X>X>X>X>X>X>X>X>X>X>X>X>X>X>X>X>X>X>X>X",
">X>X>X>X>X-X- B i.i.w ! ! V W w.s i.d.i.u.s.a.m.s i.i.i.i.i.i.i.i.i.a.i.u.= ;X>X;X>X>X>X>X>X>X>X>X>X>X>X>X>X>X>X>X>X>X>X>X>X>X>X",
">X>X>X>X;X0 V V i.' i c.d.i.i.v.+.i.i.i.i.i.;.M.7.0.i.i.a.i.i.i.i.i.i.a.a.; ;X>X>X>X>X>X>X>X>X>X>X>X>X>X>X>X>X>X>X>X>X>X>X>X>X>X",
">X>X:X-X[.q a.s a r.Y i.i.i.i.<.u.i.i.i.i.e.o.i.a.S h.i.a.a.a.i.i.i.p.` C w ].>X>X>X>X>X>X>X>X>X>X>X>X>X>X>X>X>X>X>X>X>X>X>X>X>X",
":X>X>XXX= { y S u.i.Y i.i.i.w.9 i.i.i.i.i.F i.i.i.i.g.a #.j.a.=.s L c.u.i.s.O >X>X>X>X>X>X>X>X>X>X>X>X>X>X>X>X>X>X>X>X>X>X>X>X>X",
">X;XXX: o.n.i.i.i.u.9 ..1...D s a r.i.u.Q u.u.i.i.i.i.u.| q @.u.i.i.i.u.u.a.| . :X>X>X>X>X>X>X>X>X>X>X>X>X>X>X>X>X>X>X>X>X>X>X>X",
":XOX  3.i.B u.i.3.V H a.a.i.i.R i.t.%.8.H +.i.i.i.h.B :.i.u.I G B B.e.g.t.r.j.s o ;X>X>X>X>X>X>X>X>X>X>X>X>X>X>X>X>X>X>X>X>X>X>X",
":X  *   u q 3.&.u.i.G i.i.i.u.=.i.i.i.Z i.0.s u.V 6.h.] ' w 8 .   W i.a.i.i.i.i.:.O $X>X;X>X;X:X>X>X>X>X>X>X>X>X>X>X>X>X>X>X>X>X",
"=X5 >Xo   e.>.i.i.i.s i.i.i.r.e.i.i.8.g.i.i.k.+ 8 =   o * #X=XX . 7.V 7.a.i.i.d.i.r.G + >X;X>X>X>X>X>X>X>X>X>X>X>X>X>X>X>X>X>X>X",
" X  >Xv   u.C i.i.i.s i.i.i.s a.i.a.S i.i.j.9     =X>X:X  m >X  p u.i.z.B s.i.i.i.i.i.%.. :X>X>X>X>X>X>X>X>X>X>X>X>X>X>X>X>X>X>X",
"   X>X&   d.c.S z.i.a i.i.i.L i.i.` u.a.p.F (     =X>X>X    7 + x.i.i.i.i.' ,.i.a.i.i.D q.; ;X>X>X>X>X>X>X>X>X>X>X>X>X>X>X>X>X>X",
"o >XP.X + D D ^ B Q U J g.g.Q P S  .q.w.B a.y.  . o :X>X|.  . _ S i.a.i.i.i.u.L #.a.i.P i.=.@ ;X>X>X>X>X>X>X>X>X>X>X>X>X>X>X>X>X",
". u Z r a.a.a.B u.i.a.s u.i.i.i.i.>.6.=.:.g I D a . .   O : s.i.s.T i.i.i.i.i.i.s.V | m.i.i.' n :X>X>X>X>X>X>X>X>X>X>X>X>X>X>X>X",
"w a.%.9.i.i.O.v.i.i.u.H i.i.i.i.i.4.i.i.i.#.q.i.i.u.N.X.i.i.i.i.i.=.! i.i.i.i.i.h.B 0.$.S 5.i.h N >X>X>X>X>X>X>X>X>X>X>X>X>X>X>X",
". 6.a 0.*.o.[ l.g.i.u.W i.a.g.O.O.Z +.r.i.i.s a.i.i.i.S i.i.i.i.i.i.C.' i.i.i.0.L i.a.i.i.u.V Q -  X;X>X>X>X>X>X>X>X>X>X>X>X>X>X",
";X. } q.i.V u.i.i.' s 2.! V r.i.i.Y i.M.B %.=.m.i.r.O.=.K i.i.d.i.i.i.k.V.a.u.D i.i.i.i.i.i.i.i.X.  & >X>X>X>X>X>X>X>X>X>X>X>X>X",
">XL.: a.s.n.i.i.i.i.s.g.i.i.i.i.i.z.q.i.i.V.V s s g.i.i.0.M.i.i.i.i.i.i.L a.B i.d.i.i.i.i.i.0.L S *.. >X;X>X>X>X>X>X>X>X>X>X>X>X",
";X>Xt F P i.i.i.i.i.W u.i.i.i.i.i.i.$.i.i.i.i.b.u.i.i.i.i.R q.i.a.a.i.i.u.V S i.i.i.i.i.u.V =.i.i.i.V.X >X>X>X>X>X>X>X>X>X>X>X>X",
">X;X-X+ i i.i.i.i.a.Y a.i.i.i.i.i.a.W i.i.i.i.u.b.i.i.i.i.u.B u.i.i.l.P S B B i.i.i.i.i.s i.i.i.i.i.i.) o >X>X>X>X>X>X>X>X>X>X>X",
">X>X>XK.O D P S S O.K i.k.L V 1.1.] q 5.h.W W o.i %.u.O.W 0.s.e.i.L r.i.i.i.r.O.a.i.i.+.s.i.i.i.i.i.u.i.a o $X:X>X>X>X>X>X>X>X>X",
">X>X;X>X.X> e x.i.u.A G s.i.i.i.i.i.t.m.e.a.i.u.O.q.=.i.u.' ! i ~ q.i.i.i.a.i.j.<.i.u.S i.i.i.i.i.i.i.u.' - , =X:X>X>X>X:X>X>X>X",
">X:X>X;X>X;XoX  e k.:.u.i.i.i.i.i.i.i.P i.i.i.i.i.V i.i.i.i.u.U g.i.i.i.i.i.i.i.h.F U u.i.i.i.i.i.i.=.H t.; w.M.+ >X>X;X>X>X>X>X",
":X>X>X:X>X>X:X>XoX* . d q.s.s.u.u.i.i.S i.i.i.i.i.m.u.i.i.i.i.i.F i.i.i.i.i.s.%.U s d i.i.i.i.i.s.V u.i.p #.i.i.r.+ +X;X>X>X>X>X",
">X>X>X>X;X>X>X>X-X>X:X}.  .   . . s l.N.,.e.0.a.i.r.m.i.i.i.i.i.! u.i.i.u.V g.u.i.u.U i.i.i.i.r.! i.i.z.= u.i.i.i.k.= >X>X>X>X>X",
">X>X>X>X>X>X>X>X>X>X>X>X>X>X>X;X>X|.b b n n 7 . + - w i.i.i.u.u.k.t.a.*.+.u.i.i.i.i.h.3.i.i.u.s d.u.u.- k.i.i.i.i.i.c.@ :X>X>X>X",
">X>X>X>X>X>X>X>X>X>X>X>X>X>X>X>X>X:X>X>X>X>X;X>X>X=X. u <.s 0.C.q.Y w.x.i.i.i.i.i.i.i.S i.i.B a.i.*.; ' i.i.i.i.i.i.a.8 l :X>X:X",
">X>X>X>X>X>X>X>X>X>X>X>X>X>X>X>X>X>X>X>X>X>X>X>X>X>X>X6 . } u.i.i.B i.a.i.i.i.i.i.i.u.5.7.<.x.k.; - t.i.i.i.i.i.i.i.i.a.a m >X>X",
">X>X>X>X>X>X>X>X>X>X>X>X>X>X>X>X>X>X>X>X>X>X>X>X>X;X>X>X%Xl . 8 ; [ d.i.i.i.i.i.y.B g.0.B l.w ; 6.a.i.i.i.i.i.i.i.i.i.i.i.Z   =X",
">X>X>X>X>X>X>X>X>X>X>X>X>X>X>X>X>X>X>X>X>X>X>X>X>X>X>X;X;X{.: e.m.; : v.i.i.u.P 4.i.u.=.; + ( d.i.i.i.i.i.i.i.i.i.i.i.i.i.i.g.- ",
">X>X>X>X>X>X>X>X>X>X>X>X>X>X>X>X>X>X>X>X>X>X>X>X>X>X:X>X|.y a.i.a.i.M.= <.u.V d.c.s = 9 5.u.i.i.i.i.i.i.i.i.i.i.i.i.i.i.i.i.i.i.",
">X>X>X>X>X>X>X>X>X>X>X>X>X>X>X>X>X>X>X>X>X>X>X>X>X;X:X4 u i.i.i.i.i.i.h.= 8 ..8 - ` s.i.a.i.i.i.i.i.i.i.i.i.i.i.i.i.i.i.i.i.i.i.",
">X>X>X>X>X>X>X>X>X>X>X>X>X>X>X>X>X>X>X>X>X>X>X>X>X>X% Z i.i.i.i.i.i.i.i.f.i i 7.i.i.i.i.i.i.i.i.i.i.i.i.i.i.i.i.i.i.i.i.i.i.i.i.",
">X>X>X>X>X>X>X>X>X>X>X>X>X>X>X>X>X>X>X>X>X>X;X>X>X  | i.i.i.i.i.i.i.i.i.i.i.i.i.i.i.i.i.i.i.i.i.i.i.a.i.i.i.i.i.i.i.i.i.i.i.a.i.",
">X>X>X>X>X>X>X>X>X>X>X>X>X>X>X>X>X>X>X>X>X>X>X;X  m.i.i.i.i.i.i.i.i.i.i.i.i.i.i.i.i.i.i.i.a.i.i.i.i.i.i.i.a.i.a.i.i.i.i.i.i.i.i.",
">X>X>X>X>X>X>X>X>X>X>X>X>X>X>X>X>X>X>X>X>X:X>X  ` i.i.i.i.i.i.i.i.i.i.i.i.i.i.a.a.i.i.i.i.i.i.i.i.i.i.i.i.i.i.i.i.i.i.i.i.i.i.i.",
">X>X>X>X>X>X>X>X>X>X>X>X>X>X>X>X>X>X>X>X;X>X. ' i.i.i.i.i.i.i.i.i.i.i.i.i.i.i.i.i.i.i.i.i.i.i.i.i.i.i.i.i.i.i.i.i.i.i.a.i.i.i.i.",
">X>X>X>X>X>X>X>X>X>X>X>X>X>X>X>X>X;X>X>X;X  N.i.i.i.i.i.i.i.i.i.i.a.i.a.i.i.i.i.i.i.i.i.a.i.a.i.a.i.i.i.a.i.i.i.i.i.i.i.a.i.i.i.",
">X>X>X>X>X>X>X>X>X>X>X>X>X>X>X>X>X>X>X;X< c c.i.i.i.i.i.i.i.i.i.i.i.i.i.i.i.i.i.i.i.i.i.i.i.i.i.i.i.i.i.i.i.i.i.i.i.i.i.i.i.i.i.",
">X>X>X>X>X>X>X>X>X>X>X>X>X>X>X>X>X;X>XOXx /.E.F.a.i.i.i.a.i.i.i.i.i.i.i.i.a.i.i.i.i.a.i.i.i.i.i.i.i.a.i.i.i.i.i.a.i.i.i.i.i.a.i.",
">X>X>X>X>X>X>X>X>X>X>X>X>X>X>X>X>X;X;XX !./././._.A.a.a.i.i.i.i.i.i.i.i.i.i.i.i.i.i.i.i.i.i.i.i.i.i.i.a.a.i.i.i.i.i.a.i.i.i.i.i.",
">X>X>X>X>X>X>X>X>X>X>X>X>X>X>X>X>X:X7 I./././././.(.a.a.i.i.i.i.i.i.i.a.i.i.i.4.9 s k.u.i.r.E i.i.i.i.i.i.i.i.i.i.i.i.i.i.i.i.i.",
">X>X>X>X>X>X>X>X>X>X>X>X>X>X>X>X>X:X1 ^./././././.Q.s.i.i.i.i.i.i.i.a - B k.q.+     . U ; + 5.i.i.i.i.i.i.i.i.i.a.i.i.i.i.i.i.i.",
">X>X>X>X>X>X>X>X>X>X>X>X>X>X>X>X>X5 T./././././././.D.i.i.i.i.i.i.i.a.y._ + O . .     j B.x.P o.a.i.i.i.i.i.i.a.i.i.i.i.i.i.i.i.",
">X>X>X>X>X>X>X>X>X>X>X>X>X>X>X>X=X3 ^./././././././.).i.i.i.i.i.i.i.i.;.; + q .       9 8 8 A Q i.i.i.i.i.i.i.i.i.i.i.i.i.i.a.J.",
">X>X>X>X>X>X>X>X>X>X>X>X>X>X>X;X* T./.^.W./././././._.i.i.i.i.i.i.i.i.u.y.u.w.      . : *.w.y.a.i.i.i.a.i.i.i.i.i.i.i.i.i.i.i.`.",
">X>X>X>X>X>X>X>X>X>X>X>X>X>X;X&X3 /././.^./././././.R.d.i.i.i.i.i.i.i.s.~ ; -       y 2.q + + a i.i.i.i.i.i.i.i.i.i.i.i.i.i.i.E.",
">X>X>X>X>X>X>X>X>X>X>X>X>X>X>X% E././././././././.^.).i.i.i.i.i.i.i.u.; D Z.r.      = y i &.q.u.i.i.i.i.i.a.i.i.a.i.i.i.i.i.F.^.",
">X>X>X>X>X>X>X>X>X>X>X>X>X>X;X# ^./././././././././.'.i.i.i.i.i.i.i.i.a.D ; + .     u M.<.9 . = d.i.i.i.i.i.i.i.i.i.i.i.i.a.'.W.",
">X>X>X>X>X>X>X>X>X>X>X>X>X>X@Xz W././././././././.^.G.i.i.i.i.a.i.i.i.i.W e.u.a.6.-.i.i.i.i.i.i.i.i.i.i.i.a.i.i.i.i.i.i.i.a._./.",
">X>X>X>X>X>X>X>X>X>X>X>X;X>X& R././././././././././.H.i.i.i.i.i.i.i.i.i.i.i.i.i.i.i.i.i.i.i.a.i.i.a.a.i.i.i.i.i.i.i.i.i.i.d.E./.",
">X>X>X>X>X>X>X>X>X>X>X>X>X=X  ~./././././././././.Q.s.i.i.a.i.i.i.i.i.i.i.i.i.i.i.i.i.i.i.i.i.i.i.i.i.i.i.i.i.i.i.i.a.i.i.H.^.^.",
">X>X>X>X>X>X>X>X>X>X>X>X>X;XX /./././././././././.(.a.i.a.i.i.i.i.i.i.i.i.i.i.i.i.i.i.i.i.i.i.i.i.i.i.i.i.i.i.i.i.i.i.i.i.'.^.W.",
">X>X>X>X>X>X>X>X>X>X>X>X:X&Xk ^./././././././././.`.i.i.i.i.i.i.i.i.i.i.i.i.i.i.i.i.i.a.a.i.i.i.i.i.a.i.i.i.i.a.i.i.i.i.i.Y././.",
">X>X>X>X>X>X>X>X>X>X>X>X;Xv U././././././././././.J.a.i.i.i.i.a.i.i.i.i.i.i.i.i.i.i.i.i.i.i.i.i.i.i.i.i.i.i.i.i.i.i.i.i.i.Y././.",
">X>X>X>X>X>X>X>X>X>X>X>X:XX ~././././././././.^.Q.d.i.i.i.i.i.i.i.i.i.i.i.i.i.i.i.a.i.i.i.i.a.i.i.i.i.i.a.i.i.i.i.i.i.i.i.G././."
};
