/* XPM */
static char *result[] = {
/* columns rows colors chars-per-pixel */
"64 64 256 2 ",
"   c #0D0E0E",
".  c #091509",
"X  c #0C1618",
"o  c #141A1A",
"O  c #2D1312",
"+  c #12230D",
"@  c #1A2618",
"#  c #25281B",
"$  c #2B3118",
"%  c #0C0A26",
"&  c #171A25",
"*  c #11102D",
"=  c #2C1B29",
"-  c #2D192C",
";  c #1B2524",
":  c #1C292E",
">  c #242A27",
",  c #352F29",
"<  c #293528",
"1  c #262935",
"2  c #372733",
"3  c #2B3536",
"4  c #353A39",
"5  c #582F0A",
"6  c #512F17",
"7  c #4D312D",
"8  c #663830",
"9  c #2F401E",
"0  c #33472E",
"q  c #384729",
"w  c #3A4738",
"e  c #6F4F1F",
"r  c #46483A",
"t  c #544F33",
"y  c #48563A",
"u  c #6F4C36",
"i  c #526536",
"p  c #0E1147",
"a  c #0B164B",
"s  c #071957",
"d  c #0A1C5C",
"f  c #141A57",
"g  c #2C174F",
"h  c #122756",
"j  c #302F4F",
"k  c #071A64",
"l  c #0B1C63",
"z  c #151B6A",
"x  c #121D73",
"c  c #2F1972",
"v  c #072467",
"b  c #02236B",
"n  c #15276A",
"m  c #143368",
"M  c #062874",
"N  c #002B7B",
"B  c #162875",
"V  c #043478",
"C  c #19367A",
"Z  c #2E2C69",
"A  c #253A78",
"S  c #4C334F",
"D  c #5B2A7A",
"F  c #4C3574",
"G  c #3C4543",
"H  c #3B4E51",
"J  c #0F4476",
"K  c #2D4879",
"L  c #00657C",
"P  c #464A48",
"I  c #4A5747",
"U  c #55574A",
"Y  c #4E4E54",
"T  c #555B58",
"R  c #6E504D",
"E  c #675958",
"W  c #566447",
"Q  c #5B6E52",
"!  c #5B6957",
"~  c #646958",
"^  c #6E7050",
"/  c #667559",
"(  c #544F6D",
")  c #6E5370",
"_  c #5A696B",
"`  c #676B66",
"'  c #796864",
"]  c #6A7766",
"[  c #717172",
"{  c #787A77",
"}  c #864C1C",
"|  c #8D592E",
" . c #946D39",
".. c #A57935",
"X. c #8C584A",
"o. c #916D4E",
"O. c #A9774E",
"+. c #8C5676",
"@. c #877468",
"#. c #90756C",
"$. c #8B7C77",
"%. c #B37868",
"&. c #E76C6A",
"*. c #668127",
"=. c #748758",
"-. c #73876A",
";. c #77846B",
":. c #7A8574",
">. c #8F8F32",
",. c #AD8A38",
"<. c #CB9D31",
"1. c #8C8F55",
"2. c #B58B4D",
"3. c #A98658",
"4. c #B99656",
"5. c #8A8E6A",
"6. c #8A847A",
"7. c #96867A",
"8. c #859578",
"9. c #B08E6F",
"0. c #B89867",
"q. c #A2A864",
"w. c #B6AF74",
"e. c #C39953",
"r. c #CBA857",
"t. c #CDAA54",
"y. c #C5946D",
"u. c #C8A866",
"i. c #D8B767",
"p. c #CFAF74",
"a. c #DAC577",
"s. c #EFCB71",
"d. c #E3C879",
"f. c #052E82",
"g. c #033787",
"h. c #163686",
"j. c #192F90",
"k. c #023C92",
"l. c #28328C",
"z. c #2A1AA3",
"x. c #53328E",
"c. c #512393",
"v. c #5638A6",
"b. c #683AA6",
"n. c #13488C",
"m. c #034495",
"M. c #194896",
"N. c #264788",
"B. c #334F8D",
"V. c #1B6193",
"C. c #346997",
"Z. c #594388",
"A. c #465587",
"S. c #515095",
"D. c #64478B",
"F. c #664899",
"G. c #695698",
"H. c #745693",
"J. c #556590",
"K. c #726D91",
"L. c #6C4BAA",
"P. c #6A56A6",
"I. c #7657A8",
"U. c #764BB6",
"Y. c #7B58B6",
"T. c #546AAD",
"R. c #7766A9",
"E. c #716EAA",
"W. c #7B69B6",
"Q. c #691DCB",
"!. c #7469C5",
"~. c #9A249D",
"^. c #9B5F97",
"/. c #8C7591",
"(. c #8757B9",
"). c #8A70B3",
"_. c #DA669B",
"`. c #9934DA",
"'. c #8859C6",
"]. c #8967C6",
"[. c #8F6ECB",
"{. c #9877C8",
"}. c #9C75D6",
"|. c #A57AD8",
" X c #9872E0",
".X c #A97AE4",
"XX c #CE6BD1",
"oX c #1B96A7",
"OX c #63939B",
"+X c #7689AF",
"@X c #0E9BC8",
"#X c #009FFF",
"$X c #00A1FD",
"%X c #69C3E9",
"&X c #978983",
"*X c #8A9885",
"=X c #979887",
"-X c #8F8A91",
";X c #A79687",
":X c #AB9590",
">X c #97A687",
",X c #9AA895",
"<X c #B1AC93",
"1X c #9591AE",
"2X c #AA95B0",
"3X c #9EA5B3",
"4X c #B1ADB0",
"5X c #D19986",
"6X c #D7BA87",
"7X c #CAB290",
"8X c #E5BB8F",
"9X c #CBB6A6",
"0X c #E6A5AB",
"qX c #B9CAA3",
"wX c #D6C693",
"eX c #E6CB87",
"rX c #EDD486",
"tX c #F1D693",
"yX c #F8EE99",
"uX c #D9C7A8",
"iX c #D3D0B3",
"pX c #ECD5AD",
"aX c #F5E9B7",
"sX c #9988CF",
"dX c #A688D6",
"fX c #AD90D0",
"gX c #A996D8",
"hX c #8DB9C5",
"jX c #B4ADCF",
"kX c #AB86E4",
"lX c #B48BEB",
"zX c #AE98E4",
"xX c #B798E7",
"cX c #B7A6E8",
"vX c #B9ABE8",
"bX c #CC96DF",
"nX c #C8B2D1",
"mX c #CDB5EF",
"MX c #C8A9F6",
"NX c #AED0E5",
"BX c #CDCCD0",
"VX c #EAD2CE",
"CX c #DEE3D6",
"ZX c #F0EBCD",
"AX c #F8F6D7",
"SX c #CEC8EC",
"DX c #D8D5EA",
"FX c #D8C9F7",
"GX c #DBD4F8",
"HX c #EAD6F3",
"JX c #E6D9F6",
"KX c #F0F0ED",
"LX c #F6F8EB",
"PX c #EBE6F7",
"IX c #F6F7F7",
"UX c #FEFEFE",
/* pixels */
"UXUXUXUXUXUXUXUXUXUXUXUXUXUXUXUXUXUXUXUXUXUXUXUXUXUXUXUXUXUXUXUXUXUXUXUXUXUXUXUXUXIXhX$X$X$X$X$X$X#X$X#X#X#X#X#X#X#X$X$X#X$X$X$X",
"! ` ` [ ` ~ [ ] T I t OX6.,X-.4X8.-.:.6./ *X:.*X~ >X{ *X] ] 0 ~ ` T :.H ] Q :.] r I _ Q i y / W 5.y W q 5.-.U i ] W W >X=XiX>X8.",
"w W w < Q U Q ! I w 0 T ,X*X:.-.>X/ 8./ I :.w / >X/ / / 6.I ] OX] _ r Q :.y I { ;.-.W >X/ i y -.>X>Xi 8.Q i i Q 5.w 8.y i iX^ i ",
"y q @ / *X] :.-.{ / I 8.:.*X/ y -./ ~ :.w I W Q / Q ] 4XIXIXKXGXIXIXPXDXjXP r i >Xy q W Q 9 / w q.^ r t < =.iX8.qX:./ I y i <X/ ",
"] :.` ] :.@ w ] 0 I -.! I ! :.q / 9 { 6.*X, r *XW ~ BXIXSXzXvXmXvXFXGXSXPXJXjX-.Y w < / 8.y ;.! -.0 Q qX8.>X5.q.:.r ~ I =.-.=.=.",
"3 w { w ] > _ ] w H *XqX,X-.Q W 8.y ,Xr @ o w 6.,XiXUXSXgXzXzXzXvXvXSXSXDXSXDXDXT ] U < *Xq q U / I -.8.Q Q W / :.$ < ] Q =.=.8.",
": ; < G w w : < : T : ] w qX5.W / ^ ] > [ P , P 1X3XGXgX}.kXzXzXxXvXvXSXSXSXDXSXK.{ I ! :.~ ! Q W =.=.>X8.y ] >XW I U r 5.^ 1.=.",
"X o G P [ P : o : < 0 I @ y qXiXy / ^ U # P r OXPXPXgXsX{.sXdXzXcXvXSXGXSXSXDXSXDX-X! I 6.*Xw y Q W -.Q =.W Q w + ! 7.@.9.o.5.@.",
"T T P P T H G & H W I :.4 X =.>X+ / / I 4 4 ! IXBXjXW.).[.).sXgXcXzXGXsXgX3XE.SXSXj < < . / P < 0 / -.[ y ^ U   R @.9.:X5X5X9.y.",
": _ [ o j ; P X @ 3 _ : ] G OX,X,X< y U ` U IXjXY DXjXK.1XR.Z G.S.G.E.1XGXSXgXvXSXjX*X5.] < > -.] I q y 5.:X;X%.X.#.R u R #.X.R ",
"P > 1 ; o 3 X 1 Y G w 9 ~ *X9 y ~ P < ~ T BXjX).j BXqXBX% F SXBXY BXPXfXzXzXcXvXSXSXjXI q U y -.U ] r $ 5X9.%.X.R 6 7 S 2 7 7 u ",
"@ 1 w X & + ! < I ,Xw :.8.Q 8.=.Q @ I ,X` jXgXW.K.DXBX1XvXzX[ BXCXCXPXzXgXgXgXSXGXGXvX{ 8.=.q.r 4 y P 6.9.o.X.8 6 O R O = O O O ",
"3 ; T 3 I Q W ! P W :.W W -.! ! ] / -.,X3X).W.!.R.j % ).1XFXgX1 ` 1 F {.sXsXzXGXFXmXgX-X*Xi y / 3 1 r ^ X.u X.7 O R 5Xy.y.O.X.2 ",
"w Y P : ; @ Q ! G H < ; X 3 ; ; ! $ w _ _ R.L.L.G.F sXG.P.W.!.gX).R.W.).[.gXgXsXzXgXfX4XP P o . > o O R X.X.6 O O +.5Xy.5X0X5X8 ",
"-.H 3 X & . :.8.. X X 1 X : w ; G X & ! g I.P.S.S.G.sXW.l.P.mXvXGXZ L.(.].W.[.[.].].{.fX4 & o 4 > > # u u 7 - O O 7 8 %.X.8 X.R ",
"! w ,X*Xw X @ 4 . qXqX< K.{ ! _ 4 8.W { ZXK.P.v.G.F 1XW.sXgXcXvXR.E.{.L.P.P.Y.].[.}.sXjX-X:X4XuX` I P U 8 O O O X.X.&.0XX.5Xy.#.",
"w ] 0 I : o 1 < =.=.qX+ X X o 4 ! :XZX5.%.^.P.F.( G.F Z S.P.F P.x.W.P.P.P.P.Y.].{.}.xX2XiXZX<Xp.t .   r u 7 o O X.O.8XX.%.%.y.8 ",
"1 3 3 Q ! @ w w qXw.=.@ ; : : & > &X3.3.3.-XR.F.S.W.P.S.g Z.G.E.E.E.x.B.!.P.!.}.dX2XHXiXw.p.u.w.7 ` [ Q 7.7 R +.%.y.y.0X8X%.y.O ",
"& X ; Q -.y . $ <XiX# 1 X ; X & o @.O.3.3.:XI.F.x.mX).W.[.[.sXvXcXE.E.+XE.R.].[.) 5X6X4.r.r.e.^ @ T !   @ E O 6 %.%.%.y.y.pX5 8 ",
"H : 1 4 < 0 0 w.q.iX+ : . -.& & 1 ' X.o.O.9.G.D.G.( gXR.P.+XsXE.GXgXsXE.P.Y.Y.D.t 4.r.i.u.u.7XpX4XT # o.2.1.t O 7 X.| X.%.%.aXX.",
"X X : X X + =.=.q $ i o r 3 X & o VX^ R ` - ).F.G.F F ( x.Z.D.F P.S.).W.Y.Y.Y.F.- p.y.wXZXIXKXIXDX4X7.u 1...>.0.8 S 9 -.OX@X@X@X",
"X X w < @ w =.*.3 $ i   4 o P CX4XiX%.- % p x.P.I.F F F F j S g F Z.W.W.W.(.Y.I.S 7XZXLXLXLXIXhXSXSXjX4X7.o.3. .%.S , K oXNXNX%X",
": w -.=.Q Q 5.=.I Y w 4 3 ` BXBXUXq.~ & p Z.D.G.F.D.D.D F S ( c G.G.R.(.Y.Y.Y.I.D.p.pXZXCXqX1XvXNXBXjXNXBXIXAXaX9X%.g +X%XOXoXNX",
": : 0 9 I =.^ -.{ & : > , LX' KX^ 9XKXBXj * D.D.F.D.Z.D.Z.D.Z.F.G.P.W.].].Y.Y.U.F.o.9.9X{ 1X3XjXjXSXNXBXLXLXCXVX9X9XE.l.T.!.@X@X",
"0 : 3 H G : -.< : 1 : 4 KXiXZXR #.VXiXiXCX-Xj D.Z.D.D.F.D.F.Z.F.P.P.U.(.F.^.L.D.S <X0.7XiX( K./.1X3X4XKXKXVXnX) S 7 3X( ) D.^.b.",
"X G X : X . < @ X X : T LXVXo.^ BXVX9XwX7XwX9X/.( S ( D D ) ) D.) S R $.:X:Xy.6XeXtX0.0.p.iXY ' [ uXCXZX9X) fXMXJXPX2Xr u } %.^.",
"/ 0 ; G ; 0 . w I iX; p.o.3.ZXZXiX9XuXwXwXa.p.u.r.e.2.e.e.t.t.t.i.i.i.d.rXs.tXtXrXrXeXd.p.e.1.aXwXeXaXVXMXHXPXnXJXJXnXFX;.p...,.",
"w H . . w y / w i w.] 3.0.^ iXuXwXuXwXwXeXp.p.r.r.r.e.e.e.t.t.t.i.r.d.d.a.rXtXtXtXrXtXyXtXu.p.tXd.tXpX^.lX|.PXHXJXDXSXJXNX=.1...",
"X q 9 + y 0 =.i i i $ | W P ;Xp.7XuX9XwXa.r.u.r.r.i.r.e.e.t.t.i.i.d.i.i.s.d.tXtXtXrXrXeXeXeX3.tXyXtXVX)..X'.mXGXCXHXmXJXDX( i ,.",
"i w.q.,XX ; >X-.9 Q fX%.= Y 1X[ iXuXwX6Xp.r.r.r.t.e.<.e.e.t.t.t.t.i.t.d.d.d.rXrXtXyXtXpXVXiXU d.rXuX^.lXb.|.MX).JXHXMXmXFX+XH y ",
"*.>.q.+ X X X . + K.fX:X&X1XE.( [ uX9X8Xw.i.e.t.r.e.<.e.,.t.t.t.i.t.a.i.a.a.eXtXpXiX[ & H h H ,.s.8X+.xX(.|.'.[.lXmXmXmXFXmXm hX",
"i =.*.-.0 9 @ : Y K.xX` -XK.J.C.A.:X9Xp.0.t.r.t.y...e.e.,.t.<.t.t.i.i.r.wXuXVX` H B.V n.J m j ..s.tXS lX.X.Xc.'.'.}.FXHXmXnX+X3X",
". < U I i w > j MX'.[./.K.J.A.A.l.A.E.J.j w #.u.i.,.4.p.0.<X[ j * h C C B.T.g.n.n.n.V V V V m # , S ).MXfXfXMXxXfXmXmXjXjXJXjX,X",
"4 G Y > i >Xi nXlX.Xb.K._ J.A.A.C C C.B.J m j e.....e.7Xh Z m N f.f.f.M.C.j.n.n.m.g.V g.V V C Y ) ' {..Xb.lXlX|.MXmXJXJXIXJXnX/.",
"1 o # w < @ 9X}..X(.(.K.J.A.B.B.K C J N.n.K Z u.| O.4.,Xh C B f.h.f.f.B.T.C.C.B.M.k.V g.V J J 2 - 2 x.b..X.X[.xXbXmXJXPXPXJXFXfX",
"@ $ i 9 r y nX|.(.(.c.J.J.J.( A.h.J J N.n.B.( u...e.0.j m C C f.f.h.h.B.C.C.T.C.C.V.V g.J J C.= - O F Y.[.(..XlXMXMXJXJXPXPXmXK.",
"q -.8.q 1 & }.].(.'.b.G.J.A.A.B.A N.h.N.B.B.H e.%.e.:Xg B C h.h.f.j.g.B.V.L V.L J.n.m.J n.C.N.1 = % D U.{.[.|.xXMXMXFXJXPXPXmXmX",
"@ > . 3 K.dX'.U.(.b.b.D.J.A.( A K C h.n.N.B.( 3.e.u.K.B B l.h.h.h.h.V N.L L oXoXoXJ m J m K C [ S O F (.'..X|.bXlXxXHXJXPXPXFXxX",
"4   ; j H.MX}.Y.c.c.x.S.S.A.A.K C A C C C N.S 3.y.6X= 4XIXKXVXAXZX9XpXqXCXAXKXOXL J A J m h j -X9X9XiXnX/.{.2X|.lXlXHXHXPXHXHXxX",
"< I ! T fXsXdX X XL.c.v.S.A.B.N.K l.K l.C K S 0.6X;XVX9X9XVXVXZXZXuXqXw.w.yXqXqXBXY >XCXiXiXZXiXZXZXAXAXKXLXZXKXIXH.).MXPXHXFXxX",
"T Y ! P nXjXMX|.!.U.Q.S.S.B.K N.C C M.M.M.B.E uXpX9XuX9X0XBXIXKXmXpXZXaXAXAXZXpXuXwXpXiXiX9XiXCXCXLXLXLXLXLXLXLXKXIXHXD fXHXHXxX",
"j :.4XBXSXFXgXlX XU.v.l.J.A.K K A V l.M.M.S.-X%.9.^.0X:X+.fXIXHX~.VXuXpX0.9.pXpXZXZXAXAXpXZXAX7XCXLXKXKXKXKXLXLXIXZXHXHXmX2XHXxX",
"    P S mXmXdXdX'.U.v.c S.B.A N.N.V B.j.M.A./.^.+.) H.H.^.^.XXXXXXHXVXtXtXpXaXpXwXaXaXwXaXpXaX9XpXiXqXAXAXZXAXAXZXZXCXmXbXbXFXfX",
"4X4X:XBXnXHXjXxX XU.b.l.S.B.( K A h.B.j.k.l.A Z c l.z.z.c.`.Q..XbX2X5X6X8XtXtXtXtXrXwX0.0.8XZXtXp.q.q.w.iXaXaXaXaXpXKXMXkX[.lXMX",
"BX1X2XnXL.F.xXlXlXv.b.k Z B.Z A A M n.l.j.j.j.j.z.j.z.z.z.Q.FXHXNXM._.5Xp.u.u.u.wXeXp.3.O.p...d.eXp.7Xp.7Xp.7X6Xp.p.5XkXlX|.g g ",
"4X,X2X/.L.mX}.kXlXU.c.z B l.K A A C h.M.h.j.M.j.j.j.z.z.Q.`.~.~.'.XX+.KXLXyXeXe.0.eXp.e.4...| 5 p.O.0.3.O.3.3.3.y.3.2X.X.X[.S % ",
",X:X2X).{.2XfXfXF.'.(.f B B K A C B M h.h.M.j.j.j.z.z.z.z.XX_._.bX_.5XAXAXyXt.u.4.o.4.d.8Xe.} 5 2.3.0.3.0.3.0.3. .2.^.'.'.U.- % ",
"jXBX4XI.|.bXfXjXmX|.U.Z B j.B C A v B h.h.M.j.j.x l.z.z.c._.VXKXIX0X5X2.t.e.i. .y.p.| |  .| 5 4.O.O.3.0.0.3.O. .o.| L.U.b.S % g ",
"4X4XnXH.(.fXJXFXmXxX|.h d x x M C n v B C B.j.j.j.j.c c.c._.0XKXLX5X&.y.%.O.%.9.O.O.0.}  .| e pXwX8X7Xp.0.9.u e | e S p % % j ( ",
"4 r ) /.]..Xc.c ).xXMX(.S.k k x x B x B N l.h.n z z z z z.0X| <.aXs.<.8 8 8 8 8 8 e u 6 | y.8Xu R X.X.) E E ` _ Z ( P 2 - * * * ",
"E P ) ).U.I.[.|.(.).sXU.z p b b k M k B B h.B n z f c x B S u y.AXyXi.2 - * * - % S 2 S R 8 5 O * * p d g.k.k.n.M.K.P , P * % * ",
"E ` ) H.(.U.(.F.x.(.{.g g p s k k n s B B h.B n z z z x c Z j S S S g f z f p f p p a a % * g 1Xp s s N k.g.m.m.M.{ P , P & X % ",
":.&X6./.L.I.F.(.c.D b.c x.p s k k v s v v B B z z z z x z f a c g Z f f f a f a f a a * s s s a s k k N k.m.m.g.A $.U t Y ( % X ",
"*X&X;X2X) I.x.U.x.x.D D.Z p s k l v k M n M x n k z z z z z f f f f f a s a a a a a a a s s s s k k M g.g.k.m.k.A.$.E E T T % % ",
"-X:X=X2X2XD.F.D.F F.c Z j h s k n v k b M B M z k f z z k s f f s d d s s s s a s a a d k k k k b k N k.k.m.m.n.K.7.R R ` E & % ",
"@.$.&X&X7.&X/.) /././.E j j m n m n l x n x v k k k k k k f s s h s h d d s s d s s s b b b b b b f.g.k.m.g.k.T.,X7.@.' ' @.' [ ",
"@./.;X7.&X;X7.7.7.&X7.T ( j h m Z m k v b M v v s k k k l d d d s s d d l s s s d s v b M M b N N f.k.k.m.m.M.T.4X7.#.#.@.@.@.$.",
"E @.#.7.&X&X6.&X7.;X6.S ~ $.3 j m h v b C M b k f d k d d l l d d d v k v v v b k k b M N N N N f.g.m.m.m.m.M.K.:X;X#.$.$.' ' R ",
"@.@.$.$.$.&X&X&X&X&X6.4 , y ^ [ h m v v M C b v k l s k l z d d v l v v v v v k k b b N N N N f.f.f.m.k.m.V.l.1X;X9.7.#.@.R R :X",
"' @.7.$.$.$.$.&X&X&X6.{ 7 6 o.X.[ Z m V V V b v s k v s k l v v v v l v b v v v d M N N N f.N f.g.k.m.k.k.M.S.4X<X<X;X9.@.' E ) ",
"' @./.#.&X&X/.7.&X&X-X;X:X7 u  .o.1 f a s d l l z z f g - p h h s s d v v v v v s V N f.N f.f.f.g.k.m.m.m.N.-X<X<X<X;X7.@.@.@.#.",
"E ' $.6.$.$.6.6.$.$.&X,X,X<X' 6 7 , , O O , u o.o.X..... ...,.O.8 5 t u u u u U b N V V N N f.g.k.k.V.M.J.jX4X9X9X<X9.#.#.7.$.;X",
"@.$.7.$.$.&X{ &X6.6.7.:X:X4X' ~ U 2 2 2 1 = = = O o... .O.o.O = > = = = = - = * v V N V g.V g.g.g.V.S.K -X4X9X4X5X<X;X7.$.7.7.:X",
"' $.&X6.&X$.6.$.&X$./.:X,X<X<X[ S E 2 2 = = = = O - o.u O o.0.O - - - - 2 = 2 * V M N V V V V m m J.E.[ 9X<X9X9X9X:X:X%.;X&X;X;X"
};
