/* XPM */
static char *result[] = {
/* columns rows colors chars-per-pixel */
"64 64 231 2 ",
"   c #1E372F",
".  c #2D293D",
"X  c #273839",
"o  c #333E3D",
"O  c #1E4332",
"+  c #244335",
"@  c #244837",
"#  c #2B443B",
"$  c #254B3A",
"%  c #2B4C3C",
"&  c #314A3E",
"*  c #26543C",
"=  c #2A533E",
"-  c #265A3D",
";  c #2B5A3E",
":  c #32533F",
">  c #25613F",
",  c #2F2542",
"<  c #332444",
"1  c #36264A",
"2  c #352B48",
"3  c #392B4D",
"4  c #2C3641",
"5  c #3A334D",
"6  c #36394A",
"7  c #3B2D53",
"8  c #392856",
"9  c #3E2D5B",
"0  c #3C3254",
"q  c #3C3A53",
"w  c #3E3259",
"e  c #3D3A59",
"r  c #3F2B61",
"t  c #413D46",
"y  c #402F5B",
"u  c #41325C",
"i  c #413858",
"p  c #422E63",
"a  c #433264",
"s  c #473A65",
"d  c #463269",
"f  c #49346B",
"g  c #2E4D40",
"h  c #334442",
"j  c #374848",
"k  c #2D5541",
"l  c #2D5C42",
"z  c #285A45",
"x  c #325444",
"c  c #315D44",
"v  c #345C4B",
"b  c #39584A",
"n  c #3A4755",
"m  c #375654",
"M  c #1F7946",
"N  c #276644",
"B  c #2D6344",
"V  c #2C6A45",
"C  c #2B644A",
"Z  c #2D6B49",
"A  c #326246",
"S  c #326A47",
"D  c #34644A",
"F  c #39654C",
"G  c #346B4B",
"H  c #3A6A4E",
"J  c #257447",
"K  c #2E744C",
"L  c #267C4B",
"P  c #2D7B4D",
"I  c #33734D",
"U  c #33794E",
"Y  c #2C6E54",
"T  c #356953",
"R  c #3B6C53",
"E  c #2F7655",
"W  c #2C7D51",
"Q  c #357452",
"!  c #3A7354",
"~  c #347C52",
"^  c #3A7A55",
"/  c #377659",
"(  c #3C7D5A",
")  c #46474F",
"_  c #4A534F",
"`  c #4A4957",
"'  c #544C58",
"]  c #445B53",
"[  c #57545D",
"{  c #675358",
"}  c #79595C",
"|  c #456955",
" . c #4E6B59",
".. c #43775B",
"X. c #76625E",
"o. c #454863",
"O. c #574E6B",
"+. c #575662",
"@. c #5B5965",
"#. c #5D5B6A",
"$. c #625D69",
"%. c #665C78",
"&. c #5B6966",
"*. c #4D7363",
"=. c #587A69",
"-. c #686864",
";. c #64626D",
":. c #796566",
">. c #69756F",
",. c #6A6874",
"<. c #76737A",
"1. c #845F61",
"2. c #876968",
"3. c #8A716D",
"4. c #8D7977",
"5. c #927875",
"6. c #1A8D51",
"7. c #25824E",
"8. c #2D804E",
"9. c #2B8553",
"0. c #2C8B56",
"q. c #338255",
"w. c #398156",
"e. c #358558",
"r. c #3B845A",
"t. c #358B5B",
"y. c #3B8B5C",
"u. c #29965C",
"i. c #34935E",
"p. c #37945E",
"a. c #3A8C62",
"s. c #2D9C62",
"d. c #2E9B65",
"f. c #379464",
"g. c #3C9362",
"h. c #349B64",
"j. c #3C9865",
"k. c #3B9D6A",
"l. c #2BA567",
"z. c #37A669",
"x. c #34A46A",
"c. c #3CA36B",
"v. c #33AB6C",
"b. c #34B36F",
"n. c #36AB71",
"m. c #3CAD71",
"M. c #35B374",
"N. c #3AB375",
"B. c #3CB679",
"V. c #36BA78",
"C. c #3CBB7B",
"Z. c #42865E",
"A. c #478866",
"S. c #59876A",
"D. c #419868",
"F. c #5E8B76",
"G. c #648978",
"H. c #6A907C",
"J. c #44A874",
"K. c #42B67B",
"L. c #3BC27C",
"P. c #41C17F",
"I. c #928879",
"U. c #746689",
"Y. c #797883",
"T. c #847D8A",
"R. c #897B98",
"E. c #739386",
"W. c #59A883",
"Q. c #45BD80",
"!. c #72B090",
"~. c #3EC882",
"^. c #43C483",
"/. c #45CA87",
"(. c #52CD8E",
"). c #44D48B",
"_. c #46D48B",
"`. c #6FC79B",
"'. c #78C9A1",
"]. c #888789",
"[. c #908F8F",
"{. c #8A9A97",
"}. c #969495",
"|. c #989697",
" X c #979897",
".X c #9D9A9B",
"XX c #A29C9A",
"oX c #A19D9E",
"OX c #89A398",
"+X c #90AB9E",
"@X c #A39FA0",
"#X c #99AEA7",
"$X c #A9A5A6",
"%X c #A7A7A8",
"&X c #ADAAAC",
"*X c #A9AFAF",
"=X c #B0AEAF",
"-X c #B1AEB1",
";X c #ACB8B3",
":X c #B5B3B4",
">X c #B8B6B7",
",X c #B4B7B8",
"<X c #B9B7B9",
"1X c #B3BDBA",
"2X c #BCBABC",
"3X c #91C4AA",
"4X c #ACC3BC",
"5X c #B6C2BD",
"6X c #BEBDC0",
"7X c #C0BFC1",
"8X c #BBC7C4",
"9X c #B6D3C9",
"0X c #C4C2C5",
"qX c #C5C4CA",
"wX c #C9C6CC",
"eX c #C4CBCA",
"rX c #CBCACD",
"tX c #D0D2CF",
"yX c #CDCCD1",
"uX c #D1CED3",
"iX c #D0CFD8",
"pX c #CCD4D3",
"aX c #D3D2D5",
"sX c #D5D4DA",
"dX c #D8D6DC",
"fX c #D7DADC",
"gX c #DADADC",
"hX c #CBE0D9",
"jX c #DEDCE1",
"kX c #E6E6E7",
"lX c #EFEFF1",
/* pixels */
"wXwXwXrXrXrXrXrXyXyXyXuXyXyXyXyXyXyXwXwXqXqXqXqXwXqXwXwXwXwXwXqXwXwXiXiXiXiX8XiXsXyXyXrXqXqXqX7XqXqX7XwXqXqXqXqXqXqXqXqXqXqXqXqX",
"wXwXwXrXyXrXyXyXyXaXpXfXpX8X4XpXyXyXwXwXqXwXqXqXqXwXwXrXwX8XqXwXiXiXiX.XY.Y.,.U.Y.6XiXiXrXqXwX8XqX7X7X8XqXqXqXqXqXqX6XqXqXqXqXqX",
"wXrXwXrXrXrXrXtXaXdX4XF.x.v.N.N.K.3XeXyXrXwXwXqXqXqXyXqXrXyXwXwXwXiX@X` #.#.#.+.+.@.U.yXyXwXqXqXiX6XiX6XqXqXqXqXqXqXqXqXqXqXqXqX",
"wXrXeXrXrXuXaXsXwXW.h.M.L.~.).)._./.'.yXyXyXwXwXeXqXwXyXqXyXqXyXiXjXO.+.+.+.+.+.[ ' ) :XiXyXwXqX6X6XiX7X6XqXqXqXqXqXqXqXqXqXqXqX",
"wXrXrXyXrXpXaXsX!.z.V.L.).~.~.L.L.L.V.8XuXuXrXwXyXyXyXyXwXyXyXiXiXY.[ +.#.#.Y.@.@.' ) #.dXiXsX7X7XiXqXqXqXqXqXqXqXqXqXqXqXqXqXqX",
"wXrXrXyXuXaXfXOXp.V.P._.L.~.L.).~.~.~.(.eXuXaXaXyXyXyXyXyXyXyXiXsXY.+.#.#.&.T.,.&X` ) ` dXjX7XiXqX6XqXqX6XqXqXqXqXqXqXqXqXqXiXqX",
"rXwXyXyXuXaXpXJ.m.C.P.L.L.).).).L.L.V.V.`.uXsXsXiXsXsXsXuXaXsXsXfXY.+.+.#.#.@.[ ' ` i ' jX7X7X7XqXqXqXqXqXqXqXqXqXqXqXqXqXqX6XqX",
"rXyXyXyXuXfX4Xz.J.N.L.).).).L.L.V.V.V.V.^.`.`.'.3X9XsXsXfXsXsXjXsX&.` #.;.$.%.#.' O.' O.jXdXdX7XqXqXqX6XqXqXqXqXqXqXqX6XiXqXqXqX",
"eXyXrXuXsXfXA.k.J.N./.).).~.B.B.V.M.M.V.V.l.V.^.^.Q.W.`.9X9XfXjXjX<.;.;.;.,.,.,.;.@.` ) dXsX7XiXqXqXqXqXqXqXqXqX6XqX6XqXqX6XqXqX",
"rXyXyXuXsXgXf.t.c.P._.P.B.M.b.b.v.v.b.v.6.6.M.^.^.C.C.C.B.Q.`.hXqX$.$.$.;.,.;.-.$.@.[ t $XuXiX7XqXqXqXqXqXqX6X6XqXqXiX6XqXiXqXqX",
"tXyXuXuXsX;Xr.a.c./.B.m.x.x.x.x.s.s.d.d.6.6.l.C.Q.B.M.M.B.B.C.K.aX3.@.[ ' :.X.' @.{ [ { R.dXuXiXqXqXqXqXqXqX6XiX6XqXqXqXqXqXqXqX",
"yXyXuXuXaXE.Q ( J.K.c.j.h.f.t.e.q.W W J L u.V.~././.M.M.B.B.V.l.!.XXI.{ { 2.X.{ ' { ' { 7XdX7X7XqXiXqXqXqXqXqXqXqXqXqXqXiXqXqXqX",
"rXrXuXaXfXG.Y ^ J.j.y.y.~ ~ U U E L J J u.l.C.C.^./.(.^.C.C.M.d.D.I.I.I.3.3.1.} 1.} 3.T.dXuX7XiXiXqXqXqXqX6XqXqX6XiXqX6X6XiX6XiX",
"yXuXuXaXfX%XR y.D.A.w.^ I S S V C C z N Y l.M.M.M.C././.(./.V.M.s.F.I.5.3.5.1.1.2.3.$XsXdXuXuXuXqXqXqXiXiX6XqXqXqX7XqXiXqXqXqX7X",
"yXyXuXaXgXgX=.A.w.^ ! H D A A A C z z u.V.~.~.^.l.M.M.^.~.~.~.C.b.Z.I.I.5.5.2.1.2.4.kXjXdXiXyXiXiXqXqXqX7XiX7XiX7XiXqX7XqXqXqXiX",
"yXuXuXsXgXgXeXA.! R H D v c c = $ O M n.C.^.C.C.^./.M.d.B.^.V.C.z.Z.-.I.1.2.1.1.2.4.jXjXdXiXuX7XqXqXiXqXiX7XiX7XiX7X7XiXqX7XiX7X",
"yXyXrXaXgXgXgXE.! A c c = = % + $ k u.m.B.C.C.P.Q.^.^.^.b.M.V.v.z.8.Z.3.2.1.1.3.3.-.8X8XdXsXuXyXiXqXwXiX7XiX7X7X7XiXwXwXwXwXwXwX",
"rXtXaXaXsXgX#X..A ; A c l = = # g C u.N.N.C.K.P.^.P.L.^.C.m.v.N.u.P ..{ 3.2.2.3.:.] / ..OXjXsXiXiXqXiX7XiX7XiXiXiX7XwXwXwXwXwXwX",
"yXyXaXsXfX8Xr.r.y.i.c.z.q.q.f.f.@ N l.b.N.K.C.K.P.^.P.K.B.M.s.d.i.8.> c _ } } X.h x T R / +XpXsXiXiXiXqXiXiXiX7XiXwXwXwXrXwXwXwX",
"rXaXyXsXsXH.q.f.p.z.J.z.h.x.N.v.J 0.i.b.N.N.b.V.C.C.C.N.B.b.l.u.j.e.H ; # t ) o # v F T / ( E.pXiXiXiXiXiX7XiXiXwXwXyXwXwXqXyXwX",
"rXyXaXsXeXA.t.f.z.c.K.c.u.z.m.l.0.l.7.i.v.b.v.m.N.N.K.K.N.v.l.0.0.^ G A v % # & j c D D ! ^ ( H.jXdXiX9X6X9XiXiXyXwXyXwXrXrXqXyX",
"uXtXaXsX1X( y.f.j.J.J.z.l.m.c.0.0.v.u.L 0.p.z.z.v.m.v.m.v.x.d.0.U S A ; f.w.F v H | c c T ^ / ( #X*XW.c.n.W.!.iXiXyXyXeXqXqXwXwX",
"tXuXaXsX4X( t.g.p.D.c.J.j.c.f.e.L 8.h.i.L 8.0.i.u.l.l.x.x.h.i.9.K l = l h.y.^ T F H R ..H S Q ^ / c.c.k.f.d.k.*XsXyXyXqXwXwXwXwX",
"yXuXaXsX1X( y.y.D.p.p.f.p.f.t.q.V V U t.p.y.P P q.i.i.i.i.t.e.U Z k * G j.e.G G A A D R Z...A ! / k.c.c.f.a.k.k.sXuXpXyXyXyXwXwX",
"uXaXaXaXfXF.y.y.Z.y.e.e.p.g.~ Z B * Z G ~ e.y.P V I P w.q.q.~ Z l $ O K 9.K V A ; ; A D ! ^ ..H Y k.k.c.f.a.a.f.E.pXaXrXrXrXwXrX",
"yXyXaXsXfXF.w.r.Z.w.U P y.r.I B k + C Z S I U ^ U V V I Z G B B l @ $ e.m.i.t.I H A ; l l H ! D T k.k.c.j.a.~ a.A.eXaXrXrXrXrXwX",
"rXaXtXaXdX*X( ( ^ ^ I I w.G c c g # ].^ S I V V G U S B A B l l * O N v.m.u.0.^ H H F F A A A R / h.D.D.g.( / A./ 1XaXyXyXrXwXrX",
"aXrXaXsXdX4X..! ! G S H ! l l k & g lXpXI S A Z S S G I S l l l $ $ W x.z.t.K K S S ; F H A A D Q f.k.k.j.( / ( ! 5XaXyXrXrXwXwX",
"rXtXtXsXaXF.! ! ! A A G D l x % g  XlX{.+ C G Z S S B A B A c k * S q.i.p.~ V S F A A A A F F c C g.D.j.a...! ..! 1XaXyXyXrXrXrX",
"rXaXaXaX5X^ Q D ! H A F A c = = &.kXkX>.# % * S S A B c B A l = l w.e.K U I A A ; ; ; F A c F @ v a.a.D.y.! R R F 1XpXuXrXeXrXrX",
"tXaXaXsX#X! Q H = c c A c c & _ kXkX5X# # @ % + O c c l k = O * G r.w.I S S ; A ; A A c c A v % : y.y.A.Z.! R T  .8XaXyXrXrXwXrX",
"rXaXuXaX=.U ^ G c % $ = = # + h kXkXE.h g g @ # @ + + + % @ $ = G I I S ; S A ; ; ; : c A c c % % ^ r.r.( R R T >.sXuXyXrXrXwXrX",
"yXtXaXaX! U ^ ^ R l % x c x # _ jXkXm $ g k @ k g $ + = c : % * G H S A ; ; A ; c ; A c c F : # % ! ! ! ! H R F  XuXuXyXrXrXwXrX",
"rXuXaXaXQ ^ w.r.y.A % c c v h &.kX{.x $ k * k A z l k D c % O = B B ; A ; S ; A A c F c A % + & @ F H H H ! F v sXyXyXtXrXrXwXrX",
"yXuXuXaXK Q ^ y.a.r.* l x b x oXgX=.g * l B S B D B A v + @ +   $ A c c ; ; : F c c c : %   = v = : S | H | | 7XaXuXyXrXrXeXwXwX",
"yXyXuXaX! ~ q.y.D.y.= l x c g 2XeXb k z B G S H Z Z B c = # # + + = A c | : ; ; A c : + & : c D : = = H | | 2XtXaXyXrXrXrXwXwXwX",
"rXyXuXuX! Q q.y.D.t.B c v k &.gX1Xk k N - - - I H B B l = % & $ & #  .S.S.: S : ; : @ & x c F c H H A 5XgXaXaXaXtXtXrXrXrXrXrXwX",
"rXtXuXaXQ ^ w.y.j.y.B l k x 0XfX;Xk z - I V > > B ; v l k g % % & # 2XgXtX;X>XH.& @ & c c A c A ! H S >XgXaXuXuXrXrXrXwXwXwXwXrX",
"rXrXtXuXG.U q.y.j.y.B D c -.gXgX{.l G V K K V N * O O O @ x % % + & kXgXgXgXgX2X% % : ; c c ; F H A | 5XtXtXtXtXtXrXrXrXwXrXrXrX",
"rXtXtXuX;X! w.g.g.t.B H c :XaXsX=.C Z V U ~ K V - c * % % # # @ # & gXgXtXgXgX>.& = c : F ; A A ; S ..5XtXtXtXtXrXrXrXrXrXrXwXwX",
"rXrXuXuX=XU U y.p.w.Q G *.uXaX2XR Z I K W q.I > B z l * k @ g # #  .aXaXaXaXgX>.= : c c c A c c : c G.aXuXtXtXrXtXrXrXrXrXrXrXwX",
"tXtXrXuX=X| 8.Z.p.W ( - :XuXaXU.n T K P ~ ~ I > S B l k x g k # # X.tXtXrXtX5X] % ; c c ; A c A A | >XtXuXuXuXtXrXrXtXrXrXrXrXrX",
"rXtXtXuX2XS.U Z.y.e.r.R rXaXrX%.3 6 F V ~ ~ V N C ; z l = x # # o }.:XrXwXwX] X + % = c : c A A F >.tXtXuXuXuXrXrXrXtXrXtXrXrXrX",
"rXrX7XuXrXH.> w.r.r.! ;XyXR.U.f w 7 0 v N U > G B l ; $ x # . . . 3 ' =XqXwXg # % $ @ = c c A F OX7XrXrX0XwXrX7XrXrX0XrX0XrX0XrX",
"tX0XrXrX0XtX| U U F b -XR.s s s s u w 5 X c * T B k k g X . 4 2 2 2 q q ,.2X# # % = % $ $ = H #X7X0X0X0X0X0X0X0X0X0XwX0XrXrXrXrX",
"0XrX0X0XrX0X..; = g _ %.u u u u u u u 9 u e 5 X 6 4 4 1 1 1 8 2 2 5 q 5 5 %.h # = : % k = : H %X7X7X7X7X7X2X>X7X7X0X0X0X0X0X0XwX",
"0XrXrX0X0XeX....! c j i i y u u u y w 9 w s a w w 7 7 7 8 1 8 2 3 2 3 3 3 5 j o % k = l c c ..&X2X7X2X>X>X>X2X2X2X7X0X0X0X0X0X0X",
"rX0X0X0X0X0X| U ! c j 5 3 i u u 9 u u u 7 w a a u r a a w w 9 8 j n e 0 5 7 5 X % k = ; = A S.:X2X>X>X>X>X>X>X>X>X2X7X0X0X0X0XwX",
"0X0X0X0X0XrX| ....A j i 3 y i y w 9 u y 7 1 1 8 y d a s e n 6 C L L m m n w 6 . # = = ; : A S.:X>X>X>X>X:X:X:X>X>X>X2X7X0X7X0X0X",
"0X0X0X0X0X0X XS R H j 5 i 5 3 3 u 7 7 7 3 1 , 1 y f s f n L L M 9.L L Z C e w 4 X = ; ; ; F S.&X:X:X:X:X:X;X:X:X>X>X>X2X0X7X7X7X",
"0X0X0X0X0X0X0X X*.F 6 n F g 6 6 0 0 8 1 1 < < 1 7 r d ` L 0.L M 0.9.7.L N n w 4 X $ ; ; ; S  X%X&X=X=X=X=X=X=X=X:X>X>X>X7X7X2X7X",
"0X0X0X0X0X0X7X7X%X| 4 v H G * I Y q 7 1 , < < < 1 9 a m L 9.L M 0.9.L W N m w 4   $ ; ; ; H .XoXXX$X&X&X=X&X&X=X=X=X:X>X2X2X2X7X",
"0X7X7X0X0X7X0X7X:X+.j D I Q > K E R 5 5 t y < < s 8 a n Y Y E Y Y W 0.Y N q w #.  O ; ; > | .X.XXX$X&X&X$X&X&X&X=X&X=X-X>X2X2X2X",
"0X7X7X0X0X7X7X2X&Xo.6 v Q Q N P E C 4 0 < 1 < < R.r r 9 r e w f f d o.e n s w ].  X * * - I. X.XXXXXXX$X$X$X$X$X$X$X=X=X=X>X>X2X",
"7X7X7X7X7X7X2X2X-XO.e m T Q C K K k m T i 3 y t ].f d p 8 r a r f f f f u a w ,.  + * ; : ].}.oXXXXXXX#X@X$X&X$X@X$X$X&X=X:X>X>X",
"7X7X7X7X7X2X2X>X:XO.0 s s n o.n n n 0 i 3 < . <.T.p d r r r d d d f f r a a a 6 # O @ * | |.|.oXXXXX@XXX@X@X$X$X$XoX@X$X&X-X:X>X",
"6X6X6X6X2X2X<X<X6XU.i y y y y 3 w w 8 1 1 < 2 T.R.f f r r r f a r f r f r r e n # : @ ]  X XoX|..X.X.XoX@X@X@X@XoXoX$X@X$X-X:X:X",
"7X2X7X2X2X2X>X>X<XO.i y y i y y u w w 7 3 3 y T.T.f f f f r d d f r f r r r w q # = | [. X X|.oXoX@X@X@X@X@X.X@X@X@X@X@X$X-X:X>X",
"7X7X2X2X2X>X>X:X<XU.9 9 i y y y w 7 ` 3 3 3 ' |.T.d d d f r r r r r e O.y 7 7 n X v ].|.|..X|.|..X@X.X@X@X@X@X@X@X@X@X@X@X&X:X:X",
"2X2X2X<X2X>X>X<X<XO.w y y y y 3 7 7 e 7 3 1 ' .XT.d d d d a r r r r r f y 5 y ,.<.[.|.}. X.XoXoX@X.X@X@X.X@X@X.X@X@X@X@X@X=X-X:X",
"2X2X>X2X2X>X>X>X,X<._ i y y 3 3 7 7 7 7 1 3 ' |.T.f a s a r 9 r r u y i 5 n 6 T.}.}.}.|.|.|..X.X.X@X.X@XoX@X@X@X&X@X@X@X$X&X-X:X",
">X2X2X2X<X:X:X:X:X-X .q y y 3 3 7 7 3 3 3 3 +.}.T.f e T Y T a r 8 u i b ; x ) [.}.}.}.}.|.|..X.XoX.X.X@X@X@XoX@X@X@X@X@X&X=X-X:X",
">X2X>X>X<X<X:X:X-X-X X] q 5 2 j 5 7 3 3 5 o j ].}.&.K W 9.7.z n 7 0 F ; ; : | }.}.}.}.|.|..X.X.X@X.X@X@X@X@X@X@X@X@X@X@X$X&X-X:X",
">X2X>X>X<X:X:X:X-X-X$X .b x h x j 0 n 6 4 g x E.}.].K P 0.7.9.P - z > ; > ; ].}.}.}.|.}.|..X|..X.X.X@X.X@X@X@X@X@X@X@X@X&X&X-X:X"
};
